G04 #@! TF.FileFunction,Legend,Bot*
%FSLAX46Y46*%
G04 Gerber Fmt 4.6, Leading zero omitted, Abs format (unit mm)*
G04 Created by KiCad (PCBNEW 4.0.7) date 07/08/18 15:45:41*
%MOMM*%
%LPD*%
G01*
G04 APERTURE LIST*
%ADD10C,0.100000*%
%ADD11C,0.200000*%
%ADD12C,0.120000*%
%ADD13C,0.150000*%
G04 APERTURE END LIST*
D10*
D11*
X117100000Y-76200000D02*
G75*
G03X120200000Y-73300000I100000J3000000D01*
G01*
X154800000Y-73200000D02*
G75*
G03X157800000Y-76200000I3000000J0D01*
G01*
X157800000Y-90800000D02*
X157800000Y-76300000D01*
X154800000Y-90800000D02*
X157800000Y-90800000D01*
X154800000Y-111200000D02*
X154800000Y-90800000D01*
X157800000Y-111200000D02*
X154800000Y-111200000D01*
X157800000Y-128800000D02*
X157800000Y-111200000D01*
X117200000Y-128800000D02*
X157800000Y-128800000D01*
X117200000Y-111200000D02*
X117200000Y-128800000D01*
X120200000Y-111200000D02*
X117200000Y-111200000D01*
X120200000Y-90800000D02*
X120200000Y-111200000D01*
X117200000Y-90800000D02*
X120200000Y-90800000D01*
X117200000Y-76200000D02*
X117200000Y-90800000D01*
X154800000Y-73200000D02*
X120200000Y-73200000D01*
D12*
X123270000Y-122730000D02*
X123270000Y-125270000D01*
X123270000Y-125270000D02*
X120600000Y-125270000D01*
X120600000Y-122730000D02*
X120600000Y-84500000D01*
X120600000Y-127940000D02*
X120600000Y-125270000D01*
X135970000Y-125270000D02*
X138640000Y-125270000D01*
X135970000Y-125270000D02*
X135970000Y-87170000D01*
X135970000Y-87170000D02*
X138640000Y-87170000D01*
X123270000Y-122730000D02*
X120600000Y-122730000D01*
X123270000Y-122730000D02*
X123270000Y-87170000D01*
X123270000Y-87170000D02*
X120600000Y-87170000D01*
X120600000Y-84500000D02*
X138640000Y-84500000D01*
X138640000Y-84500000D02*
X138640000Y-127940000D01*
X138640000Y-127940000D02*
X120600000Y-127940000D01*
D13*
X154100000Y-73299999D02*
X139100000Y-73300000D01*
X139000000Y-73300000D02*
X139000000Y-86300000D01*
X154100000Y-73250000D02*
X154100000Y-86250000D01*
X154100000Y-86299999D02*
X139100000Y-86300000D01*
X128714286Y-120766667D02*
X128238095Y-120766667D01*
X128809524Y-121052381D02*
X128476191Y-120052381D01*
X128142857Y-121052381D01*
X127285714Y-121052381D02*
X127857143Y-121052381D01*
X127571429Y-121052381D02*
X127571429Y-120052381D01*
X127666667Y-120195238D01*
X127761905Y-120290476D01*
X127857143Y-120338095D01*
X152314286Y-78092857D02*
X152314286Y-79064286D01*
X152257143Y-79178571D01*
X152200000Y-79235714D01*
X152085714Y-79292857D01*
X151857143Y-79292857D01*
X151742857Y-79235714D01*
X151685714Y-79178571D01*
X151628571Y-79064286D01*
X151628571Y-78092857D01*
X151171428Y-78092857D02*
X150428571Y-78092857D01*
X150828571Y-78550000D01*
X150657143Y-78550000D01*
X150542857Y-78607143D01*
X150485714Y-78664286D01*
X150428571Y-78778571D01*
X150428571Y-79064286D01*
X150485714Y-79178571D01*
X150542857Y-79235714D01*
X150657143Y-79292857D01*
X151000000Y-79292857D01*
X151114286Y-79235714D01*
X151171428Y-79178571D01*
M02*
