G04 #@! TF.FileFunction,Copper,L1,Top,Signal*
%FSLAX46Y46*%
G04 Gerber Fmt 4.6, Leading zero omitted, Abs format (unit mm)*
G04 Created by KiCad (PCBNEW 4.0.7) date 07/08/18 15:45:41*
%MOMM*%
%LPD*%
G01*
G04 APERTURE LIST*
%ADD10C,0.100000*%
%ADD11R,1.600000X1.600000*%
%ADD12C,1.600000*%
%ADD13O,1.600000X1.600000*%
%ADD14R,2.000000X2.000000*%
%ADD15O,2.000000X2.000000*%
%ADD16R,1.800000X1.800000*%
%ADD17C,1.800000*%
%ADD18C,1.400000*%
%ADD19R,1.700000X1.700000*%
%ADD20O,1.700000X1.700000*%
%ADD21R,1.524000X1.524000*%
%ADD22O,1.400000X1.400000*%
%ADD23C,2.000000*%
%ADD24C,1.524000*%
%ADD25O,1.800000X1.800000*%
%ADD26C,1.500000*%
%ADD27C,0.600000*%
%ADD28C,0.500000*%
%ADD29C,0.254000*%
G04 APERTURE END LIST*
D10*
D11*
X141000000Y-79250000D03*
D12*
X143500000Y-79250000D03*
D11*
X141000000Y-126000000D03*
D12*
X143500000Y-126000000D03*
D11*
X147000000Y-126000000D03*
D12*
X149500000Y-126000000D03*
D11*
X122000000Y-124000000D03*
D13*
X137240000Y-90980000D03*
X122000000Y-121460000D03*
X137240000Y-93520000D03*
X122000000Y-118920000D03*
X137240000Y-96060000D03*
X122000000Y-116380000D03*
X137240000Y-98600000D03*
X122000000Y-113840000D03*
X137240000Y-101140000D03*
X122000000Y-111300000D03*
X137240000Y-103680000D03*
X122000000Y-108760000D03*
X137240000Y-106220000D03*
X122000000Y-106220000D03*
X137240000Y-108760000D03*
X122000000Y-103680000D03*
X137240000Y-111300000D03*
X122000000Y-101140000D03*
X137240000Y-113840000D03*
X122000000Y-98600000D03*
X137240000Y-116380000D03*
X122000000Y-96060000D03*
X137240000Y-118920000D03*
X122000000Y-93520000D03*
X137240000Y-121460000D03*
X122000000Y-90980000D03*
X137240000Y-124000000D03*
X122000000Y-88440000D03*
X137240000Y-88440000D03*
D14*
X141750000Y-110250000D03*
D15*
X141750000Y-115330000D03*
D16*
X133000000Y-108250000D03*
D17*
X130460000Y-108250000D03*
D16*
X128250000Y-108250000D03*
D17*
X125710000Y-108250000D03*
D18*
X125790000Y-125940000D03*
X133410000Y-125940000D03*
X125790000Y-123400000D03*
X133410000Y-123400000D03*
X125790000Y-120860000D03*
X133410000Y-120860000D03*
D19*
X155000000Y-115000000D03*
D20*
X155000000Y-117540000D03*
X155000000Y-120080000D03*
X155000000Y-122620000D03*
X155000000Y-125160000D03*
D21*
X152500000Y-78000000D03*
X152500000Y-80000000D03*
X147500000Y-78000000D03*
X147500000Y-80000000D03*
D18*
X123500000Y-82250000D03*
D22*
X123500000Y-77170000D03*
D18*
X127500000Y-82250000D03*
D22*
X127500000Y-77170000D03*
D18*
X131500000Y-82250000D03*
D22*
X131500000Y-77170000D03*
D18*
X135500000Y-82250000D03*
D22*
X135500000Y-77170000D03*
D23*
X126250000Y-116750000D03*
X126250000Y-112250000D03*
X132750000Y-116750000D03*
X132750000Y-112250000D03*
D21*
X136600000Y-74600000D03*
D24*
X134600000Y-74600000D03*
X132600000Y-74600000D03*
X130600000Y-74600000D03*
X128600000Y-74600000D03*
X126600000Y-74600000D03*
X124600000Y-74600000D03*
X122600000Y-74600000D03*
D16*
X144500000Y-106250000D03*
D25*
X147040000Y-106250000D03*
X149580000Y-106250000D03*
D16*
X127000000Y-103000000D03*
D25*
X129540000Y-103000000D03*
X132080000Y-103000000D03*
D26*
X140050000Y-84750000D03*
X140050000Y-74750000D03*
X142590000Y-84750000D03*
X142590000Y-74750000D03*
X145130000Y-84750000D03*
X145130000Y-74750000D03*
X147670000Y-84750000D03*
X147670000Y-74750000D03*
X150210000Y-84750000D03*
X150210000Y-74750000D03*
X152750000Y-84750000D03*
X152750000Y-74750000D03*
D21*
X142950000Y-121000000D03*
D24*
X142950000Y-118460000D03*
X145490000Y-121000000D03*
X145490000Y-118460000D03*
X148030000Y-121000000D03*
X148030000Y-118460000D03*
X150570000Y-121000000D03*
X150570000Y-118460000D03*
D27*
X139241600Y-100845500D03*
X144901500Y-115628500D03*
X144976300Y-116843600D03*
X149853800Y-116096200D03*
X124028800Y-110375400D03*
X151171400Y-78066600D03*
X143200300Y-113553000D03*
X148240900Y-115534700D03*
X133982100Y-96932800D03*
X133142100Y-83353800D03*
X134048500Y-87698700D03*
X138865500Y-98550500D03*
X145957700Y-77112800D03*
D28*
X141750000Y-115330000D02*
X141750000Y-110250000D01*
X143860000Y-83410000D02*
X141000000Y-80550000D01*
X143860000Y-104210000D02*
X143860000Y-83410000D01*
X144500000Y-104850000D02*
X143860000Y-104210000D01*
X144500000Y-106250000D02*
X144500000Y-104850000D01*
X141000000Y-79250000D02*
X141000000Y-80550000D01*
X133000000Y-108250000D02*
X133000000Y-109650000D01*
X128250000Y-105650000D02*
X127000000Y-104400000D01*
X128250000Y-108250000D02*
X128250000Y-105650000D01*
X127000000Y-103000000D02*
X127000000Y-104400000D01*
X128250000Y-108250000D02*
X128250000Y-109900000D01*
X128250000Y-110250000D02*
X126250000Y-112250000D01*
X128250000Y-109900000D02*
X128250000Y-110250000D01*
X142950000Y-125450000D02*
X143500000Y-126000000D01*
X142950000Y-121000000D02*
X142950000Y-125450000D01*
X145130000Y-80880000D02*
X145130000Y-84750000D01*
X143500000Y-79250000D02*
X145130000Y-80880000D01*
X144837000Y-102647000D02*
X147040000Y-104850000D01*
X144837000Y-85043000D02*
X144837000Y-102647000D01*
X145130000Y-84750000D02*
X144837000Y-85043000D01*
X147040000Y-106250000D02*
X147040000Y-104850000D01*
X124172400Y-121782400D02*
X125790000Y-123400000D01*
X124172400Y-118552400D02*
X124172400Y-121782400D01*
X122000000Y-116380000D02*
X124172400Y-118552400D01*
X132750000Y-109900000D02*
X132750000Y-112250000D01*
X128250000Y-109900000D02*
X132750000Y-109900000D01*
X132750000Y-109900000D02*
X133000000Y-109650000D01*
X145130000Y-77620000D02*
X143500000Y-79250000D01*
X145130000Y-74750000D02*
X145130000Y-77620000D01*
X150270000Y-126000000D02*
X153650000Y-122620000D01*
X149500000Y-126000000D02*
X150270000Y-126000000D01*
X155000000Y-122620000D02*
X153650000Y-122620000D01*
X149580000Y-106250000D02*
X149580000Y-107650000D01*
X137240000Y-124000000D02*
X138540000Y-124000000D01*
X139700000Y-125160000D02*
X139700000Y-126000000D01*
X138540000Y-124000000D02*
X139700000Y-125160000D01*
X141000000Y-126000000D02*
X139700000Y-126000000D01*
X138540000Y-123246000D02*
X138540000Y-124000000D01*
X142014100Y-119771900D02*
X138540000Y-123246000D01*
X143374200Y-119771900D02*
X142014100Y-119771900D01*
X144162400Y-118983700D02*
X143374200Y-119771900D01*
X144162400Y-117818900D02*
X144162400Y-118983700D01*
X144084600Y-117741100D02*
X144162400Y-117818900D01*
X144084600Y-113145400D02*
X144084600Y-117741100D01*
X149580000Y-107650000D02*
X144084600Y-113145400D01*
X149580000Y-88793000D02*
X149580000Y-106250000D01*
X147670000Y-86883000D02*
X149580000Y-88793000D01*
X147670000Y-84750000D02*
X147670000Y-86883000D01*
X145490000Y-123190000D02*
X147000000Y-124700000D01*
X145490000Y-121000000D02*
X145490000Y-123190000D01*
X147000000Y-126000000D02*
X147000000Y-124700000D01*
X136600000Y-74600000D02*
X137862000Y-74600000D01*
X139241600Y-114873700D02*
X139241600Y-100845500D01*
X142827900Y-118460000D02*
X139241600Y-114873700D01*
X142950000Y-118460000D02*
X142827900Y-118460000D01*
X146450000Y-73530000D02*
X147670000Y-74750000D01*
X144618700Y-73530000D02*
X146450000Y-73530000D01*
X143860000Y-74288700D02*
X144618700Y-73530000D01*
X139627700Y-100459400D02*
X139241600Y-100845500D01*
X139627700Y-89187800D02*
X139627700Y-100459400D01*
X138818600Y-88378700D02*
X139627700Y-89187800D01*
X138818600Y-79152100D02*
X138818600Y-88378700D01*
X141250700Y-76720000D02*
X138818600Y-79152100D01*
X142324200Y-76720000D02*
X141250700Y-76720000D01*
X143860000Y-75184200D02*
X142324200Y-76720000D01*
X143860000Y-74288700D02*
X143860000Y-75184200D01*
X143095300Y-73524000D02*
X143860000Y-74288700D01*
X138938000Y-73524000D02*
X143095300Y-73524000D01*
X137862000Y-74600000D02*
X138938000Y-73524000D01*
X147500000Y-80000000D02*
X147500000Y-81262000D01*
X149007500Y-82769500D02*
X147500000Y-81262000D01*
X149007500Y-87229900D02*
X149007500Y-82769500D01*
X150487400Y-88709800D02*
X149007500Y-87229900D01*
X150487400Y-105073000D02*
X150487400Y-88709800D01*
X150959300Y-105544900D02*
X150487400Y-105073000D01*
X150959300Y-109570700D02*
X150959300Y-105544900D01*
X144901500Y-115628500D02*
X150959300Y-109570700D01*
X152500000Y-80000000D02*
X152500000Y-81262000D01*
X151549600Y-82212400D02*
X152500000Y-81262000D01*
X151549600Y-95052200D02*
X151549600Y-82212400D01*
X151659600Y-95162200D02*
X151549600Y-95052200D01*
X151659600Y-110160300D02*
X151659600Y-95162200D01*
X144976300Y-116843600D02*
X151659600Y-110160300D01*
X135950400Y-97349600D02*
X137240000Y-96060000D01*
X135950400Y-118319600D02*
X135950400Y-97349600D01*
X133410000Y-120860000D02*
X135950400Y-118319600D01*
X152750000Y-113200000D02*
X149853800Y-116096200D01*
X152750000Y-84750000D02*
X152750000Y-113200000D01*
X124028800Y-92925300D02*
X124028800Y-110375400D01*
X124709900Y-92244200D02*
X124028800Y-92925300D01*
X124709900Y-79579900D02*
X124709900Y-92244200D01*
X123500000Y-78370000D02*
X124709900Y-79579900D01*
X123500000Y-77170000D02*
X123500000Y-78370000D01*
X152500000Y-78000000D02*
X151238000Y-78000000D01*
X151171400Y-78066600D02*
X151238000Y-78000000D01*
X143200300Y-108440600D02*
X143200300Y-113553000D01*
X142590000Y-107830300D02*
X143200300Y-108440600D01*
X142590000Y-84750000D02*
X142590000Y-107830300D01*
X148240900Y-115709100D02*
X148240900Y-115534700D01*
X145490000Y-118460000D02*
X148240900Y-115709100D01*
X123250500Y-94770500D02*
X122000000Y-93520000D01*
X123250500Y-116357100D02*
X123250500Y-94770500D01*
X125790000Y-118896600D02*
X123250500Y-116357100D01*
X125790000Y-120860000D02*
X125790000Y-118896600D01*
X134353800Y-97304500D02*
X133982100Y-96932800D01*
X134353800Y-118276800D02*
X134353800Y-97304500D01*
X132200000Y-120430600D02*
X134353800Y-118276800D01*
X132200000Y-124730000D02*
X132200000Y-120430600D01*
X133410000Y-125940000D02*
X132200000Y-124730000D01*
X120710400Y-89729600D02*
X122000000Y-88440000D01*
X120710400Y-122000900D02*
X120710400Y-89729600D01*
X121459100Y-122749600D02*
X120710400Y-122000900D01*
X123020100Y-122749600D02*
X121459100Y-122749600D01*
X125790000Y-125519500D02*
X123020100Y-122749600D01*
X125790000Y-125940000D02*
X125790000Y-125519500D01*
X133142100Y-80012100D02*
X133142100Y-83353800D01*
X131500000Y-78370000D02*
X133142100Y-80012100D01*
X131500000Y-77170000D02*
X131500000Y-78370000D01*
X135500000Y-77170000D02*
X135500000Y-78370000D01*
X133460200Y-105249800D02*
X130460000Y-108250000D01*
X133460200Y-102210300D02*
X133460200Y-105249800D01*
X133231800Y-101981900D02*
X133460200Y-102210300D01*
X133231800Y-84518200D02*
X133231800Y-101981900D01*
X134341500Y-83408500D02*
X133231800Y-84518200D01*
X134341500Y-79528500D02*
X134341500Y-83408500D01*
X135500000Y-78370000D02*
X134341500Y-79528500D01*
X134048500Y-92128700D02*
X134048500Y-87698700D01*
X136709800Y-94790000D02*
X134048500Y-92128700D01*
X137804400Y-94790000D02*
X136709800Y-94790000D01*
X138865500Y-95851100D02*
X137804400Y-94790000D01*
X138865500Y-98550500D02*
X138865500Y-95851100D01*
X147500000Y-78000000D02*
X146238000Y-78000000D01*
X146238000Y-77393100D02*
X146238000Y-78000000D01*
X145957700Y-77112800D02*
X146238000Y-77393100D01*
X130019600Y-76019600D02*
X128600000Y-74600000D01*
X141320400Y-76019600D02*
X130019600Y-76019600D01*
X142590000Y-74750000D02*
X141320400Y-76019600D01*
X152076700Y-76616700D02*
X150210000Y-74750000D01*
X153277600Y-76616700D02*
X152076700Y-76616700D01*
X153950400Y-77289500D02*
X153277600Y-76616700D01*
X153950400Y-113306100D02*
X153950400Y-77289500D01*
X149300000Y-117956500D02*
X153950400Y-113306100D01*
X149300000Y-119730000D02*
X149300000Y-117956500D01*
X148030000Y-121000000D02*
X149300000Y-119730000D01*
X131746500Y-82496500D02*
X131500000Y-82250000D01*
X131746500Y-92301100D02*
X131746500Y-82496500D01*
X125600100Y-98447500D02*
X131746500Y-92301100D01*
X125600100Y-108140100D02*
X125600100Y-98447500D01*
X125710000Y-108250000D02*
X125600100Y-108140100D01*
X124779200Y-109180800D02*
X125710000Y-108250000D01*
X124779200Y-115279200D02*
X124779200Y-109180800D01*
X126250000Y-116750000D02*
X124779200Y-115279200D01*
D29*
G36*
X132346800Y-101512088D02*
X132110072Y-101465000D01*
X132049928Y-101465000D01*
X131462509Y-101581845D01*
X130964519Y-101914591D01*
X130810000Y-102145845D01*
X130655481Y-101914591D01*
X130157491Y-101581845D01*
X129570072Y-101465000D01*
X129509928Y-101465000D01*
X128922509Y-101581845D01*
X128491878Y-101869583D01*
X128438327Y-101740301D01*
X128259698Y-101561673D01*
X128026309Y-101465000D01*
X127285750Y-101465000D01*
X127127000Y-101623750D01*
X127127000Y-102873000D01*
X127147000Y-102873000D01*
X127147000Y-103127000D01*
X127127000Y-103127000D01*
X127127000Y-104376250D01*
X127285750Y-104535000D01*
X128026309Y-104535000D01*
X128259698Y-104438327D01*
X128438327Y-104259699D01*
X128491878Y-104130417D01*
X128922509Y-104418155D01*
X129509928Y-104535000D01*
X129570072Y-104535000D01*
X130157491Y-104418155D01*
X130655481Y-104085409D01*
X130810000Y-103854155D01*
X130964519Y-104085409D01*
X131462509Y-104418155D01*
X132049928Y-104535000D01*
X132110072Y-104535000D01*
X132575200Y-104442480D01*
X132575200Y-104883221D01*
X130743174Y-106715247D01*
X130156009Y-106714735D01*
X129630073Y-106932047D01*
X129509698Y-106811673D01*
X129276309Y-106715000D01*
X128535750Y-106715000D01*
X128377000Y-106873750D01*
X128377000Y-108123000D01*
X128397000Y-108123000D01*
X128397000Y-108377000D01*
X128377000Y-108377000D01*
X128377000Y-109626250D01*
X128535750Y-109785000D01*
X129276309Y-109785000D01*
X129509698Y-109688327D01*
X129630423Y-109567603D01*
X130153330Y-109784733D01*
X130763991Y-109785265D01*
X131328371Y-109552068D01*
X131505841Y-109374908D01*
X131561673Y-109509699D01*
X131740302Y-109688327D01*
X131973691Y-109785000D01*
X132714250Y-109785000D01*
X132873000Y-109626250D01*
X132873000Y-108377000D01*
X132853000Y-108377000D01*
X132853000Y-108123000D01*
X132873000Y-108123000D01*
X132873000Y-108103000D01*
X133127000Y-108103000D01*
X133127000Y-108123000D01*
X133147000Y-108123000D01*
X133147000Y-108377000D01*
X133127000Y-108377000D01*
X133127000Y-109626250D01*
X133285750Y-109785000D01*
X133468800Y-109785000D01*
X133468800Y-110772856D01*
X133014539Y-110604092D01*
X132364540Y-110628144D01*
X131875736Y-110830613D01*
X131777073Y-111097468D01*
X132750000Y-112070395D01*
X132764143Y-112056253D01*
X132943748Y-112235858D01*
X132929605Y-112250000D01*
X132943748Y-112264143D01*
X132764143Y-112443748D01*
X132750000Y-112429605D01*
X131777073Y-113402532D01*
X131875736Y-113669387D01*
X132485461Y-113895908D01*
X133135460Y-113871856D01*
X133468800Y-113733782D01*
X133468800Y-115278119D01*
X133076648Y-115115284D01*
X132426205Y-115114716D01*
X131825057Y-115363106D01*
X131364722Y-115822637D01*
X131115284Y-116423352D01*
X131114716Y-117073795D01*
X131363106Y-117674943D01*
X131822637Y-118135278D01*
X132423352Y-118384716D01*
X132993807Y-118385214D01*
X131574210Y-119804810D01*
X131382367Y-120091925D01*
X131377777Y-120115000D01*
X131314999Y-120430600D01*
X131315000Y-120430605D01*
X131315000Y-124729995D01*
X131314999Y-124730000D01*
X131367166Y-124992255D01*
X131382367Y-125068675D01*
X131546427Y-125314210D01*
X131574210Y-125355790D01*
X132075072Y-125856652D01*
X132074769Y-126204383D01*
X132277582Y-126695229D01*
X132652796Y-127071098D01*
X133143287Y-127274768D01*
X133674383Y-127275231D01*
X134165229Y-127072418D01*
X134541098Y-126697204D01*
X134744768Y-126206713D01*
X134745231Y-125675617D01*
X134542418Y-125184771D01*
X134167204Y-124808902D01*
X133848788Y-124676684D01*
X134103831Y-124571042D01*
X134165669Y-124335275D01*
X133410000Y-123579605D01*
X133395858Y-123593748D01*
X133216253Y-123414143D01*
X133230395Y-123400000D01*
X133589605Y-123400000D01*
X134345275Y-124155669D01*
X134581042Y-124093831D01*
X134757419Y-123592878D01*
X134728664Y-123062560D01*
X134581042Y-122706169D01*
X134345275Y-122644331D01*
X133589605Y-123400000D01*
X133230395Y-123400000D01*
X133216253Y-123385858D01*
X133395858Y-123206253D01*
X133410000Y-123220395D01*
X134165669Y-122464725D01*
X134103831Y-122228958D01*
X133827889Y-122131804D01*
X134165229Y-121992418D01*
X134541098Y-121617204D01*
X134744768Y-121126713D01*
X134745073Y-120776506D01*
X135952734Y-119568845D01*
X136197189Y-119934698D01*
X136601703Y-120204986D01*
X136384866Y-120307611D01*
X136008959Y-120722577D01*
X135848096Y-121110961D01*
X135970085Y-121333000D01*
X137113000Y-121333000D01*
X137113000Y-121313000D01*
X137367000Y-121313000D01*
X137367000Y-121333000D01*
X138509915Y-121333000D01*
X138631904Y-121110961D01*
X138471041Y-120722577D01*
X138095134Y-120307611D01*
X137878297Y-120204986D01*
X138282811Y-119934698D01*
X138593880Y-119469151D01*
X138703113Y-118920000D01*
X138593880Y-118370849D01*
X138282811Y-117905302D01*
X137900725Y-117650000D01*
X138282811Y-117394698D01*
X138593880Y-116929151D01*
X138703113Y-116380000D01*
X138593880Y-115830849D01*
X138282811Y-115365302D01*
X137900725Y-115110000D01*
X138282811Y-114854698D01*
X138356600Y-114744265D01*
X138356600Y-114873695D01*
X138356599Y-114873700D01*
X138401526Y-115099557D01*
X138423967Y-115212375D01*
X138597508Y-115472099D01*
X138615810Y-115499490D01*
X141553020Y-118436699D01*
X141552758Y-118736661D01*
X141649757Y-118971418D01*
X141388310Y-119146110D01*
X141388308Y-119146113D01*
X138565813Y-121968607D01*
X138631904Y-121809039D01*
X138509915Y-121587000D01*
X137367000Y-121587000D01*
X137367000Y-121607000D01*
X137113000Y-121607000D01*
X137113000Y-121587000D01*
X135970085Y-121587000D01*
X135848096Y-121809039D01*
X136008959Y-122197423D01*
X136384866Y-122612389D01*
X136601703Y-122715014D01*
X136197189Y-122985302D01*
X135886120Y-123450849D01*
X135776887Y-124000000D01*
X135886120Y-124549151D01*
X136197189Y-125014698D01*
X136480283Y-125203856D01*
X136377285Y-125246414D01*
X135947921Y-125675029D01*
X135715265Y-126235328D01*
X135714735Y-126842011D01*
X135946414Y-127402715D01*
X136375029Y-127832079D01*
X136935328Y-128064735D01*
X137542011Y-128065265D01*
X138102715Y-127833586D01*
X138532079Y-127404971D01*
X138764735Y-126844672D01*
X138765265Y-126237989D01*
X138533586Y-125677285D01*
X138104971Y-125247921D01*
X137999385Y-125204078D01*
X138282811Y-125014698D01*
X138290945Y-125002525D01*
X138815000Y-125526579D01*
X138815000Y-126000000D01*
X138882367Y-126338675D01*
X139074210Y-126625790D01*
X139361325Y-126817633D01*
X139563443Y-126857837D01*
X139596838Y-127035317D01*
X139735910Y-127251441D01*
X139948110Y-127396431D01*
X140200000Y-127447440D01*
X141800000Y-127447440D01*
X142035317Y-127403162D01*
X142251441Y-127264090D01*
X142396431Y-127051890D01*
X142405370Y-127007745D01*
X142671861Y-127007745D01*
X142745995Y-127253864D01*
X143283223Y-127446965D01*
X143853454Y-127419778D01*
X144254005Y-127253864D01*
X144328139Y-127007745D01*
X143500000Y-126179605D01*
X142671861Y-127007745D01*
X142405370Y-127007745D01*
X142444646Y-126813799D01*
X142492255Y-126828139D01*
X143320395Y-126000000D01*
X143679605Y-126000000D01*
X144507745Y-126828139D01*
X144753864Y-126754005D01*
X144946965Y-126216777D01*
X144919778Y-125646546D01*
X144753864Y-125245995D01*
X144507745Y-125171861D01*
X143679605Y-126000000D01*
X143320395Y-126000000D01*
X142492255Y-125171861D01*
X142444833Y-125186145D01*
X142408351Y-124992255D01*
X142671861Y-124992255D01*
X143500000Y-125820395D01*
X144328139Y-124992255D01*
X144254005Y-124746136D01*
X143716777Y-124553035D01*
X143146546Y-124580222D01*
X142745995Y-124746136D01*
X142671861Y-124992255D01*
X142408351Y-124992255D01*
X142403162Y-124964683D01*
X142264090Y-124748559D01*
X142051890Y-124603569D01*
X141800000Y-124552560D01*
X140338051Y-124552560D01*
X140325790Y-124534210D01*
X140325787Y-124534208D01*
X139425000Y-123633420D01*
X139425000Y-123612580D01*
X141553000Y-121484579D01*
X141553000Y-121888310D01*
X141649673Y-122121699D01*
X141828302Y-122300327D01*
X142061691Y-122397000D01*
X142664250Y-122397000D01*
X142823000Y-122238250D01*
X142823000Y-121127000D01*
X142803000Y-121127000D01*
X142803000Y-120873000D01*
X142823000Y-120873000D01*
X142823000Y-120853000D01*
X143077000Y-120853000D01*
X143077000Y-120873000D01*
X143097000Y-120873000D01*
X143097000Y-121127000D01*
X143077000Y-121127000D01*
X143077000Y-122238250D01*
X143235750Y-122397000D01*
X143838309Y-122397000D01*
X144071698Y-122300327D01*
X144250327Y-122121699D01*
X144347000Y-121888310D01*
X144347000Y-121832386D01*
X144605000Y-122090837D01*
X144605000Y-123189995D01*
X144604999Y-123190000D01*
X144644171Y-123386924D01*
X144672367Y-123528675D01*
X144863682Y-123815000D01*
X144864210Y-123815790D01*
X145770325Y-124721904D01*
X145748559Y-124735910D01*
X145603569Y-124948110D01*
X145552560Y-125200000D01*
X145552560Y-126800000D01*
X145596838Y-127035317D01*
X145735910Y-127251441D01*
X145948110Y-127396431D01*
X146200000Y-127447440D01*
X147800000Y-127447440D01*
X148035317Y-127403162D01*
X148251441Y-127264090D01*
X148396431Y-127051890D01*
X148405370Y-127007745D01*
X148671861Y-127007745D01*
X148745995Y-127253864D01*
X149283223Y-127446965D01*
X149853454Y-127419778D01*
X150254005Y-127253864D01*
X150328139Y-127007745D01*
X149500000Y-126179605D01*
X148671861Y-127007745D01*
X148405370Y-127007745D01*
X148444646Y-126813799D01*
X148492255Y-126828139D01*
X149320395Y-126000000D01*
X149679605Y-126000000D01*
X150507745Y-126828139D01*
X150753864Y-126754005D01*
X150946965Y-126216777D01*
X150919778Y-125646546D01*
X150753864Y-125245995D01*
X150507745Y-125171861D01*
X149679605Y-126000000D01*
X149320395Y-126000000D01*
X148492255Y-125171861D01*
X148444833Y-125186145D01*
X148408351Y-124992255D01*
X148671861Y-124992255D01*
X149500000Y-125820395D01*
X150160394Y-125160000D01*
X153485907Y-125160000D01*
X153598946Y-125728285D01*
X153920853Y-126210054D01*
X154402622Y-126531961D01*
X154970907Y-126645000D01*
X155029093Y-126645000D01*
X155597378Y-126531961D01*
X156079147Y-126210054D01*
X156401054Y-125728285D01*
X156514093Y-125160000D01*
X156401054Y-124591715D01*
X156079147Y-124109946D01*
X155738447Y-123882298D01*
X155881358Y-123815183D01*
X156271645Y-123386924D01*
X156441476Y-122976890D01*
X156320155Y-122747000D01*
X155127000Y-122747000D01*
X155127000Y-122767000D01*
X154873000Y-122767000D01*
X154873000Y-122747000D01*
X153679845Y-122747000D01*
X153558524Y-122976890D01*
X153728355Y-123386924D01*
X154118642Y-123815183D01*
X154261553Y-123882298D01*
X153920853Y-124109946D01*
X153598946Y-124591715D01*
X153485907Y-125160000D01*
X150160394Y-125160000D01*
X150328139Y-124992255D01*
X150254005Y-124746136D01*
X149716777Y-124553035D01*
X149146546Y-124580222D01*
X148745995Y-124746136D01*
X148671861Y-124992255D01*
X148408351Y-124992255D01*
X148403162Y-124964683D01*
X148264090Y-124748559D01*
X148051890Y-124603569D01*
X147858009Y-124564307D01*
X147817633Y-124361325D01*
X147625790Y-124074210D01*
X147625787Y-124074208D01*
X146375000Y-122823420D01*
X146375000Y-122090478D01*
X146673629Y-121792370D01*
X146759949Y-121584488D01*
X146844990Y-121790303D01*
X147237630Y-122183629D01*
X147750900Y-122396757D01*
X148306661Y-122397242D01*
X148820303Y-122185010D01*
X149213629Y-121792370D01*
X149299949Y-121584488D01*
X149384990Y-121790303D01*
X149777630Y-122183629D01*
X150290900Y-122396757D01*
X150846661Y-122397242D01*
X151360303Y-122185010D01*
X151753629Y-121792370D01*
X151966757Y-121279100D01*
X151967242Y-120723339D01*
X151755010Y-120209697D01*
X151362370Y-119816371D01*
X151154488Y-119730051D01*
X151360303Y-119645010D01*
X151753629Y-119252370D01*
X151966757Y-118739100D01*
X151967242Y-118183339D01*
X151755010Y-117669697D01*
X151362370Y-117276371D01*
X151270045Y-117238034D01*
X153502560Y-115005519D01*
X153502560Y-115850000D01*
X153546838Y-116085317D01*
X153685910Y-116301441D01*
X153898110Y-116446431D01*
X153965541Y-116460086D01*
X153920853Y-116489946D01*
X153598946Y-116971715D01*
X153485907Y-117540000D01*
X153598946Y-118108285D01*
X153920853Y-118590054D01*
X154250026Y-118810000D01*
X153920853Y-119029946D01*
X153598946Y-119511715D01*
X153485907Y-120080000D01*
X153598946Y-120648285D01*
X153920853Y-121130054D01*
X154261553Y-121357702D01*
X154118642Y-121424817D01*
X153728355Y-121853076D01*
X153558524Y-122263110D01*
X153679845Y-122493000D01*
X154873000Y-122493000D01*
X154873000Y-122473000D01*
X155127000Y-122473000D01*
X155127000Y-122493000D01*
X156320155Y-122493000D01*
X156441476Y-122263110D01*
X156271645Y-121853076D01*
X155881358Y-121424817D01*
X155738447Y-121357702D01*
X156079147Y-121130054D01*
X156401054Y-120648285D01*
X156514093Y-120080000D01*
X156401054Y-119511715D01*
X156079147Y-119029946D01*
X155749974Y-118810000D01*
X156079147Y-118590054D01*
X156401054Y-118108285D01*
X156514093Y-117540000D01*
X156401054Y-116971715D01*
X156079147Y-116489946D01*
X156037548Y-116462150D01*
X156085317Y-116453162D01*
X156301441Y-116314090D01*
X156446431Y-116101890D01*
X156497440Y-115850000D01*
X156497440Y-114150000D01*
X156453162Y-113914683D01*
X156314090Y-113698559D01*
X156101890Y-113553569D01*
X155850000Y-113502560D01*
X154796322Y-113502560D01*
X154835401Y-113306100D01*
X154835400Y-113306095D01*
X154835400Y-111652259D01*
X155000000Y-111685000D01*
X157315000Y-111685000D01*
X157315000Y-128315000D01*
X117685000Y-128315000D01*
X117685000Y-111685000D01*
X119825400Y-111685000D01*
X119825400Y-122000895D01*
X119825399Y-122000900D01*
X119861747Y-122183629D01*
X119892767Y-122339575D01*
X120043390Y-122565000D01*
X120084610Y-122626690D01*
X120570303Y-123112382D01*
X120552560Y-123200000D01*
X120552560Y-124800000D01*
X120596838Y-125035317D01*
X120735910Y-125251441D01*
X120948110Y-125396431D01*
X120980446Y-125402979D01*
X120707921Y-125675029D01*
X120475265Y-126235328D01*
X120474735Y-126842011D01*
X120706414Y-127402715D01*
X121135029Y-127832079D01*
X121695328Y-128064735D01*
X122302011Y-128065265D01*
X122862715Y-127833586D01*
X123292079Y-127404971D01*
X123524735Y-126844672D01*
X123525265Y-126237989D01*
X123293586Y-125677285D01*
X123022373Y-125405598D01*
X123035317Y-125403162D01*
X123251441Y-125264090D01*
X123396431Y-125051890D01*
X123447440Y-124800000D01*
X123447440Y-124428520D01*
X124524762Y-125505841D01*
X124455232Y-125673287D01*
X124454769Y-126204383D01*
X124657582Y-126695229D01*
X125032796Y-127071098D01*
X125523287Y-127274768D01*
X126054383Y-127275231D01*
X126545229Y-127072418D01*
X126921098Y-126697204D01*
X127124768Y-126206713D01*
X127125231Y-125675617D01*
X126922418Y-125184771D01*
X126547204Y-124808902D01*
X126228788Y-124676684D01*
X126483831Y-124571042D01*
X126545669Y-124335275D01*
X125790000Y-123579605D01*
X125775858Y-123593748D01*
X125596253Y-123414143D01*
X125610395Y-123400000D01*
X125969605Y-123400000D01*
X126725275Y-124155669D01*
X126961042Y-124093831D01*
X127137419Y-123592878D01*
X127108664Y-123062560D01*
X126961042Y-122706169D01*
X126725275Y-122644331D01*
X125969605Y-123400000D01*
X125610395Y-123400000D01*
X124854725Y-122644331D01*
X124618958Y-122706169D01*
X124517217Y-122995137D01*
X123645890Y-122123810D01*
X123582323Y-122081336D01*
X123368006Y-121938135D01*
X123463113Y-121460000D01*
X123353880Y-120910849D01*
X123042811Y-120445302D01*
X122660725Y-120190000D01*
X123042811Y-119934698D01*
X123353880Y-119469151D01*
X123463113Y-118920000D01*
X123353880Y-118370849D01*
X123042811Y-117905302D01*
X122638297Y-117635014D01*
X122855134Y-117532389D01*
X123006792Y-117364972D01*
X124905000Y-119263179D01*
X124905000Y-119857127D01*
X124658902Y-120102796D01*
X124455232Y-120593287D01*
X124454769Y-121124383D01*
X124657582Y-121615229D01*
X125032796Y-121991098D01*
X125351212Y-122123316D01*
X125096169Y-122228958D01*
X125034331Y-122464725D01*
X125790000Y-123220395D01*
X126545669Y-122464725D01*
X126483831Y-122228958D01*
X126207889Y-122131804D01*
X126545229Y-121992418D01*
X126921098Y-121617204D01*
X127124768Y-121126713D01*
X127125231Y-120595617D01*
X126922418Y-120104771D01*
X126675000Y-119856921D01*
X126675000Y-118896600D01*
X126607633Y-118557925D01*
X126492231Y-118385213D01*
X126573795Y-118385284D01*
X127174943Y-118136894D01*
X127635278Y-117677363D01*
X127884716Y-117076648D01*
X127885284Y-116426205D01*
X127636894Y-115825057D01*
X127177363Y-115364722D01*
X126576648Y-115115284D01*
X125926205Y-115114716D01*
X125883812Y-115132232D01*
X125664200Y-114912620D01*
X125664200Y-113776555D01*
X125985461Y-113895908D01*
X126635460Y-113871856D01*
X127124264Y-113669387D01*
X127222927Y-113402532D01*
X126250000Y-112429605D01*
X126235858Y-112443748D01*
X126056253Y-112264143D01*
X126070395Y-112250000D01*
X126429605Y-112250000D01*
X127402532Y-113222927D01*
X127669387Y-113124264D01*
X127895908Y-112514539D01*
X127876331Y-111985461D01*
X131104092Y-111985461D01*
X131128144Y-112635460D01*
X131330613Y-113124264D01*
X131597468Y-113222927D01*
X132570395Y-112250000D01*
X131597468Y-111277073D01*
X131330613Y-111375736D01*
X131104092Y-111985461D01*
X127876331Y-111985461D01*
X127871856Y-111864540D01*
X127669387Y-111375736D01*
X127402532Y-111277073D01*
X126429605Y-112250000D01*
X126070395Y-112250000D01*
X126056253Y-112235858D01*
X126235858Y-112056253D01*
X126250000Y-112070395D01*
X127222927Y-111097468D01*
X127124264Y-110830613D01*
X126514539Y-110604092D01*
X125864540Y-110628144D01*
X125664200Y-110711127D01*
X125664200Y-109784960D01*
X126013991Y-109785265D01*
X126578371Y-109552068D01*
X126755841Y-109374908D01*
X126811673Y-109509699D01*
X126990302Y-109688327D01*
X127223691Y-109785000D01*
X127964250Y-109785000D01*
X128123000Y-109626250D01*
X128123000Y-108377000D01*
X128103000Y-108377000D01*
X128103000Y-108123000D01*
X128123000Y-108123000D01*
X128123000Y-106873750D01*
X127964250Y-106715000D01*
X127223691Y-106715000D01*
X126990302Y-106811673D01*
X126811673Y-106990301D01*
X126755881Y-107124994D01*
X126580643Y-106949449D01*
X126485100Y-106909776D01*
X126485100Y-104535000D01*
X126714250Y-104535000D01*
X126873000Y-104376250D01*
X126873000Y-103127000D01*
X126853000Y-103127000D01*
X126853000Y-102873000D01*
X126873000Y-102873000D01*
X126873000Y-101623750D01*
X126714250Y-101465000D01*
X126485100Y-101465000D01*
X126485100Y-98814080D01*
X132346800Y-92952379D01*
X132346800Y-101512088D01*
X132346800Y-101512088D01*
G37*
X132346800Y-101512088D02*
X132110072Y-101465000D01*
X132049928Y-101465000D01*
X131462509Y-101581845D01*
X130964519Y-101914591D01*
X130810000Y-102145845D01*
X130655481Y-101914591D01*
X130157491Y-101581845D01*
X129570072Y-101465000D01*
X129509928Y-101465000D01*
X128922509Y-101581845D01*
X128491878Y-101869583D01*
X128438327Y-101740301D01*
X128259698Y-101561673D01*
X128026309Y-101465000D01*
X127285750Y-101465000D01*
X127127000Y-101623750D01*
X127127000Y-102873000D01*
X127147000Y-102873000D01*
X127147000Y-103127000D01*
X127127000Y-103127000D01*
X127127000Y-104376250D01*
X127285750Y-104535000D01*
X128026309Y-104535000D01*
X128259698Y-104438327D01*
X128438327Y-104259699D01*
X128491878Y-104130417D01*
X128922509Y-104418155D01*
X129509928Y-104535000D01*
X129570072Y-104535000D01*
X130157491Y-104418155D01*
X130655481Y-104085409D01*
X130810000Y-103854155D01*
X130964519Y-104085409D01*
X131462509Y-104418155D01*
X132049928Y-104535000D01*
X132110072Y-104535000D01*
X132575200Y-104442480D01*
X132575200Y-104883221D01*
X130743174Y-106715247D01*
X130156009Y-106714735D01*
X129630073Y-106932047D01*
X129509698Y-106811673D01*
X129276309Y-106715000D01*
X128535750Y-106715000D01*
X128377000Y-106873750D01*
X128377000Y-108123000D01*
X128397000Y-108123000D01*
X128397000Y-108377000D01*
X128377000Y-108377000D01*
X128377000Y-109626250D01*
X128535750Y-109785000D01*
X129276309Y-109785000D01*
X129509698Y-109688327D01*
X129630423Y-109567603D01*
X130153330Y-109784733D01*
X130763991Y-109785265D01*
X131328371Y-109552068D01*
X131505841Y-109374908D01*
X131561673Y-109509699D01*
X131740302Y-109688327D01*
X131973691Y-109785000D01*
X132714250Y-109785000D01*
X132873000Y-109626250D01*
X132873000Y-108377000D01*
X132853000Y-108377000D01*
X132853000Y-108123000D01*
X132873000Y-108123000D01*
X132873000Y-108103000D01*
X133127000Y-108103000D01*
X133127000Y-108123000D01*
X133147000Y-108123000D01*
X133147000Y-108377000D01*
X133127000Y-108377000D01*
X133127000Y-109626250D01*
X133285750Y-109785000D01*
X133468800Y-109785000D01*
X133468800Y-110772856D01*
X133014539Y-110604092D01*
X132364540Y-110628144D01*
X131875736Y-110830613D01*
X131777073Y-111097468D01*
X132750000Y-112070395D01*
X132764143Y-112056253D01*
X132943748Y-112235858D01*
X132929605Y-112250000D01*
X132943748Y-112264143D01*
X132764143Y-112443748D01*
X132750000Y-112429605D01*
X131777073Y-113402532D01*
X131875736Y-113669387D01*
X132485461Y-113895908D01*
X133135460Y-113871856D01*
X133468800Y-113733782D01*
X133468800Y-115278119D01*
X133076648Y-115115284D01*
X132426205Y-115114716D01*
X131825057Y-115363106D01*
X131364722Y-115822637D01*
X131115284Y-116423352D01*
X131114716Y-117073795D01*
X131363106Y-117674943D01*
X131822637Y-118135278D01*
X132423352Y-118384716D01*
X132993807Y-118385214D01*
X131574210Y-119804810D01*
X131382367Y-120091925D01*
X131377777Y-120115000D01*
X131314999Y-120430600D01*
X131315000Y-120430605D01*
X131315000Y-124729995D01*
X131314999Y-124730000D01*
X131367166Y-124992255D01*
X131382367Y-125068675D01*
X131546427Y-125314210D01*
X131574210Y-125355790D01*
X132075072Y-125856652D01*
X132074769Y-126204383D01*
X132277582Y-126695229D01*
X132652796Y-127071098D01*
X133143287Y-127274768D01*
X133674383Y-127275231D01*
X134165229Y-127072418D01*
X134541098Y-126697204D01*
X134744768Y-126206713D01*
X134745231Y-125675617D01*
X134542418Y-125184771D01*
X134167204Y-124808902D01*
X133848788Y-124676684D01*
X134103831Y-124571042D01*
X134165669Y-124335275D01*
X133410000Y-123579605D01*
X133395858Y-123593748D01*
X133216253Y-123414143D01*
X133230395Y-123400000D01*
X133589605Y-123400000D01*
X134345275Y-124155669D01*
X134581042Y-124093831D01*
X134757419Y-123592878D01*
X134728664Y-123062560D01*
X134581042Y-122706169D01*
X134345275Y-122644331D01*
X133589605Y-123400000D01*
X133230395Y-123400000D01*
X133216253Y-123385858D01*
X133395858Y-123206253D01*
X133410000Y-123220395D01*
X134165669Y-122464725D01*
X134103831Y-122228958D01*
X133827889Y-122131804D01*
X134165229Y-121992418D01*
X134541098Y-121617204D01*
X134744768Y-121126713D01*
X134745073Y-120776506D01*
X135952734Y-119568845D01*
X136197189Y-119934698D01*
X136601703Y-120204986D01*
X136384866Y-120307611D01*
X136008959Y-120722577D01*
X135848096Y-121110961D01*
X135970085Y-121333000D01*
X137113000Y-121333000D01*
X137113000Y-121313000D01*
X137367000Y-121313000D01*
X137367000Y-121333000D01*
X138509915Y-121333000D01*
X138631904Y-121110961D01*
X138471041Y-120722577D01*
X138095134Y-120307611D01*
X137878297Y-120204986D01*
X138282811Y-119934698D01*
X138593880Y-119469151D01*
X138703113Y-118920000D01*
X138593880Y-118370849D01*
X138282811Y-117905302D01*
X137900725Y-117650000D01*
X138282811Y-117394698D01*
X138593880Y-116929151D01*
X138703113Y-116380000D01*
X138593880Y-115830849D01*
X138282811Y-115365302D01*
X137900725Y-115110000D01*
X138282811Y-114854698D01*
X138356600Y-114744265D01*
X138356600Y-114873695D01*
X138356599Y-114873700D01*
X138401526Y-115099557D01*
X138423967Y-115212375D01*
X138597508Y-115472099D01*
X138615810Y-115499490D01*
X141553020Y-118436699D01*
X141552758Y-118736661D01*
X141649757Y-118971418D01*
X141388310Y-119146110D01*
X141388308Y-119146113D01*
X138565813Y-121968607D01*
X138631904Y-121809039D01*
X138509915Y-121587000D01*
X137367000Y-121587000D01*
X137367000Y-121607000D01*
X137113000Y-121607000D01*
X137113000Y-121587000D01*
X135970085Y-121587000D01*
X135848096Y-121809039D01*
X136008959Y-122197423D01*
X136384866Y-122612389D01*
X136601703Y-122715014D01*
X136197189Y-122985302D01*
X135886120Y-123450849D01*
X135776887Y-124000000D01*
X135886120Y-124549151D01*
X136197189Y-125014698D01*
X136480283Y-125203856D01*
X136377285Y-125246414D01*
X135947921Y-125675029D01*
X135715265Y-126235328D01*
X135714735Y-126842011D01*
X135946414Y-127402715D01*
X136375029Y-127832079D01*
X136935328Y-128064735D01*
X137542011Y-128065265D01*
X138102715Y-127833586D01*
X138532079Y-127404971D01*
X138764735Y-126844672D01*
X138765265Y-126237989D01*
X138533586Y-125677285D01*
X138104971Y-125247921D01*
X137999385Y-125204078D01*
X138282811Y-125014698D01*
X138290945Y-125002525D01*
X138815000Y-125526579D01*
X138815000Y-126000000D01*
X138882367Y-126338675D01*
X139074210Y-126625790D01*
X139361325Y-126817633D01*
X139563443Y-126857837D01*
X139596838Y-127035317D01*
X139735910Y-127251441D01*
X139948110Y-127396431D01*
X140200000Y-127447440D01*
X141800000Y-127447440D01*
X142035317Y-127403162D01*
X142251441Y-127264090D01*
X142396431Y-127051890D01*
X142405370Y-127007745D01*
X142671861Y-127007745D01*
X142745995Y-127253864D01*
X143283223Y-127446965D01*
X143853454Y-127419778D01*
X144254005Y-127253864D01*
X144328139Y-127007745D01*
X143500000Y-126179605D01*
X142671861Y-127007745D01*
X142405370Y-127007745D01*
X142444646Y-126813799D01*
X142492255Y-126828139D01*
X143320395Y-126000000D01*
X143679605Y-126000000D01*
X144507745Y-126828139D01*
X144753864Y-126754005D01*
X144946965Y-126216777D01*
X144919778Y-125646546D01*
X144753864Y-125245995D01*
X144507745Y-125171861D01*
X143679605Y-126000000D01*
X143320395Y-126000000D01*
X142492255Y-125171861D01*
X142444833Y-125186145D01*
X142408351Y-124992255D01*
X142671861Y-124992255D01*
X143500000Y-125820395D01*
X144328139Y-124992255D01*
X144254005Y-124746136D01*
X143716777Y-124553035D01*
X143146546Y-124580222D01*
X142745995Y-124746136D01*
X142671861Y-124992255D01*
X142408351Y-124992255D01*
X142403162Y-124964683D01*
X142264090Y-124748559D01*
X142051890Y-124603569D01*
X141800000Y-124552560D01*
X140338051Y-124552560D01*
X140325790Y-124534210D01*
X140325787Y-124534208D01*
X139425000Y-123633420D01*
X139425000Y-123612580D01*
X141553000Y-121484579D01*
X141553000Y-121888310D01*
X141649673Y-122121699D01*
X141828302Y-122300327D01*
X142061691Y-122397000D01*
X142664250Y-122397000D01*
X142823000Y-122238250D01*
X142823000Y-121127000D01*
X142803000Y-121127000D01*
X142803000Y-120873000D01*
X142823000Y-120873000D01*
X142823000Y-120853000D01*
X143077000Y-120853000D01*
X143077000Y-120873000D01*
X143097000Y-120873000D01*
X143097000Y-121127000D01*
X143077000Y-121127000D01*
X143077000Y-122238250D01*
X143235750Y-122397000D01*
X143838309Y-122397000D01*
X144071698Y-122300327D01*
X144250327Y-122121699D01*
X144347000Y-121888310D01*
X144347000Y-121832386D01*
X144605000Y-122090837D01*
X144605000Y-123189995D01*
X144604999Y-123190000D01*
X144644171Y-123386924D01*
X144672367Y-123528675D01*
X144863682Y-123815000D01*
X144864210Y-123815790D01*
X145770325Y-124721904D01*
X145748559Y-124735910D01*
X145603569Y-124948110D01*
X145552560Y-125200000D01*
X145552560Y-126800000D01*
X145596838Y-127035317D01*
X145735910Y-127251441D01*
X145948110Y-127396431D01*
X146200000Y-127447440D01*
X147800000Y-127447440D01*
X148035317Y-127403162D01*
X148251441Y-127264090D01*
X148396431Y-127051890D01*
X148405370Y-127007745D01*
X148671861Y-127007745D01*
X148745995Y-127253864D01*
X149283223Y-127446965D01*
X149853454Y-127419778D01*
X150254005Y-127253864D01*
X150328139Y-127007745D01*
X149500000Y-126179605D01*
X148671861Y-127007745D01*
X148405370Y-127007745D01*
X148444646Y-126813799D01*
X148492255Y-126828139D01*
X149320395Y-126000000D01*
X149679605Y-126000000D01*
X150507745Y-126828139D01*
X150753864Y-126754005D01*
X150946965Y-126216777D01*
X150919778Y-125646546D01*
X150753864Y-125245995D01*
X150507745Y-125171861D01*
X149679605Y-126000000D01*
X149320395Y-126000000D01*
X148492255Y-125171861D01*
X148444833Y-125186145D01*
X148408351Y-124992255D01*
X148671861Y-124992255D01*
X149500000Y-125820395D01*
X150160394Y-125160000D01*
X153485907Y-125160000D01*
X153598946Y-125728285D01*
X153920853Y-126210054D01*
X154402622Y-126531961D01*
X154970907Y-126645000D01*
X155029093Y-126645000D01*
X155597378Y-126531961D01*
X156079147Y-126210054D01*
X156401054Y-125728285D01*
X156514093Y-125160000D01*
X156401054Y-124591715D01*
X156079147Y-124109946D01*
X155738447Y-123882298D01*
X155881358Y-123815183D01*
X156271645Y-123386924D01*
X156441476Y-122976890D01*
X156320155Y-122747000D01*
X155127000Y-122747000D01*
X155127000Y-122767000D01*
X154873000Y-122767000D01*
X154873000Y-122747000D01*
X153679845Y-122747000D01*
X153558524Y-122976890D01*
X153728355Y-123386924D01*
X154118642Y-123815183D01*
X154261553Y-123882298D01*
X153920853Y-124109946D01*
X153598946Y-124591715D01*
X153485907Y-125160000D01*
X150160394Y-125160000D01*
X150328139Y-124992255D01*
X150254005Y-124746136D01*
X149716777Y-124553035D01*
X149146546Y-124580222D01*
X148745995Y-124746136D01*
X148671861Y-124992255D01*
X148408351Y-124992255D01*
X148403162Y-124964683D01*
X148264090Y-124748559D01*
X148051890Y-124603569D01*
X147858009Y-124564307D01*
X147817633Y-124361325D01*
X147625790Y-124074210D01*
X147625787Y-124074208D01*
X146375000Y-122823420D01*
X146375000Y-122090478D01*
X146673629Y-121792370D01*
X146759949Y-121584488D01*
X146844990Y-121790303D01*
X147237630Y-122183629D01*
X147750900Y-122396757D01*
X148306661Y-122397242D01*
X148820303Y-122185010D01*
X149213629Y-121792370D01*
X149299949Y-121584488D01*
X149384990Y-121790303D01*
X149777630Y-122183629D01*
X150290900Y-122396757D01*
X150846661Y-122397242D01*
X151360303Y-122185010D01*
X151753629Y-121792370D01*
X151966757Y-121279100D01*
X151967242Y-120723339D01*
X151755010Y-120209697D01*
X151362370Y-119816371D01*
X151154488Y-119730051D01*
X151360303Y-119645010D01*
X151753629Y-119252370D01*
X151966757Y-118739100D01*
X151967242Y-118183339D01*
X151755010Y-117669697D01*
X151362370Y-117276371D01*
X151270045Y-117238034D01*
X153502560Y-115005519D01*
X153502560Y-115850000D01*
X153546838Y-116085317D01*
X153685910Y-116301441D01*
X153898110Y-116446431D01*
X153965541Y-116460086D01*
X153920853Y-116489946D01*
X153598946Y-116971715D01*
X153485907Y-117540000D01*
X153598946Y-118108285D01*
X153920853Y-118590054D01*
X154250026Y-118810000D01*
X153920853Y-119029946D01*
X153598946Y-119511715D01*
X153485907Y-120080000D01*
X153598946Y-120648285D01*
X153920853Y-121130054D01*
X154261553Y-121357702D01*
X154118642Y-121424817D01*
X153728355Y-121853076D01*
X153558524Y-122263110D01*
X153679845Y-122493000D01*
X154873000Y-122493000D01*
X154873000Y-122473000D01*
X155127000Y-122473000D01*
X155127000Y-122493000D01*
X156320155Y-122493000D01*
X156441476Y-122263110D01*
X156271645Y-121853076D01*
X155881358Y-121424817D01*
X155738447Y-121357702D01*
X156079147Y-121130054D01*
X156401054Y-120648285D01*
X156514093Y-120080000D01*
X156401054Y-119511715D01*
X156079147Y-119029946D01*
X155749974Y-118810000D01*
X156079147Y-118590054D01*
X156401054Y-118108285D01*
X156514093Y-117540000D01*
X156401054Y-116971715D01*
X156079147Y-116489946D01*
X156037548Y-116462150D01*
X156085317Y-116453162D01*
X156301441Y-116314090D01*
X156446431Y-116101890D01*
X156497440Y-115850000D01*
X156497440Y-114150000D01*
X156453162Y-113914683D01*
X156314090Y-113698559D01*
X156101890Y-113553569D01*
X155850000Y-113502560D01*
X154796322Y-113502560D01*
X154835401Y-113306100D01*
X154835400Y-113306095D01*
X154835400Y-111652259D01*
X155000000Y-111685000D01*
X157315000Y-111685000D01*
X157315000Y-128315000D01*
X117685000Y-128315000D01*
X117685000Y-111685000D01*
X119825400Y-111685000D01*
X119825400Y-122000895D01*
X119825399Y-122000900D01*
X119861747Y-122183629D01*
X119892767Y-122339575D01*
X120043390Y-122565000D01*
X120084610Y-122626690D01*
X120570303Y-123112382D01*
X120552560Y-123200000D01*
X120552560Y-124800000D01*
X120596838Y-125035317D01*
X120735910Y-125251441D01*
X120948110Y-125396431D01*
X120980446Y-125402979D01*
X120707921Y-125675029D01*
X120475265Y-126235328D01*
X120474735Y-126842011D01*
X120706414Y-127402715D01*
X121135029Y-127832079D01*
X121695328Y-128064735D01*
X122302011Y-128065265D01*
X122862715Y-127833586D01*
X123292079Y-127404971D01*
X123524735Y-126844672D01*
X123525265Y-126237989D01*
X123293586Y-125677285D01*
X123022373Y-125405598D01*
X123035317Y-125403162D01*
X123251441Y-125264090D01*
X123396431Y-125051890D01*
X123447440Y-124800000D01*
X123447440Y-124428520D01*
X124524762Y-125505841D01*
X124455232Y-125673287D01*
X124454769Y-126204383D01*
X124657582Y-126695229D01*
X125032796Y-127071098D01*
X125523287Y-127274768D01*
X126054383Y-127275231D01*
X126545229Y-127072418D01*
X126921098Y-126697204D01*
X127124768Y-126206713D01*
X127125231Y-125675617D01*
X126922418Y-125184771D01*
X126547204Y-124808902D01*
X126228788Y-124676684D01*
X126483831Y-124571042D01*
X126545669Y-124335275D01*
X125790000Y-123579605D01*
X125775858Y-123593748D01*
X125596253Y-123414143D01*
X125610395Y-123400000D01*
X125969605Y-123400000D01*
X126725275Y-124155669D01*
X126961042Y-124093831D01*
X127137419Y-123592878D01*
X127108664Y-123062560D01*
X126961042Y-122706169D01*
X126725275Y-122644331D01*
X125969605Y-123400000D01*
X125610395Y-123400000D01*
X124854725Y-122644331D01*
X124618958Y-122706169D01*
X124517217Y-122995137D01*
X123645890Y-122123810D01*
X123582323Y-122081336D01*
X123368006Y-121938135D01*
X123463113Y-121460000D01*
X123353880Y-120910849D01*
X123042811Y-120445302D01*
X122660725Y-120190000D01*
X123042811Y-119934698D01*
X123353880Y-119469151D01*
X123463113Y-118920000D01*
X123353880Y-118370849D01*
X123042811Y-117905302D01*
X122638297Y-117635014D01*
X122855134Y-117532389D01*
X123006792Y-117364972D01*
X124905000Y-119263179D01*
X124905000Y-119857127D01*
X124658902Y-120102796D01*
X124455232Y-120593287D01*
X124454769Y-121124383D01*
X124657582Y-121615229D01*
X125032796Y-121991098D01*
X125351212Y-122123316D01*
X125096169Y-122228958D01*
X125034331Y-122464725D01*
X125790000Y-123220395D01*
X126545669Y-122464725D01*
X126483831Y-122228958D01*
X126207889Y-122131804D01*
X126545229Y-121992418D01*
X126921098Y-121617204D01*
X127124768Y-121126713D01*
X127125231Y-120595617D01*
X126922418Y-120104771D01*
X126675000Y-119856921D01*
X126675000Y-118896600D01*
X126607633Y-118557925D01*
X126492231Y-118385213D01*
X126573795Y-118385284D01*
X127174943Y-118136894D01*
X127635278Y-117677363D01*
X127884716Y-117076648D01*
X127885284Y-116426205D01*
X127636894Y-115825057D01*
X127177363Y-115364722D01*
X126576648Y-115115284D01*
X125926205Y-115114716D01*
X125883812Y-115132232D01*
X125664200Y-114912620D01*
X125664200Y-113776555D01*
X125985461Y-113895908D01*
X126635460Y-113871856D01*
X127124264Y-113669387D01*
X127222927Y-113402532D01*
X126250000Y-112429605D01*
X126235858Y-112443748D01*
X126056253Y-112264143D01*
X126070395Y-112250000D01*
X126429605Y-112250000D01*
X127402532Y-113222927D01*
X127669387Y-113124264D01*
X127895908Y-112514539D01*
X127876331Y-111985461D01*
X131104092Y-111985461D01*
X131128144Y-112635460D01*
X131330613Y-113124264D01*
X131597468Y-113222927D01*
X132570395Y-112250000D01*
X131597468Y-111277073D01*
X131330613Y-111375736D01*
X131104092Y-111985461D01*
X127876331Y-111985461D01*
X127871856Y-111864540D01*
X127669387Y-111375736D01*
X127402532Y-111277073D01*
X126429605Y-112250000D01*
X126070395Y-112250000D01*
X126056253Y-112235858D01*
X126235858Y-112056253D01*
X126250000Y-112070395D01*
X127222927Y-111097468D01*
X127124264Y-110830613D01*
X126514539Y-110604092D01*
X125864540Y-110628144D01*
X125664200Y-110711127D01*
X125664200Y-109784960D01*
X126013991Y-109785265D01*
X126578371Y-109552068D01*
X126755841Y-109374908D01*
X126811673Y-109509699D01*
X126990302Y-109688327D01*
X127223691Y-109785000D01*
X127964250Y-109785000D01*
X128123000Y-109626250D01*
X128123000Y-108377000D01*
X128103000Y-108377000D01*
X128103000Y-108123000D01*
X128123000Y-108123000D01*
X128123000Y-106873750D01*
X127964250Y-106715000D01*
X127223691Y-106715000D01*
X126990302Y-106811673D01*
X126811673Y-106990301D01*
X126755881Y-107124994D01*
X126580643Y-106949449D01*
X126485100Y-106909776D01*
X126485100Y-104535000D01*
X126714250Y-104535000D01*
X126873000Y-104376250D01*
X126873000Y-103127000D01*
X126853000Y-103127000D01*
X126853000Y-102873000D01*
X126873000Y-102873000D01*
X126873000Y-101623750D01*
X126714250Y-101465000D01*
X126485100Y-101465000D01*
X126485100Y-98814080D01*
X132346800Y-92952379D01*
X132346800Y-101512088D01*
G36*
X122127000Y-116253000D02*
X122147000Y-116253000D01*
X122147000Y-116507000D01*
X122127000Y-116507000D01*
X122127000Y-116527000D01*
X121873000Y-116527000D01*
X121873000Y-116507000D01*
X121853000Y-116507000D01*
X121853000Y-116253000D01*
X121873000Y-116253000D01*
X121873000Y-116233000D01*
X122127000Y-116233000D01*
X122127000Y-116253000D01*
X122127000Y-116253000D01*
G37*
X122127000Y-116253000D02*
X122147000Y-116253000D01*
X122147000Y-116507000D01*
X122127000Y-116507000D01*
X122127000Y-116527000D01*
X121873000Y-116527000D01*
X121873000Y-116507000D01*
X121853000Y-116507000D01*
X121853000Y-116253000D01*
X121873000Y-116253000D01*
X121873000Y-116233000D01*
X122127000Y-116233000D01*
X122127000Y-116253000D01*
G36*
X144789822Y-90502700D02*
X145306825Y-91276450D01*
X146080575Y-91793453D01*
X146993275Y-91975000D01*
X147086725Y-91975000D01*
X147999425Y-91793453D01*
X148695000Y-91328685D01*
X148695000Y-105010589D01*
X148464519Y-105164591D01*
X148305499Y-105402582D01*
X147947576Y-105012034D01*
X147404742Y-104758954D01*
X147167000Y-104879003D01*
X147167000Y-106123000D01*
X147187000Y-106123000D01*
X147187000Y-106377000D01*
X147167000Y-106377000D01*
X147167000Y-107620997D01*
X147404742Y-107741046D01*
X147947576Y-107487966D01*
X148305499Y-107097418D01*
X148464519Y-107335409D01*
X148571518Y-107406903D01*
X144085300Y-111893120D01*
X144085300Y-108440605D01*
X144085301Y-108440600D01*
X144017934Y-108101926D01*
X143911964Y-107943330D01*
X143826090Y-107814810D01*
X143826087Y-107814808D01*
X143808719Y-107797440D01*
X145400000Y-107797440D01*
X145635317Y-107753162D01*
X145851441Y-107614090D01*
X145996431Y-107401890D01*
X146006766Y-107350854D01*
X146132424Y-107487966D01*
X146675258Y-107741046D01*
X146913000Y-107620997D01*
X146913000Y-106377000D01*
X146893000Y-106377000D01*
X146893000Y-106123000D01*
X146913000Y-106123000D01*
X146913000Y-104879003D01*
X146675258Y-104758954D01*
X146132424Y-105012034D01*
X146009156Y-105146538D01*
X146003162Y-105114683D01*
X145864090Y-104898559D01*
X145651890Y-104753569D01*
X145400000Y-104702560D01*
X145355673Y-104702560D01*
X145317633Y-104511326D01*
X145317633Y-104511325D01*
X145125790Y-104224210D01*
X145125787Y-104224208D01*
X144745000Y-103843420D01*
X144745000Y-90277364D01*
X144789822Y-90502700D01*
X144789822Y-90502700D01*
G37*
X144789822Y-90502700D02*
X145306825Y-91276450D01*
X146080575Y-91793453D01*
X146993275Y-91975000D01*
X147086725Y-91975000D01*
X147999425Y-91793453D01*
X148695000Y-91328685D01*
X148695000Y-105010589D01*
X148464519Y-105164591D01*
X148305499Y-105402582D01*
X147947576Y-105012034D01*
X147404742Y-104758954D01*
X147167000Y-104879003D01*
X147167000Y-106123000D01*
X147187000Y-106123000D01*
X147187000Y-106377000D01*
X147167000Y-106377000D01*
X147167000Y-107620997D01*
X147404742Y-107741046D01*
X147947576Y-107487966D01*
X148305499Y-107097418D01*
X148464519Y-107335409D01*
X148571518Y-107406903D01*
X144085300Y-111893120D01*
X144085300Y-108440605D01*
X144085301Y-108440600D01*
X144017934Y-108101926D01*
X143911964Y-107943330D01*
X143826090Y-107814810D01*
X143826087Y-107814808D01*
X143808719Y-107797440D01*
X145400000Y-107797440D01*
X145635317Y-107753162D01*
X145851441Y-107614090D01*
X145996431Y-107401890D01*
X146006766Y-107350854D01*
X146132424Y-107487966D01*
X146675258Y-107741046D01*
X146913000Y-107620997D01*
X146913000Y-106377000D01*
X146893000Y-106377000D01*
X146893000Y-106123000D01*
X146913000Y-106123000D01*
X146913000Y-104879003D01*
X146675258Y-104758954D01*
X146132424Y-105012034D01*
X146009156Y-105146538D01*
X146003162Y-105114683D01*
X145864090Y-104898559D01*
X145651890Y-104753569D01*
X145400000Y-104702560D01*
X145355673Y-104702560D01*
X145317633Y-104511326D01*
X145317633Y-104511325D01*
X145125790Y-104224210D01*
X145125787Y-104224208D01*
X144745000Y-103843420D01*
X144745000Y-90277364D01*
X144789822Y-90502700D01*
G36*
X121619785Y-73799393D02*
X121377603Y-73868857D01*
X121190856Y-74392302D01*
X121218638Y-74947368D01*
X121377603Y-75331143D01*
X121619787Y-75400608D01*
X122420395Y-74600000D01*
X122406253Y-74585858D01*
X122585858Y-74406253D01*
X122600000Y-74420395D01*
X122614143Y-74406253D01*
X122793748Y-74585858D01*
X122779605Y-74600000D01*
X123305907Y-75126302D01*
X123414990Y-75390303D01*
X123807630Y-75783629D01*
X124320900Y-75996757D01*
X124876661Y-75997242D01*
X125390303Y-75785010D01*
X125600021Y-75575658D01*
X125807630Y-75783629D01*
X126320900Y-75996757D01*
X126859272Y-75997227D01*
X126556012Y-76199858D01*
X126266621Y-76632964D01*
X126165000Y-77143846D01*
X126165000Y-77196154D01*
X126266621Y-77707036D01*
X126556012Y-78140142D01*
X126989118Y-78429533D01*
X127500000Y-78531154D01*
X128010882Y-78429533D01*
X128443988Y-78140142D01*
X128733379Y-77707036D01*
X128835000Y-77196154D01*
X128835000Y-77143846D01*
X128733379Y-76632964D01*
X128443988Y-76199858D01*
X128010882Y-75910467D01*
X127500000Y-75808846D01*
X127177233Y-75873049D01*
X127390303Y-75785010D01*
X127600021Y-75575658D01*
X127807630Y-75783629D01*
X128320900Y-75996757D01*
X128745548Y-75997128D01*
X129393808Y-76645387D01*
X129393810Y-76645390D01*
X129576277Y-76767310D01*
X129680926Y-76837234D01*
X130019600Y-76904601D01*
X130019605Y-76904600D01*
X130212589Y-76904600D01*
X130165000Y-77143846D01*
X130165000Y-77196154D01*
X130266621Y-77707036D01*
X130556012Y-78140142D01*
X130615000Y-78179556D01*
X130615000Y-78369995D01*
X130614999Y-78370000D01*
X130660139Y-78596927D01*
X130682367Y-78708675D01*
X130846361Y-78954111D01*
X130874210Y-78995790D01*
X132257100Y-80378679D01*
X132257100Y-81118859D01*
X131766713Y-80915232D01*
X131235617Y-80914769D01*
X130744771Y-81117582D01*
X130368902Y-81492796D01*
X130165232Y-81983287D01*
X130164769Y-82514383D01*
X130367582Y-83005229D01*
X130742796Y-83381098D01*
X130861500Y-83430388D01*
X130861500Y-84378478D01*
X130499425Y-84136547D01*
X129586725Y-83955000D01*
X129493275Y-83955000D01*
X128580575Y-84136547D01*
X127806825Y-84653550D01*
X127289822Y-85427300D01*
X127108275Y-86340000D01*
X127289822Y-87252700D01*
X127806825Y-88026450D01*
X128580575Y-88543453D01*
X129493275Y-88725000D01*
X129586725Y-88725000D01*
X130499425Y-88543453D01*
X130861500Y-88301522D01*
X130861500Y-91934521D01*
X124974310Y-97821710D01*
X124913800Y-97912270D01*
X124913800Y-93291880D01*
X125335687Y-92869992D01*
X125335690Y-92869990D01*
X125527533Y-92582875D01*
X125542963Y-92505302D01*
X125594901Y-92244200D01*
X125594900Y-92244195D01*
X125594900Y-82514383D01*
X126164769Y-82514383D01*
X126367582Y-83005229D01*
X126742796Y-83381098D01*
X127233287Y-83584768D01*
X127764383Y-83585231D01*
X128255229Y-83382418D01*
X128631098Y-83007204D01*
X128834768Y-82516713D01*
X128835231Y-81985617D01*
X128632418Y-81494771D01*
X128257204Y-81118902D01*
X127766713Y-80915232D01*
X127235617Y-80914769D01*
X126744771Y-81117582D01*
X126368902Y-81492796D01*
X126165232Y-81983287D01*
X126164769Y-82514383D01*
X125594900Y-82514383D01*
X125594900Y-79579905D01*
X125594901Y-79579900D01*
X125527533Y-79241226D01*
X125527533Y-79241225D01*
X125335690Y-78954110D01*
X125335687Y-78954108D01*
X124475124Y-78093544D01*
X124733379Y-77707036D01*
X124835000Y-77196154D01*
X124835000Y-77143846D01*
X124733379Y-76632964D01*
X124443988Y-76199858D01*
X124010882Y-75910467D01*
X123500000Y-75808846D01*
X123238079Y-75860945D01*
X123331143Y-75822397D01*
X123400608Y-75580213D01*
X122600000Y-74779605D01*
X121799392Y-75580213D01*
X121868857Y-75822397D01*
X122392302Y-76009144D01*
X122877805Y-75984844D01*
X122556012Y-76199858D01*
X122266621Y-76632964D01*
X122165000Y-77143846D01*
X122165000Y-77196154D01*
X122266621Y-77707036D01*
X122556012Y-78140142D01*
X122615000Y-78179556D01*
X122615000Y-78369995D01*
X122614999Y-78370000D01*
X122660139Y-78596927D01*
X122682367Y-78708675D01*
X122846361Y-78954111D01*
X122874210Y-78995790D01*
X123824900Y-79946479D01*
X123824900Y-80939393D01*
X123766713Y-80915232D01*
X123235617Y-80914769D01*
X122744771Y-81117582D01*
X122368902Y-81492796D01*
X122165232Y-81983287D01*
X122164769Y-82514383D01*
X122367582Y-83005229D01*
X122742796Y-83381098D01*
X123233287Y-83584768D01*
X123764383Y-83585231D01*
X123824900Y-83560226D01*
X123824900Y-91877621D01*
X123403010Y-92299510D01*
X123211167Y-92586625D01*
X123211167Y-92586626D01*
X123185011Y-92718119D01*
X123042811Y-92505302D01*
X122660725Y-92250000D01*
X123042811Y-91994698D01*
X123353880Y-91529151D01*
X123463113Y-90980000D01*
X123353880Y-90430849D01*
X123042811Y-89965302D01*
X122660725Y-89710000D01*
X123042811Y-89454698D01*
X123353880Y-88989151D01*
X123463113Y-88440000D01*
X123353880Y-87890849D01*
X123042811Y-87425302D01*
X122759717Y-87236144D01*
X122862715Y-87193586D01*
X123292079Y-86764971D01*
X123524735Y-86204672D01*
X123525265Y-85597989D01*
X123293586Y-85037285D01*
X122864971Y-84607921D01*
X122304672Y-84375265D01*
X121697989Y-84374735D01*
X121137285Y-84606414D01*
X120707921Y-85035029D01*
X120475265Y-85595328D01*
X120474735Y-86202011D01*
X120706414Y-86762715D01*
X121135029Y-87192079D01*
X121240615Y-87235922D01*
X120957189Y-87425302D01*
X120646120Y-87890849D01*
X120536887Y-88440000D01*
X120571983Y-88616438D01*
X120084610Y-89103810D01*
X119892767Y-89390925D01*
X119892767Y-89390926D01*
X119825399Y-89729600D01*
X119825400Y-89729605D01*
X119825400Y-90315000D01*
X117685000Y-90315000D01*
X117685000Y-76562165D01*
X118281687Y-76443477D01*
X118528616Y-76341195D01*
X119501886Y-75690877D01*
X119625128Y-75567634D01*
X119690876Y-75501886D01*
X120341195Y-74528616D01*
X120373973Y-74449482D01*
X120443477Y-74281687D01*
X120562165Y-73685000D01*
X121505392Y-73685000D01*
X121619785Y-73799393D01*
X121619785Y-73799393D01*
G37*
X121619785Y-73799393D02*
X121377603Y-73868857D01*
X121190856Y-74392302D01*
X121218638Y-74947368D01*
X121377603Y-75331143D01*
X121619787Y-75400608D01*
X122420395Y-74600000D01*
X122406253Y-74585858D01*
X122585858Y-74406253D01*
X122600000Y-74420395D01*
X122614143Y-74406253D01*
X122793748Y-74585858D01*
X122779605Y-74600000D01*
X123305907Y-75126302D01*
X123414990Y-75390303D01*
X123807630Y-75783629D01*
X124320900Y-75996757D01*
X124876661Y-75997242D01*
X125390303Y-75785010D01*
X125600021Y-75575658D01*
X125807630Y-75783629D01*
X126320900Y-75996757D01*
X126859272Y-75997227D01*
X126556012Y-76199858D01*
X126266621Y-76632964D01*
X126165000Y-77143846D01*
X126165000Y-77196154D01*
X126266621Y-77707036D01*
X126556012Y-78140142D01*
X126989118Y-78429533D01*
X127500000Y-78531154D01*
X128010882Y-78429533D01*
X128443988Y-78140142D01*
X128733379Y-77707036D01*
X128835000Y-77196154D01*
X128835000Y-77143846D01*
X128733379Y-76632964D01*
X128443988Y-76199858D01*
X128010882Y-75910467D01*
X127500000Y-75808846D01*
X127177233Y-75873049D01*
X127390303Y-75785010D01*
X127600021Y-75575658D01*
X127807630Y-75783629D01*
X128320900Y-75996757D01*
X128745548Y-75997128D01*
X129393808Y-76645387D01*
X129393810Y-76645390D01*
X129576277Y-76767310D01*
X129680926Y-76837234D01*
X130019600Y-76904601D01*
X130019605Y-76904600D01*
X130212589Y-76904600D01*
X130165000Y-77143846D01*
X130165000Y-77196154D01*
X130266621Y-77707036D01*
X130556012Y-78140142D01*
X130615000Y-78179556D01*
X130615000Y-78369995D01*
X130614999Y-78370000D01*
X130660139Y-78596927D01*
X130682367Y-78708675D01*
X130846361Y-78954111D01*
X130874210Y-78995790D01*
X132257100Y-80378679D01*
X132257100Y-81118859D01*
X131766713Y-80915232D01*
X131235617Y-80914769D01*
X130744771Y-81117582D01*
X130368902Y-81492796D01*
X130165232Y-81983287D01*
X130164769Y-82514383D01*
X130367582Y-83005229D01*
X130742796Y-83381098D01*
X130861500Y-83430388D01*
X130861500Y-84378478D01*
X130499425Y-84136547D01*
X129586725Y-83955000D01*
X129493275Y-83955000D01*
X128580575Y-84136547D01*
X127806825Y-84653550D01*
X127289822Y-85427300D01*
X127108275Y-86340000D01*
X127289822Y-87252700D01*
X127806825Y-88026450D01*
X128580575Y-88543453D01*
X129493275Y-88725000D01*
X129586725Y-88725000D01*
X130499425Y-88543453D01*
X130861500Y-88301522D01*
X130861500Y-91934521D01*
X124974310Y-97821710D01*
X124913800Y-97912270D01*
X124913800Y-93291880D01*
X125335687Y-92869992D01*
X125335690Y-92869990D01*
X125527533Y-92582875D01*
X125542963Y-92505302D01*
X125594901Y-92244200D01*
X125594900Y-92244195D01*
X125594900Y-82514383D01*
X126164769Y-82514383D01*
X126367582Y-83005229D01*
X126742796Y-83381098D01*
X127233287Y-83584768D01*
X127764383Y-83585231D01*
X128255229Y-83382418D01*
X128631098Y-83007204D01*
X128834768Y-82516713D01*
X128835231Y-81985617D01*
X128632418Y-81494771D01*
X128257204Y-81118902D01*
X127766713Y-80915232D01*
X127235617Y-80914769D01*
X126744771Y-81117582D01*
X126368902Y-81492796D01*
X126165232Y-81983287D01*
X126164769Y-82514383D01*
X125594900Y-82514383D01*
X125594900Y-79579905D01*
X125594901Y-79579900D01*
X125527533Y-79241226D01*
X125527533Y-79241225D01*
X125335690Y-78954110D01*
X125335687Y-78954108D01*
X124475124Y-78093544D01*
X124733379Y-77707036D01*
X124835000Y-77196154D01*
X124835000Y-77143846D01*
X124733379Y-76632964D01*
X124443988Y-76199858D01*
X124010882Y-75910467D01*
X123500000Y-75808846D01*
X123238079Y-75860945D01*
X123331143Y-75822397D01*
X123400608Y-75580213D01*
X122600000Y-74779605D01*
X121799392Y-75580213D01*
X121868857Y-75822397D01*
X122392302Y-76009144D01*
X122877805Y-75984844D01*
X122556012Y-76199858D01*
X122266621Y-76632964D01*
X122165000Y-77143846D01*
X122165000Y-77196154D01*
X122266621Y-77707036D01*
X122556012Y-78140142D01*
X122615000Y-78179556D01*
X122615000Y-78369995D01*
X122614999Y-78370000D01*
X122660139Y-78596927D01*
X122682367Y-78708675D01*
X122846361Y-78954111D01*
X122874210Y-78995790D01*
X123824900Y-79946479D01*
X123824900Y-80939393D01*
X123766713Y-80915232D01*
X123235617Y-80914769D01*
X122744771Y-81117582D01*
X122368902Y-81492796D01*
X122165232Y-81983287D01*
X122164769Y-82514383D01*
X122367582Y-83005229D01*
X122742796Y-83381098D01*
X123233287Y-83584768D01*
X123764383Y-83585231D01*
X123824900Y-83560226D01*
X123824900Y-91877621D01*
X123403010Y-92299510D01*
X123211167Y-92586625D01*
X123211167Y-92586626D01*
X123185011Y-92718119D01*
X123042811Y-92505302D01*
X122660725Y-92250000D01*
X123042811Y-91994698D01*
X123353880Y-91529151D01*
X123463113Y-90980000D01*
X123353880Y-90430849D01*
X123042811Y-89965302D01*
X122660725Y-89710000D01*
X123042811Y-89454698D01*
X123353880Y-88989151D01*
X123463113Y-88440000D01*
X123353880Y-87890849D01*
X123042811Y-87425302D01*
X122759717Y-87236144D01*
X122862715Y-87193586D01*
X123292079Y-86764971D01*
X123524735Y-86204672D01*
X123525265Y-85597989D01*
X123293586Y-85037285D01*
X122864971Y-84607921D01*
X122304672Y-84375265D01*
X121697989Y-84374735D01*
X121137285Y-84606414D01*
X120707921Y-85035029D01*
X120475265Y-85595328D01*
X120474735Y-86202011D01*
X120706414Y-86762715D01*
X121135029Y-87192079D01*
X121240615Y-87235922D01*
X120957189Y-87425302D01*
X120646120Y-87890849D01*
X120536887Y-88440000D01*
X120571983Y-88616438D01*
X120084610Y-89103810D01*
X119892767Y-89390925D01*
X119892767Y-89390926D01*
X119825399Y-89729600D01*
X119825400Y-89729605D01*
X119825400Y-90315000D01*
X117685000Y-90315000D01*
X117685000Y-76562165D01*
X118281687Y-76443477D01*
X118528616Y-76341195D01*
X119501886Y-75690877D01*
X119625128Y-75567634D01*
X119690876Y-75501886D01*
X120341195Y-74528616D01*
X120373973Y-74449482D01*
X120443477Y-74281687D01*
X120562165Y-73685000D01*
X121505392Y-73685000D01*
X121619785Y-73799393D01*
G36*
X145323748Y-74735858D02*
X145309605Y-74750000D01*
X146101517Y-75541912D01*
X146342460Y-75473923D01*
X146401732Y-75307379D01*
X146495169Y-75533515D01*
X146884436Y-75923461D01*
X147393298Y-76134759D01*
X147944285Y-76135240D01*
X148453515Y-75924831D01*
X148843461Y-75535564D01*
X148939976Y-75303130D01*
X149035169Y-75533515D01*
X149424436Y-75923461D01*
X149933298Y-76134759D01*
X150343538Y-76135117D01*
X151163067Y-76954646D01*
X151141569Y-76986110D01*
X151112117Y-77131548D01*
X150986233Y-77131438D01*
X150642457Y-77273483D01*
X150379208Y-77536273D01*
X150236562Y-77879801D01*
X150236238Y-78251767D01*
X150378283Y-78595543D01*
X150641073Y-78858792D01*
X150984601Y-79001438D01*
X151137576Y-79001571D01*
X151138232Y-79002591D01*
X151090560Y-79238000D01*
X151090560Y-80762000D01*
X151134838Y-80997317D01*
X151273910Y-81213441D01*
X151287615Y-81222805D01*
X150923810Y-81586610D01*
X150731967Y-81873725D01*
X150729169Y-81887790D01*
X150664599Y-82212400D01*
X150664600Y-82212405D01*
X150664600Y-83439111D01*
X150486702Y-83365241D01*
X149935715Y-83364760D01*
X149892500Y-83382616D01*
X149892500Y-82769505D01*
X149892501Y-82769500D01*
X149825133Y-82430826D01*
X149825133Y-82430825D01*
X149633290Y-82143710D01*
X149633287Y-82143708D01*
X148714346Y-81224766D01*
X148858431Y-81013890D01*
X148909440Y-80762000D01*
X148909440Y-79238000D01*
X148865162Y-79002683D01*
X148861768Y-78997409D01*
X148909440Y-78762000D01*
X148909440Y-77238000D01*
X148865162Y-77002683D01*
X148726090Y-76786559D01*
X148513890Y-76641569D01*
X148262000Y-76590560D01*
X146753587Y-76590560D01*
X146750817Y-76583857D01*
X146488027Y-76320608D01*
X146144499Y-76177962D01*
X145772533Y-76177638D01*
X145428757Y-76319683D01*
X145165508Y-76582473D01*
X145022862Y-76926001D01*
X145022538Y-77297967D01*
X145164583Y-77641743D01*
X145353000Y-77830489D01*
X145353000Y-78000000D01*
X145420367Y-78338675D01*
X145612210Y-78625790D01*
X145899325Y-78817633D01*
X146108871Y-78859315D01*
X146134838Y-78997317D01*
X146138232Y-79002591D01*
X146090560Y-79238000D01*
X146090560Y-80762000D01*
X146134838Y-80997317D01*
X146273910Y-81213441D01*
X146486110Y-81358431D01*
X146640396Y-81389675D01*
X146648888Y-81432367D01*
X146682367Y-81600675D01*
X146734613Y-81678867D01*
X146874210Y-81887790D01*
X148122500Y-83136079D01*
X148122500Y-83438239D01*
X147946702Y-83365241D01*
X147395715Y-83364760D01*
X146886485Y-83575169D01*
X146496539Y-83964436D01*
X146406623Y-84180979D01*
X146342460Y-84026077D01*
X146101517Y-83958088D01*
X145309605Y-84750000D01*
X146101517Y-85541912D01*
X146342460Y-85473923D01*
X146401732Y-85307379D01*
X146495169Y-85533515D01*
X146785000Y-85823852D01*
X146785000Y-86882995D01*
X146784999Y-86883000D01*
X146830995Y-87114233D01*
X146852367Y-87221675D01*
X146859063Y-87231696D01*
X146080575Y-87386547D01*
X145306825Y-87903550D01*
X144789822Y-88677300D01*
X144745000Y-88902636D01*
X144745000Y-86083080D01*
X144925171Y-86147201D01*
X145475448Y-86119230D01*
X145853923Y-85962460D01*
X145921912Y-85721517D01*
X145130000Y-84929605D01*
X145115858Y-84943748D01*
X144936253Y-84764143D01*
X144950395Y-84750000D01*
X144936253Y-84735858D01*
X145115858Y-84556253D01*
X145130000Y-84570395D01*
X145921912Y-83778483D01*
X145853923Y-83537540D01*
X145334829Y-83352799D01*
X144784552Y-83380770D01*
X144742640Y-83398131D01*
X144677633Y-83071326D01*
X144677633Y-83071325D01*
X144485790Y-82784210D01*
X144485787Y-82784208D01*
X142229676Y-80528096D01*
X142251441Y-80514090D01*
X142396431Y-80301890D01*
X142405370Y-80257745D01*
X142671861Y-80257745D01*
X142745995Y-80503864D01*
X143283223Y-80696965D01*
X143853454Y-80669778D01*
X144254005Y-80503864D01*
X144328139Y-80257745D01*
X143500000Y-79429605D01*
X142671861Y-80257745D01*
X142405370Y-80257745D01*
X142444646Y-80063799D01*
X142492255Y-80078139D01*
X143320395Y-79250000D01*
X143679605Y-79250000D01*
X144507745Y-80078139D01*
X144753864Y-80004005D01*
X144946965Y-79466777D01*
X144919778Y-78896546D01*
X144753864Y-78495995D01*
X144507745Y-78421861D01*
X143679605Y-79250000D01*
X143320395Y-79250000D01*
X142492255Y-78421861D01*
X142444833Y-78436145D01*
X142408351Y-78242255D01*
X142671861Y-78242255D01*
X143500000Y-79070395D01*
X144328139Y-78242255D01*
X144254005Y-77996136D01*
X143716777Y-77803035D01*
X143146546Y-77830222D01*
X142745995Y-77996136D01*
X142671861Y-78242255D01*
X142408351Y-78242255D01*
X142403162Y-78214683D01*
X142264090Y-77998559D01*
X142051890Y-77853569D01*
X141800000Y-77802560D01*
X141419719Y-77802560D01*
X141617279Y-77605000D01*
X142324195Y-77605000D01*
X142324200Y-77605001D01*
X142606684Y-77548810D01*
X142662875Y-77537633D01*
X142949990Y-77345790D01*
X142949991Y-77345789D01*
X144390065Y-75905714D01*
X144406077Y-75962460D01*
X144925171Y-76147201D01*
X145475448Y-76119230D01*
X145853923Y-75962460D01*
X145921912Y-75721517D01*
X145130000Y-74929605D01*
X145115858Y-74943748D01*
X144936253Y-74764143D01*
X144950395Y-74750000D01*
X144936253Y-74735858D01*
X145115858Y-74556253D01*
X145130000Y-74570395D01*
X145144143Y-74556253D01*
X145323748Y-74735858D01*
X145323748Y-74735858D01*
G37*
X145323748Y-74735858D02*
X145309605Y-74750000D01*
X146101517Y-75541912D01*
X146342460Y-75473923D01*
X146401732Y-75307379D01*
X146495169Y-75533515D01*
X146884436Y-75923461D01*
X147393298Y-76134759D01*
X147944285Y-76135240D01*
X148453515Y-75924831D01*
X148843461Y-75535564D01*
X148939976Y-75303130D01*
X149035169Y-75533515D01*
X149424436Y-75923461D01*
X149933298Y-76134759D01*
X150343538Y-76135117D01*
X151163067Y-76954646D01*
X151141569Y-76986110D01*
X151112117Y-77131548D01*
X150986233Y-77131438D01*
X150642457Y-77273483D01*
X150379208Y-77536273D01*
X150236562Y-77879801D01*
X150236238Y-78251767D01*
X150378283Y-78595543D01*
X150641073Y-78858792D01*
X150984601Y-79001438D01*
X151137576Y-79001571D01*
X151138232Y-79002591D01*
X151090560Y-79238000D01*
X151090560Y-80762000D01*
X151134838Y-80997317D01*
X151273910Y-81213441D01*
X151287615Y-81222805D01*
X150923810Y-81586610D01*
X150731967Y-81873725D01*
X150729169Y-81887790D01*
X150664599Y-82212400D01*
X150664600Y-82212405D01*
X150664600Y-83439111D01*
X150486702Y-83365241D01*
X149935715Y-83364760D01*
X149892500Y-83382616D01*
X149892500Y-82769505D01*
X149892501Y-82769500D01*
X149825133Y-82430826D01*
X149825133Y-82430825D01*
X149633290Y-82143710D01*
X149633287Y-82143708D01*
X148714346Y-81224766D01*
X148858431Y-81013890D01*
X148909440Y-80762000D01*
X148909440Y-79238000D01*
X148865162Y-79002683D01*
X148861768Y-78997409D01*
X148909440Y-78762000D01*
X148909440Y-77238000D01*
X148865162Y-77002683D01*
X148726090Y-76786559D01*
X148513890Y-76641569D01*
X148262000Y-76590560D01*
X146753587Y-76590560D01*
X146750817Y-76583857D01*
X146488027Y-76320608D01*
X146144499Y-76177962D01*
X145772533Y-76177638D01*
X145428757Y-76319683D01*
X145165508Y-76582473D01*
X145022862Y-76926001D01*
X145022538Y-77297967D01*
X145164583Y-77641743D01*
X145353000Y-77830489D01*
X145353000Y-78000000D01*
X145420367Y-78338675D01*
X145612210Y-78625790D01*
X145899325Y-78817633D01*
X146108871Y-78859315D01*
X146134838Y-78997317D01*
X146138232Y-79002591D01*
X146090560Y-79238000D01*
X146090560Y-80762000D01*
X146134838Y-80997317D01*
X146273910Y-81213441D01*
X146486110Y-81358431D01*
X146640396Y-81389675D01*
X146648888Y-81432367D01*
X146682367Y-81600675D01*
X146734613Y-81678867D01*
X146874210Y-81887790D01*
X148122500Y-83136079D01*
X148122500Y-83438239D01*
X147946702Y-83365241D01*
X147395715Y-83364760D01*
X146886485Y-83575169D01*
X146496539Y-83964436D01*
X146406623Y-84180979D01*
X146342460Y-84026077D01*
X146101517Y-83958088D01*
X145309605Y-84750000D01*
X146101517Y-85541912D01*
X146342460Y-85473923D01*
X146401732Y-85307379D01*
X146495169Y-85533515D01*
X146785000Y-85823852D01*
X146785000Y-86882995D01*
X146784999Y-86883000D01*
X146830995Y-87114233D01*
X146852367Y-87221675D01*
X146859063Y-87231696D01*
X146080575Y-87386547D01*
X145306825Y-87903550D01*
X144789822Y-88677300D01*
X144745000Y-88902636D01*
X144745000Y-86083080D01*
X144925171Y-86147201D01*
X145475448Y-86119230D01*
X145853923Y-85962460D01*
X145921912Y-85721517D01*
X145130000Y-84929605D01*
X145115858Y-84943748D01*
X144936253Y-84764143D01*
X144950395Y-84750000D01*
X144936253Y-84735858D01*
X145115858Y-84556253D01*
X145130000Y-84570395D01*
X145921912Y-83778483D01*
X145853923Y-83537540D01*
X145334829Y-83352799D01*
X144784552Y-83380770D01*
X144742640Y-83398131D01*
X144677633Y-83071326D01*
X144677633Y-83071325D01*
X144485790Y-82784210D01*
X144485787Y-82784208D01*
X142229676Y-80528096D01*
X142251441Y-80514090D01*
X142396431Y-80301890D01*
X142405370Y-80257745D01*
X142671861Y-80257745D01*
X142745995Y-80503864D01*
X143283223Y-80696965D01*
X143853454Y-80669778D01*
X144254005Y-80503864D01*
X144328139Y-80257745D01*
X143500000Y-79429605D01*
X142671861Y-80257745D01*
X142405370Y-80257745D01*
X142444646Y-80063799D01*
X142492255Y-80078139D01*
X143320395Y-79250000D01*
X143679605Y-79250000D01*
X144507745Y-80078139D01*
X144753864Y-80004005D01*
X144946965Y-79466777D01*
X144919778Y-78896546D01*
X144753864Y-78495995D01*
X144507745Y-78421861D01*
X143679605Y-79250000D01*
X143320395Y-79250000D01*
X142492255Y-78421861D01*
X142444833Y-78436145D01*
X142408351Y-78242255D01*
X142671861Y-78242255D01*
X143500000Y-79070395D01*
X144328139Y-78242255D01*
X144254005Y-77996136D01*
X143716777Y-77803035D01*
X143146546Y-77830222D01*
X142745995Y-77996136D01*
X142671861Y-78242255D01*
X142408351Y-78242255D01*
X142403162Y-78214683D01*
X142264090Y-77998559D01*
X142051890Y-77853569D01*
X141800000Y-77802560D01*
X141419719Y-77802560D01*
X141617279Y-77605000D01*
X142324195Y-77605000D01*
X142324200Y-77605001D01*
X142606684Y-77548810D01*
X142662875Y-77537633D01*
X142949990Y-77345790D01*
X142949991Y-77345789D01*
X144390065Y-75905714D01*
X144406077Y-75962460D01*
X144925171Y-76147201D01*
X145475448Y-76119230D01*
X145853923Y-75962460D01*
X145921912Y-75721517D01*
X145130000Y-74929605D01*
X145115858Y-74943748D01*
X144936253Y-74764143D01*
X144950395Y-74750000D01*
X144936253Y-74735858D01*
X145115858Y-74556253D01*
X145130000Y-74570395D01*
X145144143Y-74556253D01*
X145323748Y-74735858D01*
M02*
