<?xml version="1.0" standalone="no"?>
 <!DOCTYPE svg PUBLIC "-//W3C//DTD SVG 1.1//EN" 
 "http://www.w3.org/Graphics/SVG/1.1/DTD/svg11.dtd"> 
<svg xmlns="http://www.w3.org/2000/svg" version="1.1" 
    width="4.1275cm" height="5.60832cm" viewBox="0 0 16250 22080 ">
<title>SVG Picture created as TheONETXModule-B.SilkS.svg date 2018/03/05 21:44:07 </title>
  <desc>Picture generated by PCBNEW </desc>
<g style="fill:#000000; fill-opacity:1;stroke:#000000; stroke-opacity:1;
stroke-linecap:round; stroke-linejoin:round; "
 transform="translate(0 0) scale(1 1)">
</g>
<g style="fill:#000000; fill-opacity:0.0; 
stroke:#000000; stroke-width:-0.000393701; stroke-opacity:1; 
stroke-linecap:round; stroke-linejoin:round;">
</g>
<g style="fill:#000000; fill-opacity:0.0; 
stroke:#000000; stroke-width:78.7402; stroke-opacity:1; 
stroke-linecap:round; stroke-linejoin:round;">
<path d="M131.89 1279.53 A1181.76 1181.76 0.0 0 0 1352.36 137.796 " />
<path d="M14974.4 98.4256 A1181.1 1181.1 0.0 0 0 16155.5 1279.53 " />
<path d="M16155 7027
L16155 1318
" />
<path d="M14974 7027
L16155 7027
" />
<path d="M14974 15059
L14974 7027
" />
<path d="M16155 15059
L14974 15059
" />
<path d="M16155 21988
L16155 15059
" />
<path d="M171 21988
L16155 21988
" />
<path d="M171 15059
L171 21988
" />
<path d="M1352 15059
L171 15059
" />
<path d="M1352 7027
L1352 15059
" />
<path d="M171 7027
L1352 7027
" />
<path d="M171 1279
L171 7027
" />
<path d="M14974 98
L1352 98
" />
</g>
<g style="fill:#000000; fill-opacity:0.0; 
stroke:#000000; stroke-width:39.3701; stroke-opacity:1; 
stroke-linecap:round; stroke-linejoin:round;">
<path d="M15053 19
L1273 19
" />
<path d="M15053.1 19.6854 A1181.1 1181.1 0.0 0 0 16234.3 1200.79 " />
<path d="M92.5197 1200.79 A1181.1 1181.1 0.0 0 0 1273.62 19.6854 " />
<path d="M92 7106
L92 1200
" />
<path d="M16234 7106
L16234 1200
" />
<path d="M1273 7106
L92 7106
" />
<path d="M15053 7106
L16234 7106
" />
<path d="M1273 14980
L1273 7106
" />
<path d="M15053 14980
L15053 7106
" />
<path d="M92 14980
L1273 14980
" />
<path d="M16234 14980
L15053 14980
" />
<path d="M92 22066
L92 14980
" />
<path d="M16234 22066
L16234 14980
" />
<path d="M92 22066
L16234 22066
" />
</g>
<g style="fill:#000000; fill-opacity:0.0; 
stroke:#000000; stroke-width:59.0551; stroke-opacity:1; 
stroke-linecap:round; stroke-linejoin:round;">
<path d="M3129 21345
L2942 21345
" />
<path d="M3167 21457
L3035 21063
L2904 21457
" />
<path d="M2567 21457
L2792 21457
" />
<path d="M2679 21457
L2679 21063
L2717 21120
L2754 21157
L2792 21176
" />
<path d="M15184 15815
L15184 16097
L15203 16153
L15240 16190
L15296 16209
L15334 16209
" />
<path d="M14790 16209
L15015 16209
" />
<path d="M14903 16209
L14903 15815
L14940 15872
L14978 15909
L15015 15928
" />
<path d="M11809 6111
L11809 6429
L11791 6467
L11772 6486
L11734 6504
L11659 6504
L11622 6486
L11603 6467
L11584 6429
L11584 6111
" />
<path d="M11191 6504
L11416 6504
" />
<path d="M11303 6504
L11303 6111
L11341 6167
L11378 6204
L11416 6223
" />
<path d="M10373 2930
L10373 3312
L10351 3357
L10328 3380
L10283 3402
L10193 3402
L10148 3380
L10126 3357
L10103 3312
L10103 2930
" />
<path d="M9676 3087
L9676 3402
" />
<path d="M9788 2907
L9901 3245
L9608 3245
" />
</g>
<g style="fill:#000000; fill-opacity:0.0; 
stroke:#000000; stroke-width:47.2441; stroke-opacity:1; 
stroke-linecap:round; stroke-linejoin:round;">
<path d="M2462 19893
L2462 20893
" />
<path d="M2462 20893
L1411 20893
" />
<path d="M1411 19893
L1411 4842
" />
<path d="M1411 21944
L1411 20893
" />
<path d="M7462 20893
L8513 20893
" />
<path d="M7462 20893
L7462 5893
" />
<path d="M7462 5893
L8513 5893
" />
<path d="M2462 19893
L1411 19893
" />
<path d="M2462 19893
L2462 5893
" />
<path d="M2462 5893
L1411 5893
" />
<path d="M1411 4842
L8513 4842
" />
<path d="M8513 4842
L8513 21944
" />
<path d="M8513 21944
L1411 21944
" />
<path d="M15576 21472
L14529 21472
" />
<path d="M15576 17448
L15576 21472
" />
<path d="M14529 17448
L14529 21472
" />
<path d="M15576 17448
L14529 17448
" />
<path d="M15576 16948
L15576 16425
" />
<path d="M15576 16425
L15053 16425
" />
<path d="M13525 12976
L9494 12976
" />
<path d="M13525 6720
L9494 6720
" />
<path d="M13525 6720
L13525 12976
" />
<path d="M9494 6720
L9494 12976
" />
<path d="M12509 12976
L12509 14015
" />
<path d="M11509 12976
L11509 14009
" />
<path d="M10509 12976
L10509 14009
" />
</g>
<g style="fill:#000000; fill-opacity:0.0; 
stroke:#000000; stroke-width:59.0551; stroke-opacity:1; 
stroke-linecap:round; stroke-linejoin:round;">
<path d="M8950 5334
L14856 5334
" />
<path d="M14895 5334
L14895 216
" />
<path d="M8950 5354
L8950 236
" />
<path d="M8950 216
L14856 216
" />
</g> 
</svg>
