<?xml version="1.0" standalone="no"?>
 <!DOCTYPE svg PUBLIC "-//W3C//DTD SVG 1.1//EN" 
 "http://www.w3.org/Graphics/SVG/1.1/DTD/svg11.dtd"> 
<svg xmlns="http://www.w3.org/2000/svg" version="1.1" 
    width="4.1275cm" height="5.60832cm" viewBox="0 0 16250 22080 ">
<title>SVG Picture created as TheONETXModule-F.Fab.svg date 2018/03/05 21:44:07 </title>
  <desc>Picture generated by PCBNEW </desc>
<g style="fill:#000000; fill-opacity:1;stroke:#000000; stroke-opacity:1;
stroke-linecap:round; stroke-linejoin:round; "
 transform="translate(0 0) scale(1 1)">
</g>
<g style="fill:#000000; fill-opacity:0.0; 
stroke:#000000; stroke-width:-0.000393701; stroke-opacity:1; 
stroke-linecap:round; stroke-linejoin:round;">
</g>
<g style="fill:#000000; fill-opacity:0.0; 
stroke:#000000; stroke-width:39.3701; stroke-opacity:1; 
stroke-linecap:round; stroke-linejoin:round;">
<path d="M15053 19
L1273 19
" />
<path d="M15053.1 19.6854 A1181.1 1181.1 0.0 0 0 16234.3 1200.79 " />
<path d="M92.5197 1200.79 A1181.1 1181.1 0.0 0 0 1273.62 19.6854 " />
<path d="M92 7106
L92 1200
" />
<path d="M16234 7106
L16234 1200
" />
<path d="M1273 7106
L92 7106
" />
<path d="M15053 7106
L16234 7106
" />
<path d="M1273 14980
L1273 7106
" />
<path d="M15053 14980
L15053 7106
" />
<path d="M92 14980
L1273 14980
" />
<path d="M16234 14980
L15053 14980
" />
<path d="M92 22066
L92 14980
" />
<path d="M16234 22066
L16234 14980
" />
<path d="M92 22066
L16234 22066
" />
</g>
<g style="fill:#000000; fill-opacity:0.0; 
stroke:#000000; stroke-width:59.0551; stroke-opacity:1; 
stroke-linecap:round; stroke-linejoin:round;">
<path d="M8785 20628
L8804 20610
L8842 20591
L8935 20591
L8973 20610
L8992 20628
L9010 20666
L9010 20703
L8992 20760
L8767 20985
L9010 20985
" />
<path d="M9160 20628
L9179 20610
L9217 20591
L9310 20591
L9348 20610
L9366 20628
L9385 20666
L9385 20703
L9366 20760
L9142 20985
L9385 20985
" />
<path d="M9723 20722
L9723 20985
" />
<path d="M9554 20722
L9554 20928
L9573 20966
L9610 20985
L9666 20985
L9704 20966
L9723 20947
" />
<path d="M10041 20778
L9910 20778
" />
<path d="M9910 20985
L9910 20591
L10098 20591
" />
<path d="M10454 20985
L10229 20985
" />
<path d="M10341 20985
L10341 20591
L10304 20647
L10266 20685
L10229 20703
" />
<path d="M10675 20628
L10694 20610
L10731 20591
L10825 20591
L10863 20610
L10881 20628
L10900 20666
L10900 20703
L10881 20760
L10656 20985
L10900 20985
" />
<path d="M11050 20628
L11069 20610
L11106 20591
L11200 20591
L11238 20610
L11256 20628
L11275 20666
L11275 20703
L11256 20760
L11031 20985
L11275 20985
" />
<path d="M11612 20722
L11612 20985
" />
<path d="M11444 20722
L11444 20928
L11462 20966
L11500 20985
L11556 20985
L11594 20966
L11612 20947
" />
<path d="M11931 20778
L11800 20778
" />
<path d="M11800 20985
L11800 20591
L11987 20591
" />
<path d="M12119 20628
L12137 20610
L12175 20591
L12269 20591
L12306 20610
L12325 20628
L12344 20666
L12344 20703
L12325 20760
L12100 20985
L12344 20985
" />
<path d="M12565 20628
L12584 20610
L12621 20591
L12715 20591
L12752 20610
L12771 20628
L12790 20666
L12790 20703
L12771 20760
L12546 20985
L12790 20985
" />
<path d="M12940 20628
L12959 20610
L12996 20591
L13090 20591
L13127 20610
L13146 20628
L13165 20666
L13165 20703
L13146 20760
L12921 20985
L13165 20985
" />
<path d="M13502 20722
L13502 20985
" />
<path d="M13333 20722
L13333 20928
L13352 20966
L13390 20985
L13446 20985
L13483 20966
L13502 20947
" />
<path d="M13821 20778
L13690 20778
" />
<path d="M13690 20985
L13690 20591
L13877 20591
" />
<path d="M13990 20591
L14233 20591
L14102 20741
L14158 20741
L14196 20760
L14215 20778
L14233 20816
L14233 20910
L14215 20947
L14196 20966
L14158 20985
L14046 20985
L14008 20966
L13990 20947
" />
<path d="M10130 4336
L10130 4149
" />
<path d="M10243 4374
L9849 4242
L10243 4111
" />
<path d="M9849 4036
L10243 3905
L9849 3774
" />
<path d="M10243 3418
L10055 3549
" />
<path d="M10243 3643
L9849 3643
L9849 3493
L9868 3455
L9886 3436
L9924 3418
L9980 3418
L10018 3436
L10036 3455
L10055 3493
L10055 3643
" />
<path d="M10093 3249
L10093 2949
" />
<path d="M10243 2761
L9849 2761
" />
<path d="M10224 2593
L10243 2536
L10243 2443
L10224 2405
L10205 2386
L10168 2368
L10130 2368
L10093 2386
L10074 2405
L10055 2443
L10036 2518
L10018 2555
L9999 2574
L9961 2593
L9924 2593
L9886 2574
L9868 2555
L9849 2518
L9849 2424
L9868 2368
" />
<path d="M10243 2199
L9849 2199
L9849 2049
L9868 2011
L9886 1993
L9924 1974
L9980 1974
L10018 1993
L10036 2011
L10055 2049
L10055 2199
" />
<path d="M10093 1805
L10093 1505
" />
<path d="M9849 1149
L9849 1224
L9868 1262
L9886 1280
L9943 1318
L10018 1337
L10168 1337
L10205 1318
L10224 1299
L10243 1262
L10243 1187
L10224 1149
L10205 1130
L10168 1112
L10074 1112
L10036 1130
L10018 1149
L9999 1187
L9999 1262
L10018 1299
L10036 1318
L10074 1337
" />
<path d="M11504 2865
L11485 2883
L11429 2902
L11391 2902
L11335 2883
L11297 2846
L11279 2808
L11260 2733
L11260 2677
L11279 2602
L11297 2565
L11335 2527
L11391 2508
L11429 2508
L11485 2527
L11504 2546
" />
<path d="M11747 2508
L11822 2508
L11860 2527
L11897 2565
L11916 2640
L11916 2771
L11897 2846
L11860 2883
L11822 2902
L11747 2902
L11710 2883
L11672 2846
L11654 2771
L11654 2640
L11672 2565
L11710 2527
L11747 2508
" />
<path d="M12085 2902
L12085 2508
L12310 2902
L12310 2508
" />
<path d="M12704 2902
L12479 2902
" />
<path d="M12591 2902
L12591 2508
L12554 2565
L12516 2602
L12479 2621
" />
<path d="M1630 3547
L1612 3528
L1593 3491
L1593 3397
L1612 3359
L1630 3341
L1668 3322
L1705 3322
L1762 3341
L1987 3565
L1987 3322
" />
<path d="M1949 3153
L1968 3134
L1987 3153
L1968 3172
L1949 3153
L1987 3153
" />
<path d="M1630 2984
L1612 2966
L1593 2928
L1593 2834
L1612 2797
L1630 2778
L1668 2759
L1705 2759
L1762 2778
L1987 3003
L1987 2759
" />
<path d="M1987 2591
L1593 2591
" />
<path d="M1987 2366
L1762 2534
" />
<path d="M1593 2366
L1818 2591
" />
<path d="M3168 3228
L3168 3453
" />
<path d="M3168 3341
L2774 3341
L2830 3378
L2868 3416
L2887 3453
" />
<path d="M2774 2984
L2774 2947
L2793 2909
L2812 2891
L2849 2872
L2924 2853
L3018 2853
L3093 2872
L3130 2891
L3149 2909
L3168 2947
L3168 2984
L3149 3022
L3130 3041
L3093 3059
L3018 3078
L2924 3078
L2849 3059
L2812 3041
L2793 3022
L2774 2984
" />
<path d="M3168 2684
L2774 2684
" />
<path d="M3168 2459
L2943 2628
" />
<path d="M2774 2459
L2999 2684
" />
<path d="M4349 3072
L4349 3297
" />
<path d="M4349 3185
L3955 3185
L4011 3222
L4049 3260
L4068 3297
" />
<path d="M4349 2903
L3955 2903
" />
<path d="M4349 2678
L4124 2847
" />
<path d="M3955 2678
L4180 2903
" />
<path d="M5213 3485
L5194 3466
L5176 3428
L5176 3335
L5194 3297
L5213 3278
L5251 3260
L5288 3260
L5344 3278
L5569 3503
L5569 3260
" />
<path d="M5176 3016
L5176 2978
L5194 2941
L5213 2922
L5251 2903
L5326 2885
L5419 2885
L5494 2903
L5532 2922
L5551 2941
L5569 2978
L5569 3016
L5551 3053
L5532 3072
L5494 3091
L5419 3110
L5326 3110
L5251 3091
L5213 3072
L5194 3053
L5176 3016
" />
<path d="M5569 2716
L5176 2716
" />
<path d="M5569 2491
L5344 2660
" />
<path d="M5176 2491
L5401 2716
" />
<path d="M6317 3278
L6317 3466
L6505 3485
L6486 3466
L6467 3428
L6467 3335
L6486 3297
L6505 3278
L6542 3260
L6636 3260
L6674 3278
L6692 3297
L6711 3335
L6711 3428
L6692 3466
L6674 3485
" />
<path d="M6317 3016
L6317 2978
L6336 2941
L6355 2922
L6392 2903
L6467 2885
L6561 2885
L6636 2903
L6674 2922
L6692 2941
L6711 2978
L6711 3016
L6692 3053
L6674 3072
L6636 3091
L6561 3110
L6467 3110
L6392 3091
L6355 3072
L6336 3053
L6317 3016
" />
<path d="M6711 2716
L6317 2716
" />
<path d="M6711 2491
L6486 2660
" />
<path d="M6317 2491
L6542 2716
" />
<path d="M7892 3072
L7892 3297
" />
<path d="M7892 3185
L7498 3185
L7555 3222
L7592 3260
L7611 3297
" />
<path d="M7892 2903
L7498 2903
" />
<path d="M7892 2678
L7667 2847
" />
<path d="M7498 2678
L7723 2903
" />
<path d="M9073 3447
L9073 3672
" />
<path d="M9073 3559
L8680 3559
L8736 3597
L8773 3634
L8792 3672
" />
<path d="M8680 3203
L8680 3166
L8698 3128
L8717 3110
L8755 3091
L8830 3072
L8923 3072
L8998 3091
L9036 3110
L9055 3128
L9073 3166
L9073 3203
L9055 3241
L9036 3260
L8998 3278
L8923 3297
L8830 3297
L8755 3278
L8717 3260
L8698 3241
L8680 3203
" />
<path d="M8680 2828
L8680 2791
L8698 2753
L8717 2735
L8755 2716
L8830 2697
L8923 2697
L8998 2716
L9036 2735
L9055 2753
L9073 2791
L9073 2828
L9055 2866
L9036 2885
L8998 2903
L8923 2922
L8830 2922
L8755 2903
L8717 2885
L8698 2866
L8680 2828
" />
<path d="M9073 2528
L8680 2528
" />
<path d="M9073 2303
L8848 2472
" />
<path d="M8680 2303
L8905 2528
" />
<path d="M3682 18180
L3738 18199
L3757 18218
L3776 18255
L3776 18311
L3757 18349
L3738 18368
L3701 18386
L3551 18386
L3551 17993
L3682 17993
L3720 18011
L3738 18030
L3757 18068
L3757 18105
L3738 18143
L3720 18161
L3682 18180
L3551 18180
" />
<path d="M3945 18386
L3945 18124
" />
<path d="M3945 17993
L3926 18011
L3945 18030
L3963 18011
L3945 17993
L3945 18030
" />
<path d="M4132 18124
L4132 18386
" />
<path d="M4132 18161
L4151 18143
L4188 18124
L4245 18124
L4282 18143
L4301 18180
L4301 18386
" />
<path d="M4657 18386
L4657 17993
" />
<path d="M4657 18368
L4620 18386
L4545 18386
L4507 18368
L4488 18349
L4470 18311
L4470 18199
L4488 18161
L4507 18143
L4545 18124
L4620 18124
L4657 18143
" />
<path d="M5276 18180
L5332 18199
L5351 18218
L5369 18255
L5369 18311
L5351 18349
L5332 18368
L5294 18386
L5145 18386
L5145 17993
L5276 17993
L5313 18011
L5332 18030
L5351 18068
L5351 18105
L5332 18143
L5313 18161
L5276 18180
L5145 18180
" />
<path d="M5707 18124
L5707 18386
" />
<path d="M5538 18124
L5538 18330
L5557 18368
L5594 18386
L5651 18386
L5688 18368
L5707 18349
" />
<path d="M5838 18124
L5988 18124
" />
<path d="M5894 17993
L5894 18330
L5913 18368
L5951 18386
L5988 18386
" />
<path d="M6063 18124
L6213 18124
" />
<path d="M6119 17993
L6119 18330
L6138 18368
L6176 18386
L6213 18386
" />
<path d="M6401 18386
L6363 18368
L6344 18349
L6326 18311
L6326 18199
L6344 18161
L6363 18143
L6401 18124
L6457 18124
L6494 18143
L6513 18161
L6532 18199
L6532 18311
L6513 18349
L6494 18368
L6457 18386
L6401 18386
" />
<path d="M6701 18124
L6701 18386
" />
<path d="M6701 18161
L6719 18143
L6757 18124
L6813 18124
L6851 18143
L6869 18180
L6869 18386
" />
<path d="M4488 16616
L4545 16634
L4638 16634
L4676 16616
L4695 16597
L4713 16559
L4713 16522
L4695 16484
L4676 16466
L4638 16447
L4563 16428
L4526 16409
L4507 16391
L4488 16353
L4488 16316
L4507 16278
L4526 16259
L4563 16241
L4657 16241
L4713 16259
" />
<path d="M4845 16241
L4938 16634
L5013 16353
L5088 16634
L5182 16241
" />
<path d="M5538 16634
L5313 16634
" />
<path d="M5426 16634
L5426 16241
L5388 16297
L5351 16334
L5313 16353
" />
<path d="M2415 8195
L2602 8195
" />
<path d="M2377 8308
L2509 7914
L2640 8308
" />
<path d="M2734 7914
L2996 7914
L2827 8308
" />
<path d="M3352 8308
L3127 8308
" />
<path d="M3240 8308
L3240 7914
L3202 7970
L3165 8008
L3127 8026
" />
<path d="M3596 7914
L3633 7914
L3671 7933
L3690 7951
L3708 7989
L3727 8064
L3727 8158
L3708 8233
L3690 8270
L3671 8289
L3633 8308
L3596 8308
L3558 8289
L3540 8270
L3521 8233
L3502 8158
L3502 8064
L3521 7989
L3540 7951
L3558 7933
L3596 7914
" />
<path d="M4083 7914
L3896 7914
L3877 8101
L3896 8083
L3933 8064
L4027 8064
L4065 8083
L4083 8101
L4102 8139
L4102 8233
L4083 8270
L4065 8289
L4027 8308
L3933 8308
L3896 8289
L3877 8270
" />
<path d="M4271 8158
L4571 8158
" />
<path d="M4758 8308
L4758 7914
" />
<path d="M4758 8101
L4983 8101
" />
<path d="M4983 8308
L4983 7914
" />
<path d="M5339 8045
L5339 8308
" />
<path d="M5171 8045
L5171 8251
L5190 8289
L5227 8308
L5283 8308
L5321 8289
L5339 8270
" />
<path d="M5527 8308
L5527 7914
" />
<path d="M5527 8064
L5564 8045
L5639 8045
L5677 8064
L5696 8083
L5714 8120
L5714 8233
L5696 8270
L5677 8289
L5639 8308
L5564 8308
L5527 8289
" />
<path d="M5864 8289
L5902 8308
L5977 8308
L6014 8289
L6033 8251
L6033 8233
L6014 8195
L5977 8176
L5921 8176
L5883 8158
L5864 8120
L5864 8101
L5883 8064
L5921 8045
L5977 8045
L6014 8064
" />
<path d="M6371 8308
L6371 8101
L6352 8064
L6314 8045
L6239 8045
L6202 8064
" />
<path d="M6371 8289
L6333 8308
L6239 8308
L6202 8289
L6183 8251
L6183 8214
L6202 8176
L6239 8158
L6333 8158
L6371 8139
" />
<path d="M6558 8045
L6558 8308
" />
<path d="M6558 8083
L6577 8064
L6614 8045
L6671 8045
L6708 8064
L6727 8101
L6727 8308
" />
<path d="M2086 4646
L1899 4646
L1899 4252
" />
<path d="M2217 4646
L2217 4252
L2311 4252
L2367 4271
L2405 4309
L2423 4346
L2442 4421
L2442 4477
L2423 4552
L2405 4590
L2367 4627
L2311 4646
L2217 4646
" />
<path d="M2817 4646
L2592 4646
" />
<path d="M2705 4646
L2705 4252
L2667 4309
L2630 4346
L2592 4365
" />
<path d="M3192 4646
L2967 4646
" />
<path d="M3080 4646
L3080 4252
L3042 4309
L3005 4346
L2967 4365
" />
<path d="M3567 4646
L3342 4646
" />
<path d="M3455 4646
L3455 4252
L3417 4309
L3380 4346
L3342 4365
" />
<path d="M3698 4252
L3961 4252
L3792 4646
" />
<path d="M4092 4627
L4148 4646
L4242 4646
L4279 4627
L4298 4609
L4317 4571
L4317 4534
L4298 4496
L4279 4477
L4242 4459
L4167 4440
L4130 4421
L4111 4402
L4092 4365
L4092 4327
L4111 4290
L4130 4271
L4167 4252
L4261 4252
L4317 4271
" />
<path d="M4448 4252
L4692 4252
L4561 4402
L4617 4402
L4654 4421
L4673 4440
L4692 4477
L4692 4571
L4673 4609
L4654 4627
L4617 4646
L4504 4646
L4467 4627
L4448 4609
" />
<path d="M4823 4252
L5067 4252
L4936 4402
L4992 4402
L5029 4421
L5048 4440
L5067 4477
L5067 4571
L5048 4609
L5029 4627
L4992 4646
L4879 4646
L4842 4627
L4823 4609
" />
<path d="M5179 4252
L5404 4252
" />
<path d="M5292 4646
L5292 4252
" />
<path d="M5761 4646
L5629 4459
" />
<path d="M5536 4646
L5536 4252
L5686 4252
L5723 4271
L5742 4290
L5761 4327
L5761 4384
L5742 4421
L5723 4440
L5686 4459
L5536 4459
" />
<path d="M5836 4684
L6136 4684
" />
<path d="M6211 4627
L6267 4646
L6360 4646
L6398 4627
L6417 4609
L6435 4571
L6435 4534
L6417 4496
L6398 4477
L6360 4459
L6285 4440
L6248 4421
L6229 4402
L6211 4365
L6211 4327
L6229 4290
L6248 4271
L6285 4252
L6379 4252
L6435 4271
" />
<path d="M6679 4252
L6754 4252
L6792 4271
L6829 4309
L6848 4384
L6848 4515
L6829 4590
L6792 4627
L6754 4646
L6679 4646
L6642 4627
L6604 4590
L6585 4515
L6585 4384
L6604 4309
L6642 4271
L6679 4252
" />
<path d="M6960 4252
L7185 4252
" />
<path d="M7073 4646
L7073 4252
" />
<path d="M7298 4290
L7317 4271
L7354 4252
L7448 4252
L7485 4271
L7504 4290
L7523 4327
L7523 4365
L7504 4421
L7279 4646
L7523 4646
" />
<path d="M7673 4290
L7692 4271
L7729 4252
L7823 4252
L7860 4271
L7879 4290
L7898 4327
L7898 4365
L7879 4421
L7654 4646
L7898 4646
" />
<path d="M8029 4252
L8273 4252
L8142 4402
L8198 4402
L8235 4421
L8254 4440
L8273 4477
L8273 4571
L8254 4609
L8235 4627
L8198 4646
L8085 4646
L8048 4627
L8029 4609
" />
<path d="M4776 13103
L4776 13422
L4795 13459
L4814 13478
L4851 13497
L4926 13497
L4964 13478
L4983 13459
L5001 13422
L5001 13103
" />
<path d="M5170 13140
L5189 13122
L5226 13103
L5320 13103
L5357 13122
L5376 13140
L5395 13178
L5395 13215
L5376 13272
L5151 13497
L5395 13497
" />
<path d="M10500 8260
L10500 7867
L10725 8260
L10725 7867
" />
<path d="M11137 8260
L11006 8073
" />
<path d="M10912 8260
L10912 7867
L11062 7867
L11100 7885
L11119 7904
L11137 7942
L11137 7998
L11119 8035
L11100 8054
L11062 8073
L10912 8073
" />
<path d="M11437 8054
L11306 8054
" />
<path d="M11306 8260
L11306 7867
L11494 7867
" />
<path d="M11625 7904
L11644 7885
L11681 7867
L11775 7867
L11812 7885
L11831 7904
L11850 7942
L11850 7979
L11831 8035
L11606 8260
L11850 8260
" />
<path d="M12187 7998
L12187 8260
" />
<path d="M12094 7848
L12000 8129
L12244 8129
" />
<path d="M12581 8260
L12393 8260
L12393 7867
" />
<path d="M12787 7867
L12825 7867
L12862 7885
L12881 7904
L12900 7942
L12918 8017
L12918 8110
L12900 8185
L12881 8223
L12862 8242
L12825 8260
L12787 8260
L12750 8242
L12731 8223
L12712 8185
L12693 8110
L12693 8017
L12712 7942
L12731 7904
L12750 7885
L12787 7867
" />
<path d="M13293 8260
L13068 8260
" />
<path d="M13181 8260
L13181 7867
L13143 7923
L13106 7960
L13068 7979
" />
</g>
<g style="fill:#000000; fill-opacity:0.0; 
stroke:#000000; stroke-width:39.3701; stroke-opacity:1; 
stroke-linecap:round; stroke-linejoin:round;">
<circle cx="9620.08" cy="20807.1" r="787.402" /> 
<path d="M8557 20807
L8911 20807
" />
<path d="M8734 20629
L8734 20984
" />
<circle cx="11509.8" cy="20807.1" r="787.402" /> 
<path d="M10446 20807
L10801 20807
" />
<path d="M10624 20629
L10624 20984
" />
<circle cx="13399.6" cy="20807.1" r="787.402" /> 
<path d="M12336 20807
L12690 20807
" />
<path d="M12513 20629
L12513 20984
" />
<path d="M13482 2224
L13482 3724
" />
<path d="M13482 3724
L10482 3724
" />
<path d="M10482 3724
L10482 1724
" />
<path d="M10482 1724
L12982 1724
" />
<path d="M12982 1724
L13482 2224
" />
<path d="M4317.15 13576.6 A748.031 748.031 0.0 1 0 4316.93 14494.6 " />
<circle cx="3726.38" cy="14035.4" r="590.551" /> 
<path d="M4316 14494
L4316 13576
" />
<path d="M5694.66 14494.3 A748.031 748.031 0.0 1 0 5694.88 13576.3 " />
<circle cx="6285.43" cy="14035.4" r="590.551" /> 
<path d="M5694 13576
L5694 14494
" />
<path d="M761 3665
L1391 3665
" />
<path d="M1391 3665
L1391 2248
" />
<path d="M1391 2248
L761 2248
" />
<path d="M761 2248
L761 3665
" />
<path d="M1076 3956
L1076 3665
" />
<path d="M1076 1956
L1076 2248
" />
<path d="M1942 3665
L2572 3665
" />
<path d="M2572 3665
L2572 2248
" />
<path d="M2572 2248
L1942 2248
" />
<path d="M1942 2248
L1942 3665
" />
<path d="M2257 3956
L2257 3665
" />
<path d="M2257 1956
L2257 2248
" />
<path d="M3124 3696
L3753 3696
" />
<path d="M3753 3696
L3753 2279
" />
<path d="M3753 2279
L3124 2279
" />
<path d="M3124 2279
L3124 3696
" />
<path d="M3438 3988
L3438 3696
" />
<path d="M3438 1988
L3438 2279
" />
<path d="M4344 3696
L4974 3696
" />
<path d="M4974 3696
L4974 2279
" />
<path d="M4974 2279
L4344 2279
" />
<path d="M4344 2279
L4344 3696
" />
<path d="M4659 3988
L4659 3696
" />
<path d="M4659 1988
L4659 2279
" />
<path d="M5486 3696
L6116 3696
" />
<path d="M6116 3696
L6116 2279
" />
<path d="M6116 2279
L5486 2279
" />
<path d="M5486 2279
L5486 3696
" />
<path d="M5801 3988
L5801 3696
" />
<path d="M5801 1988
L5801 2279
" />
<path d="M6667 3696
L7297 3696
" />
<path d="M7297 3696
L7297 2279
" />
<path d="M7297 2279
L6667 2279
" />
<path d="M6667 2279
L6667 3696
" />
<path d="M6982 3988
L6982 3696
" />
<path d="M6982 1988
L6982 2279
" />
<path d="M7848 3696
L8478 3696
" />
<path d="M8478 3696
L8478 2279
" />
<path d="M8478 2279
L7848 2279
" />
<path d="M7848 2279
L7848 3696
" />
<path d="M8163 3988
L8163 3696
" />
<path d="M8163 1988
L8163 2279
" />
<path d="M5013 15275
L6194 15275
" />
<path d="M6194 15275
L6194 17637
" />
<path d="M6194 17637
L3832 17637
" />
<path d="M3832 17637
L3832 15275
" />
<path d="M3832 15275
L5013 15275
" />
<circle cx="5013.78" cy="16456.7" r="793.529" /> 
<path d="M7045 10358
L7045 12877
" />
<path d="M7045 12877
L3108 12877
" />
<path d="M3108 12877
L3108 10358
" />
<path d="M3108 10358
L7045 10358
" />
<path d="M7045 6716
L7045 10358
" />
<path d="M7045 10358
L3108 10358
" />
<path d="M3108 10358
L3108 6716
" />
<path d="M3108 6716
L7045 6716
" />
<path d="M6076 6716
L6076 5216
" />
<path d="M5076 6716
L5076 5216
" />
<path d="M4076 6716
L4076 5216
" />
<circle cx="5076.77" cy="11775.6" r="728.346" /> 
</g> 
</svg>
