<?xml version="1.0" standalone="no"?>
 <!DOCTYPE svg PUBLIC "-//W3C//DTD SVG 1.1//EN" 
 "http://www.w3.org/Graphics/SVG/1.1/DTD/svg11.dtd"> 
<svg xmlns="http://www.w3.org/2000/svg" version="1.1" 
    width="4.1275cm" height="5.60832cm" viewBox="0 0 16250 22080 ">
<title>SVG Picture created as TheONETXModule-F.CrtYd.svg date 2018/03/05 21:44:07 </title>
  <desc>Picture generated by PCBNEW </desc>
<g style="fill:#000000; fill-opacity:1;stroke:#000000; stroke-opacity:1;
stroke-linecap:round; stroke-linejoin:round; "
 transform="translate(0 0) scale(1 1)">
</g>
<g style="fill:#000000; fill-opacity:0.0; 
stroke:#000000; stroke-width:-0.000393701; stroke-opacity:1; 
stroke-linecap:round; stroke-linejoin:round;">
</g>
<g style="fill:#000000; fill-opacity:0.0; 
stroke:#000000; stroke-width:39.3701; stroke-opacity:1; 
stroke-linecap:round; stroke-linejoin:round;">
<path d="M15053 19
L1273 19
" />
<path d="M15053.1 19.6854 A1181.1 1181.1 0.0 0 0 16234.3 1200.79 " />
<path d="M92.5197 1200.79 A1181.1 1181.1 0.0 0 0 1273.62 19.6854 " />
<path d="M92 7106
L92 1200
" />
<path d="M16234 7106
L16234 1200
" />
<path d="M1273 7106
L92 7106
" />
<path d="M15053 7106
L16234 7106
" />
<path d="M1273 14980
L1273 7106
" />
<path d="M15053 14980
L15053 7106
" />
<path d="M92 14980
L1273 14980
" />
<path d="M16234 14980
L15053 14980
" />
<path d="M92 22066
L92 14980
" />
<path d="M16234 22066
L16234 14980
" />
<path d="M92 22066
L16234 22066
" />
</g>
<g style="fill:#000000; fill-opacity:0.0; 
stroke:#000000; stroke-width:19.685; stroke-opacity:1; 
stroke-linecap:round; stroke-linejoin:round;">
<path d="M8694 19881
L8694 21732
" />
<path d="M8694 21732
L10545 21732
" />
<path d="M10545 21732
L10545 19881
" />
<path d="M10545 19881
L8694 19881
" />
<path d="M10584 19881
L10584 21732
" />
<path d="M10584 21732
L12435 21732
" />
<path d="M12435 21732
L12435 19881
" />
<path d="M12435 19881
L10584 19881
" />
<path d="M12474 19881
L12474 21732
" />
<path d="M12474 21732
L14324 21732
" />
<path d="M14324 21732
L14324 19881
" />
<path d="M14324 19881
L12474 19881
" />
<path d="M13690 1515
L10285 1515
" />
<path d="M10285 1515
L10285 3937
" />
<path d="M10285 3937
L13690 3937
" />
<path d="M13690 3937
L13690 1515
" />
<path d="M4679 14921
L4679 13149
" />
<path d="M4679 13149
L2769 13149
" />
<path d="M2769 13149
L2769 14921
" />
<path d="M2769 14921
L4679 14921
" />
<path d="M5332 13149
L5332 14921
" />
<path d="M5332 14921
L7242 14921
" />
<path d="M7242 14921
L7242 13149
" />
<path d="M7242 13149
L5332 13149
" />
<path d="M624 4330
L1529 4330
" />
<path d="M1529 4330
L1529 1574
" />
<path d="M1529 1574
L624 1574
" />
<path d="M624 1574
L624 4330
" />
<path d="M1805 4330
L2710 4330
" />
<path d="M2710 4330
L2710 1574
" />
<path d="M2710 1574
L1805 1574
" />
<path d="M1805 1574
L1805 4330
" />
<path d="M2986 4362
L3891 4362
" />
<path d="M3891 4362
L3891 1606
" />
<path d="M3891 1606
L2986 1606
" />
<path d="M2986 1606
L2986 4362
" />
<path d="M4206 4362
L5112 4362
" />
<path d="M5112 4362
L5112 1606
" />
<path d="M5112 1606
L4206 1606
" />
<path d="M4206 1606
L4206 4362
" />
<path d="M5348 4362
L6253 4362
" />
<path d="M6253 4362
L6253 1606
" />
<path d="M6253 1606
L5348 1606
" />
<path d="M5348 1606
L5348 4362
" />
<path d="M6529 4362
L7435 4362
" />
<path d="M7435 4362
L7435 1606
" />
<path d="M7435 1606
L6529 1606
" />
<path d="M6529 1606
L6529 4362
" />
<path d="M7710 4362
L8616 4362
" />
<path d="M8616 4362
L8616 1606
" />
<path d="M8616 1606
L7710 1606
" />
<path d="M7710 1606
L7710 4362
" />
<path d="M6785 17933
L6883 17933
" />
<path d="M6883 17933
L6883 17834
" />
<path d="M6785 14980
L6883 14980
" />
<path d="M6883 14980
L6883 15078
" />
<path d="M3143 15078
L3143 14980
" />
<path d="M3143 14980
L3242 14980
" />
<path d="M3143 17834
L3143 17933
" />
<path d="M3143 17933
L3242 17933
" />
<path d="M3242 14980
L6785 14980
" />
<path d="M3143 17834
L3143 15078
" />
<path d="M6785 17933
L3242 17933
" />
<path d="M6883 15078
L6883 17834
" />
<path d="M7143 12976
L7143 4763
" />
<path d="M7143 4763
L3009 4763
" />
<path d="M3009 4763
L3009 12976
" />
<path d="M3009 12976
L7143 12976
" />
</g> 
</svg>
