G04 #@! TF.FileFunction,Other,Fab,Top*
%FSLAX46Y46*%
G04 Gerber Fmt 4.6, Leading zero omitted, Abs format (unit mm)*
G04 Created by KiCad (PCBNEW 4.0.7) date 07/08/18 15:45:41*
%MOMM*%
%LPD*%
G01*
G04 APERTURE LIST*
%ADD10C,0.100000*%
%ADD11C,0.150000*%
G04 APERTURE END LIST*
D10*
X144500000Y-79250000D02*
G75*
G03X144500000Y-79250000I-2250000J0D01*
G01*
X138800000Y-79250000D02*
X140000000Y-79250000D01*
X139400000Y-78600000D02*
X139400000Y-79900000D01*
X144500000Y-126000000D02*
G75*
G03X144500000Y-126000000I-2250000J0D01*
G01*
X138800000Y-126000000D02*
X140000000Y-126000000D01*
X139400000Y-125350000D02*
X139400000Y-126650000D01*
X150500000Y-126000000D02*
G75*
G03X150500000Y-126000000I-2250000J0D01*
G01*
X144800000Y-126000000D02*
X146000000Y-126000000D01*
X145400000Y-125350000D02*
X145400000Y-126650000D01*
X143050000Y-111190000D02*
X140450000Y-111190000D01*
X140450000Y-111190000D02*
X140450000Y-114390000D01*
X140450000Y-114390000D02*
X143050000Y-114390000D01*
X143050000Y-114390000D02*
X143050000Y-111190000D01*
X141750000Y-110250000D02*
X141750000Y-111190000D01*
X141750000Y-115330000D02*
X141750000Y-114390000D01*
X143050000Y-111670000D02*
X140450000Y-111670000D01*
X133230555Y-107084524D02*
G75*
G03X133230000Y-109416190I-1500555J-1165476D01*
G01*
X133230000Y-108250000D02*
G75*
G03X133230000Y-108250000I-1500000J0D01*
G01*
X133230000Y-109416190D02*
X133230000Y-107083810D01*
X128480555Y-107084524D02*
G75*
G03X128480000Y-109416190I-1500555J-1165476D01*
G01*
X128480000Y-108250000D02*
G75*
G03X128480000Y-108250000I-1500000J0D01*
G01*
X128480000Y-109416190D02*
X128480000Y-107083810D01*
X154365000Y-113730000D02*
X156270000Y-113730000D01*
X156270000Y-113730000D02*
X156270000Y-126430000D01*
X156270000Y-126430000D02*
X153730000Y-126430000D01*
X153730000Y-126430000D02*
X153730000Y-114365000D01*
X153730000Y-114365000D02*
X154365000Y-113730000D01*
X122700000Y-81510000D02*
X124300000Y-81510000D01*
X124300000Y-81510000D02*
X124300000Y-77910000D01*
X124300000Y-77910000D02*
X122700000Y-77910000D01*
X122700000Y-77910000D02*
X122700000Y-81510000D01*
X123500000Y-82250000D02*
X123500000Y-81510000D01*
X123500000Y-77170000D02*
X123500000Y-77910000D01*
X126700000Y-81510000D02*
X128300000Y-81510000D01*
X128300000Y-81510000D02*
X128300000Y-77910000D01*
X128300000Y-77910000D02*
X126700000Y-77910000D01*
X126700000Y-77910000D02*
X126700000Y-81510000D01*
X127500000Y-82250000D02*
X127500000Y-81510000D01*
X127500000Y-77170000D02*
X127500000Y-77910000D01*
X130700000Y-81510000D02*
X132300000Y-81510000D01*
X132300000Y-81510000D02*
X132300000Y-77910000D01*
X132300000Y-77910000D02*
X130700000Y-77910000D01*
X130700000Y-77910000D02*
X130700000Y-81510000D01*
X131500000Y-82250000D02*
X131500000Y-81510000D01*
X131500000Y-77170000D02*
X131500000Y-77910000D01*
X134700000Y-81510000D02*
X136300000Y-81510000D01*
X136300000Y-81510000D02*
X136300000Y-77910000D01*
X136300000Y-77910000D02*
X134700000Y-77910000D01*
X134700000Y-77910000D02*
X134700000Y-81510000D01*
X135500000Y-82250000D02*
X135500000Y-81510000D01*
X135500000Y-77170000D02*
X135500000Y-77910000D01*
X129500000Y-111500000D02*
X132500000Y-111500000D01*
X132500000Y-111500000D02*
X132500000Y-117500000D01*
X132500000Y-117500000D02*
X126500000Y-117500000D01*
X126500000Y-117500000D02*
X126500000Y-111500000D01*
X126500000Y-111500000D02*
X129500000Y-111500000D01*
X131515564Y-114500000D02*
G75*
G03X131515564Y-114500000I-2015564J0D01*
G01*
X142040000Y-93190000D02*
X142040000Y-86790000D01*
X142040000Y-86790000D02*
X152040000Y-86790000D01*
X152040000Y-86790000D02*
X152040000Y-93190000D01*
X152040000Y-93190000D02*
X142040000Y-93190000D01*
X142040000Y-102440000D02*
X142040000Y-93190000D01*
X142040000Y-93190000D02*
X152040000Y-93190000D01*
X152040000Y-93190000D02*
X152040000Y-102440000D01*
X152040000Y-102440000D02*
X142040000Y-102440000D01*
X144500000Y-102440000D02*
X144500000Y-106250000D01*
X147040000Y-102440000D02*
X147040000Y-106250000D01*
X149580000Y-102440000D02*
X149580000Y-106250000D01*
X148890000Y-89590000D02*
G75*
G03X148890000Y-89590000I-1850000J0D01*
G01*
X124540000Y-89940000D02*
X124540000Y-83540000D01*
X124540000Y-83540000D02*
X134540000Y-83540000D01*
X134540000Y-83540000D02*
X134540000Y-89940000D01*
X134540000Y-89940000D02*
X124540000Y-89940000D01*
X124540000Y-99190000D02*
X124540000Y-89940000D01*
X124540000Y-89940000D02*
X134540000Y-89940000D01*
X134540000Y-89940000D02*
X134540000Y-99190000D01*
X134540000Y-99190000D02*
X124540000Y-99190000D01*
X127000000Y-99190000D02*
X127000000Y-103000000D01*
X129540000Y-99190000D02*
X129540000Y-103000000D01*
X132080000Y-99190000D02*
X132080000Y-103000000D01*
X131390000Y-86340000D02*
G75*
G03X131390000Y-86340000I-1850000J0D01*
G01*
D11*
X141583334Y-83167143D02*
X141535715Y-83214762D01*
X141392858Y-83262381D01*
X141297620Y-83262381D01*
X141154762Y-83214762D01*
X141059524Y-83119524D01*
X141011905Y-83024286D01*
X140964286Y-82833810D01*
X140964286Y-82690952D01*
X141011905Y-82500476D01*
X141059524Y-82405238D01*
X141154762Y-82310000D01*
X141297620Y-82262381D01*
X141392858Y-82262381D01*
X141535715Y-82310000D01*
X141583334Y-82357619D01*
X142011905Y-83262381D02*
X142011905Y-82262381D01*
X142392858Y-82262381D01*
X142488096Y-82310000D01*
X142535715Y-82357619D01*
X142583334Y-82452857D01*
X142583334Y-82595714D01*
X142535715Y-82690952D01*
X142488096Y-82738571D01*
X142392858Y-82786190D01*
X142011905Y-82786190D01*
X143535715Y-83262381D02*
X142964286Y-83262381D01*
X143250000Y-83262381D02*
X143250000Y-82262381D01*
X143154762Y-82405238D01*
X143059524Y-82500476D01*
X142964286Y-82548095D01*
X140130952Y-78797619D02*
X140178571Y-78750000D01*
X140273809Y-78702381D01*
X140511905Y-78702381D01*
X140607143Y-78750000D01*
X140654762Y-78797619D01*
X140702381Y-78892857D01*
X140702381Y-78988095D01*
X140654762Y-79130952D01*
X140083333Y-79702381D01*
X140702381Y-79702381D01*
X141083333Y-78797619D02*
X141130952Y-78750000D01*
X141226190Y-78702381D01*
X141464286Y-78702381D01*
X141559524Y-78750000D01*
X141607143Y-78797619D01*
X141654762Y-78892857D01*
X141654762Y-78988095D01*
X141607143Y-79130952D01*
X141035714Y-79702381D01*
X141654762Y-79702381D01*
X142511905Y-79035714D02*
X142511905Y-79702381D01*
X142083333Y-79035714D02*
X142083333Y-79559524D01*
X142130952Y-79654762D01*
X142226190Y-79702381D01*
X142369048Y-79702381D01*
X142464286Y-79654762D01*
X142511905Y-79607143D01*
X143321429Y-79178571D02*
X142988095Y-79178571D01*
X142988095Y-79702381D02*
X142988095Y-78702381D01*
X143464286Y-78702381D01*
X144369048Y-79702381D02*
X143797619Y-79702381D01*
X144083333Y-79702381D02*
X144083333Y-78702381D01*
X143988095Y-78845238D01*
X143892857Y-78940476D01*
X143797619Y-78988095D01*
X141583334Y-129917143D02*
X141535715Y-129964762D01*
X141392858Y-130012381D01*
X141297620Y-130012381D01*
X141154762Y-129964762D01*
X141059524Y-129869524D01*
X141011905Y-129774286D01*
X140964286Y-129583810D01*
X140964286Y-129440952D01*
X141011905Y-129250476D01*
X141059524Y-129155238D01*
X141154762Y-129060000D01*
X141297620Y-129012381D01*
X141392858Y-129012381D01*
X141535715Y-129060000D01*
X141583334Y-129107619D01*
X142011905Y-130012381D02*
X142011905Y-129012381D01*
X142392858Y-129012381D01*
X142488096Y-129060000D01*
X142535715Y-129107619D01*
X142583334Y-129202857D01*
X142583334Y-129345714D01*
X142535715Y-129440952D01*
X142488096Y-129488571D01*
X142392858Y-129536190D01*
X142011905Y-129536190D01*
X143535715Y-130012381D02*
X142964286Y-130012381D01*
X143250000Y-130012381D02*
X143250000Y-129012381D01*
X143154762Y-129155238D01*
X143059524Y-129250476D01*
X142964286Y-129298095D01*
X140130952Y-125547619D02*
X140178571Y-125500000D01*
X140273809Y-125452381D01*
X140511905Y-125452381D01*
X140607143Y-125500000D01*
X140654762Y-125547619D01*
X140702381Y-125642857D01*
X140702381Y-125738095D01*
X140654762Y-125880952D01*
X140083333Y-126452381D01*
X140702381Y-126452381D01*
X141083333Y-125547619D02*
X141130952Y-125500000D01*
X141226190Y-125452381D01*
X141464286Y-125452381D01*
X141559524Y-125500000D01*
X141607143Y-125547619D01*
X141654762Y-125642857D01*
X141654762Y-125738095D01*
X141607143Y-125880952D01*
X141035714Y-126452381D01*
X141654762Y-126452381D01*
X142511905Y-125785714D02*
X142511905Y-126452381D01*
X142083333Y-125785714D02*
X142083333Y-126309524D01*
X142130952Y-126404762D01*
X142226190Y-126452381D01*
X142369048Y-126452381D01*
X142464286Y-126404762D01*
X142511905Y-126357143D01*
X143321429Y-125928571D02*
X142988095Y-125928571D01*
X142988095Y-126452381D02*
X142988095Y-125452381D01*
X143464286Y-125452381D01*
X143797619Y-125547619D02*
X143845238Y-125500000D01*
X143940476Y-125452381D01*
X144178572Y-125452381D01*
X144273810Y-125500000D01*
X144321429Y-125547619D01*
X144369048Y-125642857D01*
X144369048Y-125738095D01*
X144321429Y-125880952D01*
X143750000Y-126452381D01*
X144369048Y-126452381D01*
X147583334Y-129917143D02*
X147535715Y-129964762D01*
X147392858Y-130012381D01*
X147297620Y-130012381D01*
X147154762Y-129964762D01*
X147059524Y-129869524D01*
X147011905Y-129774286D01*
X146964286Y-129583810D01*
X146964286Y-129440952D01*
X147011905Y-129250476D01*
X147059524Y-129155238D01*
X147154762Y-129060000D01*
X147297620Y-129012381D01*
X147392858Y-129012381D01*
X147535715Y-129060000D01*
X147583334Y-129107619D01*
X148011905Y-130012381D02*
X148011905Y-129012381D01*
X148392858Y-129012381D01*
X148488096Y-129060000D01*
X148535715Y-129107619D01*
X148583334Y-129202857D01*
X148583334Y-129345714D01*
X148535715Y-129440952D01*
X148488096Y-129488571D01*
X148392858Y-129536190D01*
X148011905Y-129536190D01*
X149535715Y-130012381D02*
X148964286Y-130012381D01*
X149250000Y-130012381D02*
X149250000Y-129012381D01*
X149154762Y-129155238D01*
X149059524Y-129250476D01*
X148964286Y-129298095D01*
X146130952Y-125547619D02*
X146178571Y-125500000D01*
X146273809Y-125452381D01*
X146511905Y-125452381D01*
X146607143Y-125500000D01*
X146654762Y-125547619D01*
X146702381Y-125642857D01*
X146702381Y-125738095D01*
X146654762Y-125880952D01*
X146083333Y-126452381D01*
X146702381Y-126452381D01*
X147083333Y-125547619D02*
X147130952Y-125500000D01*
X147226190Y-125452381D01*
X147464286Y-125452381D01*
X147559524Y-125500000D01*
X147607143Y-125547619D01*
X147654762Y-125642857D01*
X147654762Y-125738095D01*
X147607143Y-125880952D01*
X147035714Y-126452381D01*
X147654762Y-126452381D01*
X148511905Y-125785714D02*
X148511905Y-126452381D01*
X148083333Y-125785714D02*
X148083333Y-126309524D01*
X148130952Y-126404762D01*
X148226190Y-126452381D01*
X148369048Y-126452381D01*
X148464286Y-126404762D01*
X148511905Y-126357143D01*
X149321429Y-125928571D02*
X148988095Y-125928571D01*
X148988095Y-126452381D02*
X148988095Y-125452381D01*
X149464286Y-125452381D01*
X149750000Y-125452381D02*
X150369048Y-125452381D01*
X150035714Y-125833333D01*
X150178572Y-125833333D01*
X150273810Y-125880952D01*
X150321429Y-125928571D01*
X150369048Y-126023810D01*
X150369048Y-126261905D01*
X150321429Y-126357143D01*
X150273810Y-126404762D01*
X150178572Y-126452381D01*
X149892857Y-126452381D01*
X149797619Y-126404762D01*
X149750000Y-126357143D01*
X139842381Y-113051905D02*
X138842381Y-113051905D01*
X138842381Y-112813810D01*
X138890000Y-112670952D01*
X138985238Y-112575714D01*
X139080476Y-112528095D01*
X139270952Y-112480476D01*
X139413810Y-112480476D01*
X139604286Y-112528095D01*
X139699524Y-112575714D01*
X139794762Y-112670952D01*
X139842381Y-112813810D01*
X139842381Y-113051905D01*
X142202381Y-113528095D02*
X141202381Y-113528095D01*
X141202381Y-113290000D01*
X141250000Y-113147142D01*
X141345238Y-113051904D01*
X141440476Y-113004285D01*
X141630952Y-112956666D01*
X141773810Y-112956666D01*
X141964286Y-113004285D01*
X142059524Y-113051904D01*
X142154762Y-113147142D01*
X142202381Y-113290000D01*
X142202381Y-113528095D01*
X142202381Y-112004285D02*
X142202381Y-112575714D01*
X142202381Y-112290000D02*
X141202381Y-112290000D01*
X141345238Y-112385238D01*
X141440476Y-112480476D01*
X141488095Y-112575714D01*
X131087143Y-105742381D02*
X130610952Y-105742381D01*
X130610952Y-104742381D01*
X131420476Y-105218571D02*
X131753810Y-105218571D01*
X131896667Y-105742381D02*
X131420476Y-105742381D01*
X131420476Y-104742381D01*
X131896667Y-104742381D01*
X132325238Y-105742381D02*
X132325238Y-104742381D01*
X132563333Y-104742381D01*
X132706191Y-104790000D01*
X132801429Y-104885238D01*
X132849048Y-104980476D01*
X132896667Y-105170952D01*
X132896667Y-105313810D01*
X132849048Y-105504286D01*
X132801429Y-105599524D01*
X132706191Y-105694762D01*
X132563333Y-105742381D01*
X132325238Y-105742381D01*
X126107143Y-105702381D02*
X125630952Y-105702381D01*
X125630952Y-104702381D01*
X126440476Y-105178571D02*
X126773810Y-105178571D01*
X126916667Y-105702381D02*
X126440476Y-105702381D01*
X126440476Y-104702381D01*
X126916667Y-104702381D01*
X127345238Y-105702381D02*
X127345238Y-104702381D01*
X127583333Y-104702381D01*
X127726191Y-104750000D01*
X127821429Y-104845238D01*
X127869048Y-104940476D01*
X127916667Y-105130952D01*
X127916667Y-105273810D01*
X127869048Y-105464286D01*
X127821429Y-105559524D01*
X127726191Y-105654762D01*
X127583333Y-105702381D01*
X127345238Y-105702381D01*
X154452381Y-120413333D02*
X155166667Y-120413333D01*
X155309524Y-120460953D01*
X155404762Y-120556191D01*
X155452381Y-120699048D01*
X155452381Y-120794286D01*
X155452381Y-119413333D02*
X155452381Y-119984762D01*
X155452381Y-119699048D02*
X154452381Y-119699048D01*
X154595238Y-119794286D01*
X154690476Y-119889524D01*
X154738095Y-119984762D01*
X150202381Y-81750000D02*
X150202381Y-81178571D01*
X151202381Y-81464286D02*
X150202381Y-81464286D01*
X150678571Y-80845238D02*
X150678571Y-80511904D01*
X151202381Y-80369047D02*
X151202381Y-80845238D01*
X150202381Y-80845238D01*
X150202381Y-80369047D01*
X151202381Y-79464285D02*
X151202381Y-79940476D01*
X150202381Y-79940476D01*
X151297619Y-79369047D02*
X151297619Y-78607142D01*
X151202381Y-77797618D02*
X150726190Y-78130952D01*
X151202381Y-78369047D02*
X150202381Y-78369047D01*
X150202381Y-77988094D01*
X150250000Y-77892856D01*
X150297619Y-77845237D01*
X150392857Y-77797618D01*
X150535714Y-77797618D01*
X150630952Y-77845237D01*
X150678571Y-77892856D01*
X150726190Y-77988094D01*
X150726190Y-78369047D01*
X150202381Y-77464285D02*
X151202381Y-76797618D01*
X150202381Y-76797618D02*
X151202381Y-77464285D01*
X145202381Y-81630953D02*
X145202381Y-81059524D01*
X146202381Y-81345239D02*
X145202381Y-81345239D01*
X145678571Y-80726191D02*
X145678571Y-80392857D01*
X146202381Y-80250000D02*
X146202381Y-80726191D01*
X145202381Y-80726191D01*
X145202381Y-80250000D01*
X146202381Y-79345238D02*
X146202381Y-79821429D01*
X145202381Y-79821429D01*
X146297619Y-79250000D02*
X146297619Y-78488095D01*
X145202381Y-78392857D02*
X145202381Y-77821428D01*
X146202381Y-78107143D02*
X145202381Y-78107143D01*
X145202381Y-77583333D02*
X146202381Y-76916666D01*
X145202381Y-76916666D02*
X146202381Y-77583333D01*
X124907619Y-81210000D02*
X124860000Y-81162381D01*
X124812381Y-81067143D01*
X124812381Y-80829047D01*
X124860000Y-80733809D01*
X124907619Y-80686190D01*
X125002857Y-80638571D01*
X125098095Y-80638571D01*
X125240952Y-80686190D01*
X125812381Y-81257619D01*
X125812381Y-80638571D01*
X125717143Y-80210000D02*
X125764762Y-80162381D01*
X125812381Y-80210000D01*
X125764762Y-80257619D01*
X125717143Y-80210000D01*
X125812381Y-80210000D01*
X124907619Y-79781429D02*
X124860000Y-79733810D01*
X124812381Y-79638572D01*
X124812381Y-79400476D01*
X124860000Y-79305238D01*
X124907619Y-79257619D01*
X125002857Y-79210000D01*
X125098095Y-79210000D01*
X125240952Y-79257619D01*
X125812381Y-79829048D01*
X125812381Y-79210000D01*
X125812381Y-78781429D02*
X124812381Y-78781429D01*
X125812381Y-78210000D02*
X125240952Y-78638572D01*
X124812381Y-78210000D02*
X125383810Y-78781429D01*
X129145714Y-80471904D02*
X129812381Y-80471904D01*
X128764762Y-80710000D02*
X129479048Y-80948095D01*
X129479048Y-80329047D01*
X128812381Y-80043333D02*
X128812381Y-79376666D01*
X129812381Y-79805238D01*
X128812381Y-78805238D02*
X128812381Y-78709999D01*
X128860000Y-78614761D01*
X128907619Y-78567142D01*
X129002857Y-78519523D01*
X129193333Y-78471904D01*
X129431429Y-78471904D01*
X129621905Y-78519523D01*
X129717143Y-78567142D01*
X129764762Y-78614761D01*
X129812381Y-78709999D01*
X129812381Y-78805238D01*
X129764762Y-78900476D01*
X129717143Y-78948095D01*
X129621905Y-78995714D01*
X129431429Y-79043333D01*
X129193333Y-79043333D01*
X129002857Y-78995714D01*
X128907619Y-78948095D01*
X128860000Y-78900476D01*
X128812381Y-78805238D01*
X133812381Y-79924285D02*
X133812381Y-80495714D01*
X133812381Y-80210000D02*
X132812381Y-80210000D01*
X132955238Y-80305238D01*
X133050476Y-80400476D01*
X133098095Y-80495714D01*
X133812381Y-79495714D02*
X132812381Y-79495714D01*
X133812381Y-78924285D02*
X133240952Y-79352857D01*
X132812381Y-78924285D02*
X133383810Y-79495714D01*
X137812381Y-79924285D02*
X137812381Y-80495714D01*
X137812381Y-80210000D02*
X136812381Y-80210000D01*
X136955238Y-80305238D01*
X137050476Y-80400476D01*
X137098095Y-80495714D01*
X137812381Y-79495714D02*
X136812381Y-79495714D01*
X137812381Y-78924285D02*
X137240952Y-79352857D01*
X136812381Y-78924285D02*
X137383810Y-79495714D01*
X126119048Y-118878571D02*
X126261905Y-118926190D01*
X126309524Y-118973810D01*
X126357143Y-119069048D01*
X126357143Y-119211905D01*
X126309524Y-119307143D01*
X126261905Y-119354762D01*
X126166667Y-119402381D01*
X125785714Y-119402381D01*
X125785714Y-118402381D01*
X126119048Y-118402381D01*
X126214286Y-118450000D01*
X126261905Y-118497619D01*
X126309524Y-118592857D01*
X126309524Y-118688095D01*
X126261905Y-118783333D01*
X126214286Y-118830952D01*
X126119048Y-118878571D01*
X125785714Y-118878571D01*
X126785714Y-119402381D02*
X126785714Y-118735714D01*
X126785714Y-118402381D02*
X126738095Y-118450000D01*
X126785714Y-118497619D01*
X126833333Y-118450000D01*
X126785714Y-118402381D01*
X126785714Y-118497619D01*
X127261904Y-118735714D02*
X127261904Y-119402381D01*
X127261904Y-118830952D02*
X127309523Y-118783333D01*
X127404761Y-118735714D01*
X127547619Y-118735714D01*
X127642857Y-118783333D01*
X127690476Y-118878571D01*
X127690476Y-119402381D01*
X128595238Y-119402381D02*
X128595238Y-118402381D01*
X128595238Y-119354762D02*
X128500000Y-119402381D01*
X128309523Y-119402381D01*
X128214285Y-119354762D01*
X128166666Y-119307143D01*
X128119047Y-119211905D01*
X128119047Y-118926190D01*
X128166666Y-118830952D01*
X128214285Y-118783333D01*
X128309523Y-118735714D01*
X128500000Y-118735714D01*
X128595238Y-118783333D01*
X130166667Y-118878571D02*
X130309524Y-118926190D01*
X130357143Y-118973810D01*
X130404762Y-119069048D01*
X130404762Y-119211905D01*
X130357143Y-119307143D01*
X130309524Y-119354762D01*
X130214286Y-119402381D01*
X129833333Y-119402381D01*
X129833333Y-118402381D01*
X130166667Y-118402381D01*
X130261905Y-118450000D01*
X130309524Y-118497619D01*
X130357143Y-118592857D01*
X130357143Y-118688095D01*
X130309524Y-118783333D01*
X130261905Y-118830952D01*
X130166667Y-118878571D01*
X129833333Y-118878571D01*
X131261905Y-118735714D02*
X131261905Y-119402381D01*
X130833333Y-118735714D02*
X130833333Y-119259524D01*
X130880952Y-119354762D01*
X130976190Y-119402381D01*
X131119048Y-119402381D01*
X131214286Y-119354762D01*
X131261905Y-119307143D01*
X131595238Y-118735714D02*
X131976190Y-118735714D01*
X131738095Y-118402381D02*
X131738095Y-119259524D01*
X131785714Y-119354762D01*
X131880952Y-119402381D01*
X131976190Y-119402381D01*
X132166667Y-118735714D02*
X132547619Y-118735714D01*
X132309524Y-118402381D02*
X132309524Y-119259524D01*
X132357143Y-119354762D01*
X132452381Y-119402381D01*
X132547619Y-119402381D01*
X133023810Y-119402381D02*
X132928572Y-119354762D01*
X132880953Y-119307143D01*
X132833334Y-119211905D01*
X132833334Y-118926190D01*
X132880953Y-118830952D01*
X132928572Y-118783333D01*
X133023810Y-118735714D01*
X133166668Y-118735714D01*
X133261906Y-118783333D01*
X133309525Y-118830952D01*
X133357144Y-118926190D01*
X133357144Y-119211905D01*
X133309525Y-119307143D01*
X133261906Y-119354762D01*
X133166668Y-119402381D01*
X133023810Y-119402381D01*
X133785715Y-118735714D02*
X133785715Y-119402381D01*
X133785715Y-118830952D02*
X133833334Y-118783333D01*
X133928572Y-118735714D01*
X134071430Y-118735714D01*
X134166668Y-118783333D01*
X134214287Y-118878571D01*
X134214287Y-119402381D01*
X128166667Y-114904762D02*
X128309524Y-114952381D01*
X128547620Y-114952381D01*
X128642858Y-114904762D01*
X128690477Y-114857143D01*
X128738096Y-114761905D01*
X128738096Y-114666667D01*
X128690477Y-114571429D01*
X128642858Y-114523810D01*
X128547620Y-114476190D01*
X128357143Y-114428571D01*
X128261905Y-114380952D01*
X128214286Y-114333333D01*
X128166667Y-114238095D01*
X128166667Y-114142857D01*
X128214286Y-114047619D01*
X128261905Y-114000000D01*
X128357143Y-113952381D01*
X128595239Y-113952381D01*
X128738096Y-114000000D01*
X129071429Y-113952381D02*
X129309524Y-114952381D01*
X129500001Y-114238095D01*
X129690477Y-114952381D01*
X129928572Y-113952381D01*
X130833334Y-114952381D02*
X130261905Y-114952381D01*
X130547619Y-114952381D02*
X130547619Y-113952381D01*
X130452381Y-114095238D01*
X130357143Y-114190476D01*
X130261905Y-114238095D01*
X124100000Y-93766667D02*
X124576191Y-93766667D01*
X124004762Y-94052381D02*
X124338095Y-93052381D01*
X124671429Y-94052381D01*
X124909524Y-93052381D02*
X125576191Y-93052381D01*
X125147619Y-94052381D01*
X126480953Y-94052381D02*
X125909524Y-94052381D01*
X126195238Y-94052381D02*
X126195238Y-93052381D01*
X126100000Y-93195238D01*
X126004762Y-93290476D01*
X125909524Y-93338095D01*
X127100000Y-93052381D02*
X127195239Y-93052381D01*
X127290477Y-93100000D01*
X127338096Y-93147619D01*
X127385715Y-93242857D01*
X127433334Y-93433333D01*
X127433334Y-93671429D01*
X127385715Y-93861905D01*
X127338096Y-93957143D01*
X127290477Y-94004762D01*
X127195239Y-94052381D01*
X127100000Y-94052381D01*
X127004762Y-94004762D01*
X126957143Y-93957143D01*
X126909524Y-93861905D01*
X126861905Y-93671429D01*
X126861905Y-93433333D01*
X126909524Y-93242857D01*
X126957143Y-93147619D01*
X127004762Y-93100000D01*
X127100000Y-93052381D01*
X128338096Y-93052381D02*
X127861905Y-93052381D01*
X127814286Y-93528571D01*
X127861905Y-93480952D01*
X127957143Y-93433333D01*
X128195239Y-93433333D01*
X128290477Y-93480952D01*
X128338096Y-93528571D01*
X128385715Y-93623810D01*
X128385715Y-93861905D01*
X128338096Y-93957143D01*
X128290477Y-94004762D01*
X128195239Y-94052381D01*
X127957143Y-94052381D01*
X127861905Y-94004762D01*
X127814286Y-93957143D01*
X128814286Y-93671429D02*
X129576191Y-93671429D01*
X130052381Y-94052381D02*
X130052381Y-93052381D01*
X130052381Y-93528571D02*
X130623810Y-93528571D01*
X130623810Y-94052381D02*
X130623810Y-93052381D01*
X131528572Y-93385714D02*
X131528572Y-94052381D01*
X131100000Y-93385714D02*
X131100000Y-93909524D01*
X131147619Y-94004762D01*
X131242857Y-94052381D01*
X131385715Y-94052381D01*
X131480953Y-94004762D01*
X131528572Y-93957143D01*
X132004762Y-94052381D02*
X132004762Y-93052381D01*
X132004762Y-93433333D02*
X132100000Y-93385714D01*
X132290477Y-93385714D01*
X132385715Y-93433333D01*
X132433334Y-93480952D01*
X132480953Y-93576190D01*
X132480953Y-93861905D01*
X132433334Y-93957143D01*
X132385715Y-94004762D01*
X132290477Y-94052381D01*
X132100000Y-94052381D01*
X132004762Y-94004762D01*
X132861905Y-94004762D02*
X132957143Y-94052381D01*
X133147619Y-94052381D01*
X133242858Y-94004762D01*
X133290477Y-93909524D01*
X133290477Y-93861905D01*
X133242858Y-93766667D01*
X133147619Y-93719048D01*
X133004762Y-93719048D01*
X132909524Y-93671429D01*
X132861905Y-93576190D01*
X132861905Y-93528571D01*
X132909524Y-93433333D01*
X133004762Y-93385714D01*
X133147619Y-93385714D01*
X133242858Y-93433333D01*
X134147620Y-94052381D02*
X134147620Y-93528571D01*
X134100001Y-93433333D01*
X134004763Y-93385714D01*
X133814286Y-93385714D01*
X133719048Y-93433333D01*
X134147620Y-94004762D02*
X134052382Y-94052381D01*
X133814286Y-94052381D01*
X133719048Y-94004762D01*
X133671429Y-93909524D01*
X133671429Y-93814286D01*
X133719048Y-93719048D01*
X133814286Y-93671429D01*
X134052382Y-93671429D01*
X134147620Y-93623810D01*
X134623810Y-93385714D02*
X134623810Y-94052381D01*
X134623810Y-93480952D02*
X134671429Y-93433333D01*
X134766667Y-93385714D01*
X134909525Y-93385714D01*
X135004763Y-93433333D01*
X135052382Y-93528571D01*
X135052382Y-94052381D01*
X145444762Y-108602381D02*
X144968571Y-108602381D01*
X144968571Y-107602381D01*
X145682857Y-107602381D02*
X146349524Y-107602381D01*
X145920952Y-108602381D01*
X146873333Y-108030952D02*
X146778095Y-107983333D01*
X146730476Y-107935714D01*
X146682857Y-107840476D01*
X146682857Y-107792857D01*
X146730476Y-107697619D01*
X146778095Y-107650000D01*
X146873333Y-107602381D01*
X147063810Y-107602381D01*
X147159048Y-107650000D01*
X147206667Y-107697619D01*
X147254286Y-107792857D01*
X147254286Y-107840476D01*
X147206667Y-107935714D01*
X147159048Y-107983333D01*
X147063810Y-108030952D01*
X146873333Y-108030952D01*
X146778095Y-108078571D01*
X146730476Y-108126190D01*
X146682857Y-108221429D01*
X146682857Y-108411905D01*
X146730476Y-108507143D01*
X146778095Y-108554762D01*
X146873333Y-108602381D01*
X147063810Y-108602381D01*
X147159048Y-108554762D01*
X147206667Y-108507143D01*
X147254286Y-108411905D01*
X147254286Y-108221429D01*
X147206667Y-108126190D01*
X147159048Y-108078571D01*
X147063810Y-108030952D01*
X147873333Y-107602381D02*
X147968572Y-107602381D01*
X148063810Y-107650000D01*
X148111429Y-107697619D01*
X148159048Y-107792857D01*
X148206667Y-107983333D01*
X148206667Y-108221429D01*
X148159048Y-108411905D01*
X148111429Y-108507143D01*
X148063810Y-108554762D01*
X147968572Y-108602381D01*
X147873333Y-108602381D01*
X147778095Y-108554762D01*
X147730476Y-108507143D01*
X147682857Y-108411905D01*
X147635238Y-108221429D01*
X147635238Y-107983333D01*
X147682857Y-107792857D01*
X147730476Y-107697619D01*
X147778095Y-107650000D01*
X147873333Y-107602381D01*
X149111429Y-107602381D02*
X148635238Y-107602381D01*
X148587619Y-108078571D01*
X148635238Y-108030952D01*
X148730476Y-107983333D01*
X148968572Y-107983333D01*
X149063810Y-108030952D01*
X149111429Y-108078571D01*
X149159048Y-108173810D01*
X149159048Y-108411905D01*
X149111429Y-108507143D01*
X149063810Y-108554762D01*
X148968572Y-108602381D01*
X148730476Y-108602381D01*
X148635238Y-108554762D01*
X148587619Y-108507143D01*
X146278095Y-85122381D02*
X146278095Y-85931905D01*
X146325714Y-86027143D01*
X146373333Y-86074762D01*
X146468571Y-86122381D01*
X146659048Y-86122381D01*
X146754286Y-86074762D01*
X146801905Y-86027143D01*
X146849524Y-85931905D01*
X146849524Y-85122381D01*
X147849524Y-86122381D02*
X147278095Y-86122381D01*
X147563809Y-86122381D02*
X147563809Y-85122381D01*
X147468571Y-85265238D01*
X147373333Y-85360476D01*
X147278095Y-85408095D01*
X126016191Y-105352381D02*
X125540000Y-105352381D01*
X125540000Y-104352381D01*
X126349524Y-105352381D02*
X126349524Y-104352381D01*
X126587619Y-104352381D01*
X126730477Y-104400000D01*
X126825715Y-104495238D01*
X126873334Y-104590476D01*
X126920953Y-104780952D01*
X126920953Y-104923810D01*
X126873334Y-105114286D01*
X126825715Y-105209524D01*
X126730477Y-105304762D01*
X126587619Y-105352381D01*
X126349524Y-105352381D01*
X127873334Y-105352381D02*
X127301905Y-105352381D01*
X127587619Y-105352381D02*
X127587619Y-104352381D01*
X127492381Y-104495238D01*
X127397143Y-104590476D01*
X127301905Y-104638095D01*
X128825715Y-105352381D02*
X128254286Y-105352381D01*
X128540000Y-105352381D02*
X128540000Y-104352381D01*
X128444762Y-104495238D01*
X128349524Y-104590476D01*
X128254286Y-104638095D01*
X129778096Y-105352381D02*
X129206667Y-105352381D01*
X129492381Y-105352381D02*
X129492381Y-104352381D01*
X129397143Y-104495238D01*
X129301905Y-104590476D01*
X129206667Y-104638095D01*
X130111429Y-104352381D02*
X130778096Y-104352381D01*
X130349524Y-105352381D01*
X131111429Y-105304762D02*
X131254286Y-105352381D01*
X131492382Y-105352381D01*
X131587620Y-105304762D01*
X131635239Y-105257143D01*
X131682858Y-105161905D01*
X131682858Y-105066667D01*
X131635239Y-104971429D01*
X131587620Y-104923810D01*
X131492382Y-104876190D01*
X131301905Y-104828571D01*
X131206667Y-104780952D01*
X131159048Y-104733333D01*
X131111429Y-104638095D01*
X131111429Y-104542857D01*
X131159048Y-104447619D01*
X131206667Y-104400000D01*
X131301905Y-104352381D01*
X131540001Y-104352381D01*
X131682858Y-104400000D01*
X132016191Y-104352381D02*
X132635239Y-104352381D01*
X132301905Y-104733333D01*
X132444763Y-104733333D01*
X132540001Y-104780952D01*
X132587620Y-104828571D01*
X132635239Y-104923810D01*
X132635239Y-105161905D01*
X132587620Y-105257143D01*
X132540001Y-105304762D01*
X132444763Y-105352381D01*
X132159048Y-105352381D01*
X132063810Y-105304762D01*
X132016191Y-105257143D01*
X132968572Y-104352381D02*
X133587620Y-104352381D01*
X133254286Y-104733333D01*
X133397144Y-104733333D01*
X133492382Y-104780952D01*
X133540001Y-104828571D01*
X133587620Y-104923810D01*
X133587620Y-105161905D01*
X133540001Y-105257143D01*
X133492382Y-105304762D01*
X133397144Y-105352381D01*
X133111429Y-105352381D01*
X133016191Y-105304762D01*
X132968572Y-105257143D01*
X128778095Y-81872381D02*
X128778095Y-82681905D01*
X128825714Y-82777143D01*
X128873333Y-82824762D01*
X128968571Y-82872381D01*
X129159048Y-82872381D01*
X129254286Y-82824762D01*
X129301905Y-82777143D01*
X129349524Y-82681905D01*
X129349524Y-81872381D01*
X129778095Y-81967619D02*
X129825714Y-81920000D01*
X129920952Y-81872381D01*
X130159048Y-81872381D01*
X130254286Y-81920000D01*
X130301905Y-81967619D01*
X130349524Y-82062857D01*
X130349524Y-82158095D01*
X130301905Y-82300952D01*
X129730476Y-82872381D01*
X130349524Y-82872381D01*
X144236190Y-93532381D02*
X144236190Y-92532381D01*
X144807619Y-93532381D01*
X144807619Y-92532381D01*
X145855238Y-93532381D02*
X145521904Y-93056190D01*
X145283809Y-93532381D02*
X145283809Y-92532381D01*
X145664762Y-92532381D01*
X145760000Y-92580000D01*
X145807619Y-92627619D01*
X145855238Y-92722857D01*
X145855238Y-92865714D01*
X145807619Y-92960952D01*
X145760000Y-93008571D01*
X145664762Y-93056190D01*
X145283809Y-93056190D01*
X146617143Y-93008571D02*
X146283809Y-93008571D01*
X146283809Y-93532381D02*
X146283809Y-92532381D01*
X146760000Y-92532381D01*
X147093333Y-92627619D02*
X147140952Y-92580000D01*
X147236190Y-92532381D01*
X147474286Y-92532381D01*
X147569524Y-92580000D01*
X147617143Y-92627619D01*
X147664762Y-92722857D01*
X147664762Y-92818095D01*
X147617143Y-92960952D01*
X147045714Y-93532381D01*
X147664762Y-93532381D01*
X148521905Y-92865714D02*
X148521905Y-93532381D01*
X148283809Y-92484762D02*
X148045714Y-93199048D01*
X148664762Y-93199048D01*
X149521905Y-93532381D02*
X149045714Y-93532381D01*
X149045714Y-92532381D01*
X150045714Y-92532381D02*
X150140953Y-92532381D01*
X150236191Y-92580000D01*
X150283810Y-92627619D01*
X150331429Y-92722857D01*
X150379048Y-92913333D01*
X150379048Y-93151429D01*
X150331429Y-93341905D01*
X150283810Y-93437143D01*
X150236191Y-93484762D01*
X150140953Y-93532381D01*
X150045714Y-93532381D01*
X149950476Y-93484762D01*
X149902857Y-93437143D01*
X149855238Y-93341905D01*
X149807619Y-93151429D01*
X149807619Y-92913333D01*
X149855238Y-92722857D01*
X149902857Y-92627619D01*
X149950476Y-92580000D01*
X150045714Y-92532381D01*
X151331429Y-93532381D02*
X150760000Y-93532381D01*
X151045714Y-93532381D02*
X151045714Y-92532381D01*
X150950476Y-92675238D01*
X150855238Y-92770476D01*
X150760000Y-92818095D01*
M02*
