G04 #@! TF.FileFunction,Soldermask,Bot*
%FSLAX46Y46*%
G04 Gerber Fmt 4.6, Leading zero omitted, Abs format (unit mm)*
G04 Created by KiCad (PCBNEW 4.0.7) date 07/08/18 15:45:41*
%MOMM*%
%LPD*%
G01*
G04 APERTURE LIST*
%ADD10C,0.100000*%
%ADD11R,1.600000X1.600000*%
%ADD12C,1.600000*%
%ADD13O,1.600000X1.600000*%
%ADD14C,1.780000*%
%ADD15R,2.000000X2.000000*%
%ADD16O,2.000000X2.000000*%
%ADD17R,1.800000X1.800000*%
%ADD18C,1.800000*%
%ADD19C,1.400000*%
%ADD20R,1.700000X1.700000*%
%ADD21O,1.700000X1.700000*%
%ADD22O,1.400000X1.400000*%
%ADD23C,2.000000*%
%ADD24R,1.524000X1.524000*%
%ADD25C,1.524000*%
%ADD26O,3.500000X3.500000*%
%ADD27O,1.800000X1.800000*%
%ADD28C,1.500000*%
G04 APERTURE END LIST*
D10*
D11*
X141000000Y-79250000D03*
D12*
X143500000Y-79250000D03*
D11*
X141000000Y-126000000D03*
D12*
X143500000Y-126000000D03*
D11*
X147000000Y-126000000D03*
D12*
X149500000Y-126000000D03*
D11*
X122000000Y-124000000D03*
D13*
X137240000Y-90980000D03*
X122000000Y-121460000D03*
X137240000Y-93520000D03*
X122000000Y-118920000D03*
X137240000Y-96060000D03*
X122000000Y-116380000D03*
X137240000Y-98600000D03*
X122000000Y-113840000D03*
X137240000Y-101140000D03*
X122000000Y-111300000D03*
X137240000Y-103680000D03*
X122000000Y-108760000D03*
X137240000Y-106220000D03*
X122000000Y-106220000D03*
X137240000Y-108760000D03*
X122000000Y-103680000D03*
X137240000Y-111300000D03*
X122000000Y-101140000D03*
X137240000Y-113840000D03*
X122000000Y-98600000D03*
X137240000Y-116380000D03*
X122000000Y-96060000D03*
X137240000Y-118920000D03*
X122000000Y-93520000D03*
X137240000Y-121460000D03*
X122000000Y-90980000D03*
X137240000Y-124000000D03*
X122000000Y-88440000D03*
X137240000Y-88440000D03*
D14*
X122000000Y-126540000D03*
X137240000Y-126540000D03*
X137240000Y-85900000D03*
X122000000Y-85900000D03*
D15*
X141750000Y-110250000D03*
D16*
X141750000Y-115330000D03*
D17*
X133000000Y-108250000D03*
D18*
X130460000Y-108250000D03*
D17*
X128250000Y-108250000D03*
D18*
X125710000Y-108250000D03*
D19*
X125790000Y-125940000D03*
X133410000Y-125940000D03*
X125790000Y-123400000D03*
X133410000Y-123400000D03*
X125790000Y-120860000D03*
X133410000Y-120860000D03*
D20*
X155000000Y-115000000D03*
D21*
X155000000Y-117540000D03*
X155000000Y-120080000D03*
X155000000Y-122620000D03*
X155000000Y-125160000D03*
D19*
X123500000Y-82250000D03*
D22*
X123500000Y-77170000D03*
D19*
X127500000Y-82250000D03*
D22*
X127500000Y-77170000D03*
D19*
X131500000Y-82250000D03*
D22*
X131500000Y-77170000D03*
D19*
X135500000Y-82250000D03*
D22*
X135500000Y-77170000D03*
D23*
X126250000Y-116750000D03*
X126250000Y-112250000D03*
X132750000Y-116750000D03*
X132750000Y-112250000D03*
D24*
X136600000Y-74600000D03*
D25*
X134600000Y-74600000D03*
X132600000Y-74600000D03*
X130600000Y-74600000D03*
X128600000Y-74600000D03*
X126600000Y-74600000D03*
X124600000Y-74600000D03*
X122600000Y-74600000D03*
D26*
X147040000Y-89590000D03*
D17*
X144500000Y-106250000D03*
D27*
X147040000Y-106250000D03*
X149580000Y-106250000D03*
D26*
X129540000Y-86340000D03*
D17*
X127000000Y-103000000D03*
D27*
X129540000Y-103000000D03*
X132080000Y-103000000D03*
D28*
X140050000Y-84750000D03*
X140050000Y-74750000D03*
X142590000Y-84750000D03*
X142590000Y-74750000D03*
X145130000Y-84750000D03*
X145130000Y-74750000D03*
X147670000Y-84750000D03*
X147670000Y-74750000D03*
X150210000Y-84750000D03*
X150210000Y-74750000D03*
X152750000Y-84750000D03*
X152750000Y-74750000D03*
D24*
X142950000Y-121000000D03*
D25*
X142950000Y-118460000D03*
X145490000Y-121000000D03*
X145490000Y-118460000D03*
X148030000Y-121000000D03*
X148030000Y-118460000D03*
X150570000Y-121000000D03*
X150570000Y-118460000D03*
M02*
