G04 #@! TF.FileFunction,Other,User*
%FSLAX46Y46*%
G04 Gerber Fmt 4.6, Leading zero omitted, Abs format (unit mm)*
G04 Created by KiCad (PCBNEW 4.0.7) date 07/08/18 15:45:41*
%MOMM*%
%LPD*%
G01*
G04 APERTURE LIST*
%ADD10C,0.100000*%
%ADD11C,0.050000*%
G04 APERTURE END LIST*
D10*
D11*
X139650000Y-76650000D02*
X139650000Y-81850000D01*
X139650000Y-81850000D02*
X144850000Y-81850000D01*
X144850000Y-81850000D02*
X144850000Y-76650000D01*
X144850000Y-76650000D02*
X139650000Y-76650000D01*
X139650000Y-123400000D02*
X139650000Y-128600000D01*
X139650000Y-128600000D02*
X144850000Y-128600000D01*
X144850000Y-128600000D02*
X144850000Y-123400000D01*
X144850000Y-123400000D02*
X139650000Y-123400000D01*
X145650000Y-123400000D02*
X145650000Y-128600000D01*
X145650000Y-128600000D02*
X150850000Y-128600000D01*
X150850000Y-128600000D02*
X150850000Y-123400000D01*
X150850000Y-123400000D02*
X145650000Y-123400000D01*
X143400000Y-109000000D02*
X140100000Y-109000000D01*
X140100000Y-109000000D02*
X140100000Y-116600000D01*
X140100000Y-116600000D02*
X143400000Y-116600000D01*
X143400000Y-116600000D02*
X143400000Y-109000000D01*
X134150000Y-110500000D02*
X134150000Y-106000000D01*
X134150000Y-106000000D02*
X129300000Y-106000000D01*
X129300000Y-106000000D02*
X129300000Y-110500000D01*
X129300000Y-110500000D02*
X134150000Y-110500000D01*
X129400000Y-110500000D02*
X129400000Y-106000000D01*
X129400000Y-106000000D02*
X124550000Y-106000000D01*
X124550000Y-106000000D02*
X124550000Y-110500000D01*
X124550000Y-110500000D02*
X129400000Y-110500000D01*
X153200000Y-113200000D02*
X153200000Y-126950000D01*
X153200000Y-126950000D02*
X156800000Y-126950000D01*
X156800000Y-126950000D02*
X156800000Y-113200000D01*
X156800000Y-113200000D02*
X153200000Y-113200000D01*
X122350000Y-83200000D02*
X124650000Y-83200000D01*
X124650000Y-83200000D02*
X124650000Y-76200000D01*
X124650000Y-76200000D02*
X122350000Y-76200000D01*
X122350000Y-76200000D02*
X122350000Y-83200000D01*
X126350000Y-83200000D02*
X128650000Y-83200000D01*
X128650000Y-83200000D02*
X128650000Y-76200000D01*
X128650000Y-76200000D02*
X126350000Y-76200000D01*
X126350000Y-76200000D02*
X126350000Y-83200000D01*
X130350000Y-83200000D02*
X132650000Y-83200000D01*
X132650000Y-83200000D02*
X132650000Y-76200000D01*
X132650000Y-76200000D02*
X130350000Y-76200000D01*
X130350000Y-76200000D02*
X130350000Y-83200000D01*
X134350000Y-83200000D02*
X136650000Y-83200000D01*
X136650000Y-83200000D02*
X136650000Y-76200000D01*
X136650000Y-76200000D02*
X134350000Y-76200000D01*
X134350000Y-76200000D02*
X134350000Y-83200000D01*
X134000000Y-118250000D02*
X134250000Y-118250000D01*
X134250000Y-118250000D02*
X134250000Y-118000000D01*
X134000000Y-110750000D02*
X134250000Y-110750000D01*
X134250000Y-110750000D02*
X134250000Y-111000000D01*
X124750000Y-111000000D02*
X124750000Y-110750000D01*
X124750000Y-110750000D02*
X125000000Y-110750000D01*
X124750000Y-118000000D02*
X124750000Y-118250000D01*
X124750000Y-118250000D02*
X125000000Y-118250000D01*
X125000000Y-110750000D02*
X134000000Y-110750000D01*
X124750000Y-118000000D02*
X124750000Y-111000000D01*
X134000000Y-118250000D02*
X125000000Y-118250000D01*
X134250000Y-111000000D02*
X134250000Y-118000000D01*
X141790000Y-86540000D02*
X141790000Y-107400000D01*
X141790000Y-107400000D02*
X152290000Y-107400000D01*
X152290000Y-107400000D02*
X152290000Y-86540000D01*
X152290000Y-86540000D02*
X141790000Y-86540000D01*
X124290000Y-83290000D02*
X124290000Y-104150000D01*
X124290000Y-104150000D02*
X134790000Y-104150000D01*
X134790000Y-104150000D02*
X134790000Y-83290000D01*
X134790000Y-83290000D02*
X124290000Y-83290000D01*
M02*
