<?xml version="1.0" standalone="no"?>
 <!DOCTYPE svg PUBLIC "-//W3C//DTD SVG 1.1//EN" 
 "http://www.w3.org/Graphics/SVG/1.1/DTD/svg11.dtd"> 
<svg xmlns="http://www.w3.org/2000/svg" version="1.1" 
    width="4.1275cm" height="5.60832cm" viewBox="0 0 16250 22080 ">
<title>SVG Picture created as TheONETXModule-Eco2.User.svg date 2018/03/05 21:44:07 </title>
  <desc>Picture generated by PCBNEW </desc>
<g style="fill:#000000; fill-opacity:1;stroke:#000000; stroke-opacity:1;
stroke-linecap:round; stroke-linejoin:round; "
 transform="translate(0 0) scale(1 1)">
</g>
<g style="fill:#000000; fill-opacity:0.0; 
stroke:#000000; stroke-width:-0.000393701; stroke-opacity:1; 
stroke-linecap:round; stroke-linejoin:round;">
</g>
<g style="fill:#000000; fill-opacity:0.0; 
stroke:#000000; stroke-width:39.3701; stroke-opacity:1; 
stroke-linecap:round; stroke-linejoin:round;">
<path d="M15053 19
L1273 19
" />
<path d="M15053.1 19.6854 A1181.1 1181.1 0.0 0 0 16234.3 1200.79 " />
<path d="M92.5197 1200.79 A1181.1 1181.1 0.0 0 0 1273.62 19.6854 " />
<path d="M92 7106
L92 1200
" />
<path d="M16234 7106
L16234 1200
" />
<path d="M1273 7106
L92 7106
" />
<path d="M15053 7106
L16234 7106
" />
<path d="M1273 14980
L1273 7106
" />
<path d="M15053 14980
L15053 7106
" />
<path d="M92 14980
L1273 14980
" />
<path d="M16234 14980
L15053 14980
" />
<path d="M92 22066
L92 14980
" />
<path d="M16234 22066
L16234 14980
" />
<path d="M92 22066
L16234 22066
" />
</g> 
</svg>
