<?xml version="1.0" standalone="no"?>
 <!DOCTYPE svg PUBLIC "-//W3C//DTD SVG 1.1//EN" 
 "http://www.w3.org/Graphics/SVG/1.1/DTD/svg11.dtd"> 
<svg xmlns="http://www.w3.org/2000/svg" version="1.1" 
    width="4.1275cm" height="5.60832cm" viewBox="0 0 16250 22080 ">
<title>SVG Picture created as TheONETXModule-B.Fab.svg date 2018/03/05 21:44:07 </title>
  <desc>Picture generated by PCBNEW </desc>
<g style="fill:#000000; fill-opacity:1;stroke:#000000; stroke-opacity:1;
stroke-linecap:round; stroke-linejoin:round; "
 transform="translate(0 0) scale(1 1)">
</g>
<g style="fill:#000000; fill-opacity:0.0; 
stroke:#000000; stroke-width:-0.000393701; stroke-opacity:1; 
stroke-linecap:round; stroke-linejoin:round;">
</g>
<g style="fill:#000000; fill-opacity:0.0; 
stroke:#000000; stroke-width:39.3701; stroke-opacity:1; 
stroke-linecap:round; stroke-linejoin:round;">
<path d="M15053 19
L1273 19
" />
<path d="M15053.1 19.6854 A1181.1 1181.1 0.0 0 0 16234.3 1200.79 " />
<path d="M92.5197 1200.79 A1181.1 1181.1 0.0 0 0 1273.62 19.6854 " />
<path d="M92 7106
L92 1200
" />
<path d="M16234 7106
L16234 1200
" />
<path d="M1273 7106
L92 7106
" />
<path d="M15053 7106
L16234 7106
" />
<path d="M1273 14980
L1273 7106
" />
<path d="M15053 14980
L15053 7106
" />
<path d="M92 14980
L1273 14980
" />
<path d="M16234 14980
L15053 14980
" />
<path d="M92 22066
L92 14980
" />
<path d="M16234 22066
L16234 14980
" />
<path d="M92 22066
L16234 22066
" />
</g>
<g style="fill:#000000; fill-opacity:0.0; 
stroke:#000000; stroke-width:59.0551; stroke-opacity:1; 
stroke-linecap:round; stroke-linejoin:round;">
<path d="M5528 11740
L5528 11928
" />
<path d="M5640 11703
L5247 11834
L5640 11965
" />
<path d="M5640 12097
L5378 12097
" />
<path d="M5453 12097
L5415 12115
L5396 12134
L5378 12172
L5378 12209
" />
<path d="M5640 12509
L5247 12509
" />
<path d="M5621 12509
L5640 12472
L5640 12397
L5621 12359
L5603 12340
L5565 12322
L5453 12322
L5415 12340
L5396 12359
L5378 12397
L5378 12472
L5396 12509
" />
<path d="M5378 12865
L5640 12865
" />
<path d="M5378 12697
L5584 12697
L5621 12715
L5640 12753
L5640 12809
L5621 12847
L5603 12865
" />
<path d="M5640 13053
L5378 13053
" />
<path d="M5247 13053
L5265 13034
L5284 13053
L5265 13071
L5247 13053
L5284 13053
" />
<path d="M5378 13240
L5640 13240
" />
<path d="M5415 13240
L5396 13259
L5378 13296
L5378 13353
L5396 13390
L5434 13409
L5640 13409
" />
<path d="M5640 13653
L5621 13615
L5603 13596
L5565 13578
L5453 13578
L5415 13596
L5396 13615
L5378 13653
L5378 13709
L5396 13746
L5415 13765
L5453 13784
L5565 13784
L5603 13765
L5621 13746
L5640 13709
L5640 13653
" />
<path d="M5678 13859
L5678 14159
" />
<path d="M5640 14253
L5247 14253
L5640 14478
L5247 14478
" />
<path d="M5640 14834
L5434 14834
L5396 14815
L5378 14778
L5378 14703
L5396 14665
" />
<path d="M5621 14834
L5640 14796
L5640 14703
L5621 14665
L5584 14646
L5546 14646
L5509 14665
L5490 14703
L5490 14796
L5471 14834
" />
<path d="M5378 15021
L5640 15021
" />
<path d="M5415 15021
L5396 15040
L5378 15077
L5378 15134
L5396 15171
L5434 15190
L5640 15190
" />
<path d="M5640 15434
L5621 15396
L5603 15377
L5565 15359
L5453 15359
L5415 15377
L5396 15396
L5378 15434
L5378 15490
L5396 15527
L5415 15546
L5453 15565
L5565 15565
L5603 15546
L5621 15527
L5640 15490
L5640 15434
" />
<path d="M5678 15640
L5678 15940
" />
<path d="M5378 15996
L5640 16090
L5378 16184
" />
<path d="M5247 16296
L5247 16540
L5396 16409
L5396 16465
L5415 16502
L5434 16521
L5471 16540
L5565 16540
L5603 16521
L5621 16502
L5640 16465
L5640 16352
L5621 16315
L5603 16296
" />
<path d="M5603 16709
L5621 16727
L5640 16709
L5621 16690
L5603 16709
L5640 16709
" />
<path d="M5640 16859
L5378 17065
" />
<path d="M5378 16859
L5640 17065
" />
<path d="M4528 13612
L4528 13799
" />
<path d="M4640 13574
L4247 13706
L4640 13837
" />
<path d="M4640 14174
L4640 13949
" />
<path d="M4640 14062
L4247 14062
L4303 14024
L4340 13987
L4359 13949
" />
<path d="M14837 18817
L15118 18817
L15175 18798
L15212 18761
L15231 18705
L15231 18667
" />
<path d="M15231 19211
L15231 18986
" />
<path d="M15231 19098
L14837 19098
L14893 19061
L14931 19023
L14950 18986
" />
<path d="M12137 15355
L12325 15355
L12325 14961
" />
<path d="M12044 14961
L11781 14961
L11950 15355
" />
<path d="M11575 15130
L11612 15111
L11631 15092
L11650 15055
L11650 15036
L11631 14999
L11612 14980
L11575 14961
L11500 14961
L11462 14980
L11444 14999
L11425 15036
L11425 15055
L11444 15092
L11462 15111
L11500 15130
L11575 15130
L11612 15149
L11631 15167
L11650 15205
L11650 15280
L11631 15317
L11612 15336
L11575 15355
L11500 15355
L11462 15336
L11444 15317
L11425 15280
L11425 15205
L11444 15167
L11462 15149
L11500 15130
" />
<path d="M11181 14961
L11144 14961
L11106 14980
L11088 14999
L11069 15036
L11050 15111
L11050 15205
L11069 15280
L11088 15317
L11106 15336
L11144 15355
L11181 15355
L11219 15336
L11238 15317
L11256 15280
L11275 15205
L11275 15111
L11256 15036
L11238 14999
L11219 14980
L11181 14961
" />
<path d="M10694 14961
L10881 14961
L10900 15149
L10881 15130
L10844 15111
L10750 15111
L10713 15130
L10694 15149
L10675 15186
L10675 15280
L10694 15317
L10713 15336
L10750 15355
L10844 15355
L10881 15336
L10900 15317
" />
<path d="M11809 6111
L11809 6429
L11791 6467
L11772 6486
L11734 6504
L11659 6504
L11622 6486
L11603 6467
L11584 6429
L11584 6111
" />
<path d="M11191 6504
L11416 6504
" />
<path d="M11303 6504
L11303 6111
L11341 6167
L11378 6204
L11416 6223
" />
<path d="M13399 2615
L13624 2615
L13624 2142
" />
<path d="M13174 2615
L13219 2592
L13242 2570
L13264 2525
L13264 2390
L13242 2345
L13219 2322
L13174 2300
L13107 2300
L13062 2322
L13039 2345
L13017 2390
L13017 2525
L13039 2570
L13062 2592
L13107 2615
L13174 2615
" />
<path d="M12612 2300
L12612 2682
L12634 2727
L12657 2750
L12702 2772
L12769 2772
L12814 2750
" />
<path d="M12612 2592
L12657 2615
L12747 2615
L12792 2592
L12814 2570
L12837 2525
L12837 2390
L12814 2345
L12792 2322
L12747 2300
L12657 2300
L12612 2322
" />
<path d="M12387 2615
L12387 2300
" />
<path d="M12387 2142
L12409 2165
L12387 2187
L12364 2165
L12387 2142
L12387 2187
" />
<path d="M11959 2592
L12004 2615
L12094 2615
L12139 2592
L12162 2570
L12184 2525
L12184 2390
L12162 2345
L12139 2322
L12094 2300
L12004 2300
L11959 2322
" />
<path d="M11779 2592
L11712 2615
L11599 2615
L11554 2592
L11532 2570
L11509 2525
L11509 2480
L11532 2435
L11554 2412
L11599 2390
L11689 2367
L11734 2345
L11757 2322
L11779 2277
L11779 2232
L11757 2187
L11734 2165
L11689 2142
L11577 2142
L11509 2165
" />
<path d="M11307 2615
L11307 2142
" />
<path d="M11104 2615
L11104 2367
L11127 2322
L11172 2300
L11239 2300
L11284 2322
L11307 2345
" />
<path d="M10879 2615
L10879 2300
" />
<path d="M10879 2142
L10902 2165
L10879 2187
L10857 2165
L10879 2142
L10879 2187
" />
<path d="M10722 2300
L10542 2300
" />
<path d="M10654 2615
L10654 2210
L10632 2165
L10587 2142
L10542 2142
" />
<path d="M10452 2300
L10272 2300
" />
<path d="M10384 2142
L10384 2547
L10362 2592
L10317 2615
L10272 2615
" />
</g>
<g style="fill:#000000; fill-opacity:0.0; 
stroke:#000000; stroke-width:39.3701; stroke-opacity:1; 
stroke-linecap:round; stroke-linejoin:round;">
<path d="M3462 7893
L6462 7893
" />
<path d="M6462 7893
L6462 3893
" />
<path d="M6462 3893
L3462 3893
" />
<path d="M3462 3893
L3462 7893
" />
<path d="M8462 4893
L1462 4893
" />
<path d="M1462 4893
L1462 21393
" />
<path d="M1462 21393
L1962 21893
" />
<path d="M1962 21893
L8462 21893
" />
<path d="M8462 21893
L8462 4893
" />
<path d="M15303 16448
L14553 16448
" />
<path d="M14553 16448
L14553 21448
" />
<path d="M14553 21448
L15553 21448
" />
<path d="M15553 21448
L15553 16698
" />
<path d="M15553 16698
L15303 16448
" />
<path d="M13478 9287
L13478 6767
" />
<path d="M13478 6767
L9541 6767
" />
<path d="M9541 6767
L9541 9287
" />
<path d="M9541 9287
L13478 9287
" />
<path d="M13478 12929
L13478 9287
" />
<path d="M13478 9287
L9541 9287
" />
<path d="M9541 9287
L9541 12929
" />
<path d="M9541 12929
L13478 12929
" />
<path d="M12509 12929
L12509 14429
" />
<path d="M11509 12929
L11509 14429
" />
<path d="M10509 12929
L10509 14429
" />
<circle cx="11509.8" cy="7870.08" r="728.346" /> 
</g> 
</svg>
