<?xml version="1.0" standalone="no"?>
 <!DOCTYPE svg PUBLIC "-//W3C//DTD SVG 1.1//EN" 
 "http://www.w3.org/Graphics/SVG/1.1/DTD/svg11.dtd"> 
<svg xmlns="http://www.w3.org/2000/svg" version="1.1" 
    width="4.1275cm" height="5.60832cm" viewBox="0 0 16250 22080 ">
<title>SVG Picture created as TheONETXModule-F.SilkS.svg date 2018/03/05 21:44:07 </title>
  <desc>Picture generated by PCBNEW </desc>
<g style="fill:#000000; fill-opacity:1;stroke:#000000; stroke-opacity:1;
stroke-linecap:round; stroke-linejoin:round; "
 transform="translate(0 0) scale(1 1)">
</g>
<g style="fill:#000000; fill-opacity:0.0; 
stroke:#000000; stroke-width:-0.000393701; stroke-opacity:1; 
stroke-linecap:round; stroke-linejoin:round;">
</g>
<g style="fill:#000000; fill-opacity:0.0; 
stroke:#000000; stroke-width:78.7402; stroke-opacity:1; 
stroke-linecap:round; stroke-linejoin:round;">
<path d="M14974.4 98.4256 A1181.1 1181.1 0.0 0 0 16155.5 1279.53 " />
<path d="M171.26 1279.53 A1181.1 1181.1 0.0 0 0 1352.36 98.4256 " />
<path d="M16155 21988
L171 21988
" />
<path d="M16155 15059
L16155 21988
" />
<path d="M171 15059
L171 21988
" />
<path d="M1352 15059
L1352 7027
" />
<path d="M1352 15059
L171 15059
" />
<path d="M14974 7027
L14974 15059
" />
<path d="M16155 7027
L14974 7027
" />
<path d="M16155 1279
L16155 7027
" />
<path d="M14974 15059
L16155 15059
" />
<path d="M171 7027
L1352 7027
" />
<path d="M171 1279
L171 7027
" />
<path d="M14974 98
L1352 98
" />
</g>
<g style="fill:#000000; fill-opacity:0.0; 
stroke:#000000; stroke-width:39.3701; stroke-opacity:1; 
stroke-linecap:round; stroke-linejoin:round;">
<path d="M15053 19
L1273 19
" />
<path d="M15053.1 19.6854 A1181.1 1181.1 0.0 0 0 16234.3 1200.79 " />
<path d="M92.5197 1200.79 A1181.1 1181.1 0.0 0 0 1273.62 19.6854 " />
<path d="M92 7106
L92 1200
" />
<path d="M16234 7106
L16234 1200
" />
<path d="M1273 7106
L92 7106
" />
<path d="M15053 7106
L16234 7106
" />
<path d="M1273 14980
L1273 7106
" />
<path d="M15053 14980
L15053 7106
" />
<path d="M92 14980
L1273 14980
" />
<path d="M16234 14980
L15053 14980
" />
<path d="M92 22066
L92 14980
" />
<path d="M16234 22066
L16234 14980
" />
<path d="M92 22066
L16234 22066
" />
</g>
<g style="fill:#000000; fill-opacity:0.0; 
stroke:#000000; stroke-width:59.0551; stroke-opacity:1; 
stroke-linecap:round; stroke-linejoin:round;">
<path d="M8785 19325
L8804 19307
L8842 19288
L8935 19288
L8973 19307
L8992 19325
L9010 19363
L9010 19400
L8992 19457
L8767 19682
L9010 19682
" />
<path d="M9160 19325
L9179 19307
L9217 19288
L9310 19288
L9348 19307
L9366 19325
L9385 19363
L9385 19400
L9366 19457
L9142 19682
L9385 19682
" />
<path d="M9723 19419
L9723 19682
" />
<path d="M9554 19419
L9554 19625
L9573 19663
L9610 19682
L9666 19682
L9704 19663
L9723 19644
" />
<path d="M10041 19475
L9910 19475
" />
<path d="M9910 19682
L9910 19288
L10098 19288
" />
<path d="M10454 19682
L10229 19682
" />
<path d="M10341 19682
L10341 19288
L10304 19344
L10266 19382
L10229 19400
" />
<path d="M10675 19325
L10694 19307
L10731 19288
L10825 19288
L10863 19307
L10881 19325
L10900 19363
L10900 19400
L10881 19457
L10656 19682
L10900 19682
" />
<path d="M11050 19325
L11069 19307
L11106 19288
L11200 19288
L11238 19307
L11256 19325
L11275 19363
L11275 19400
L11256 19457
L11031 19682
L11275 19682
" />
<path d="M11612 19419
L11612 19682
" />
<path d="M11444 19419
L11444 19625
L11462 19663
L11500 19682
L11556 19682
L11594 19663
L11612 19644
" />
<path d="M11931 19475
L11800 19475
" />
<path d="M11800 19682
L11800 19288
L11987 19288
" />
<path d="M12119 19325
L12137 19307
L12175 19288
L12269 19288
L12306 19307
L12325 19325
L12344 19363
L12344 19400
L12325 19457
L12100 19682
L12344 19682
" />
<path d="M12565 19325
L12584 19307
L12621 19288
L12715 19288
L12752 19307
L12771 19325
L12790 19363
L12790 19400
L12771 19457
L12546 19682
L12790 19682
" />
<path d="M12940 19325
L12959 19307
L12996 19288
L13090 19288
L13127 19307
L13146 19325
L13165 19363
L13165 19400
L13146 19457
L12921 19682
L13165 19682
" />
<path d="M13502 19419
L13502 19682
" />
<path d="M13333 19419
L13333 19625
L13352 19663
L13390 19682
L13446 19682
L13483 19663
L13502 19644
" />
<path d="M13821 19475
L13690 19475
" />
<path d="M13690 19682
L13690 19288
L13877 19288
" />
<path d="M13990 19288
L14233 19288
L14102 19438
L14158 19438
L14196 19457
L14215 19475
L14233 19513
L14233 19607
L14215 19644
L14196 19663
L14158 19682
L14046 19682
L14008 19663
L13990 19644
" />
<path d="M14040 3202
L14058 3221
L14077 3277
L14077 3314
L14058 3371
L14021 3408
L13983 3427
L13908 3446
L13852 3446
L13777 3427
L13740 3408
L13702 3371
L13684 3314
L13684 3277
L13702 3221
L13721 3202
" />
<path d="M13684 2958
L13684 2883
L13702 2846
L13740 2808
L13815 2790
L13946 2790
L14021 2808
L14058 2846
L14077 2883
L14077 2958
L14058 2996
L14021 3033
L13946 3052
L13815 3052
L13740 3033
L13702 2996
L13684 2958
" />
<path d="M14077 2621
L13684 2621
L14077 2396
L13684 2396
" />
<path d="M14077 2002
L14077 2227
" />
<path d="M14077 2115
L13684 2115
L13740 2152
L13777 2190
L13796 2227
" />
<path d="M4597 20989
L4125 20989
" />
<path d="M4350 20989
L4350 20719
" />
<path d="M4597 20719
L4125 20719
" />
<path d="M4597 20247
L4597 20517
" />
<path d="M4597 20382
L4125 20382
L4192 20427
L4237 20472
L4260 20517
" />
<path d="M522 3022
L335 3153
" />
<path d="M522 3247
L128 3247
L128 3097
L147 3059
L166 3041
L203 3022
L260 3022
L297 3041
L316 3059
L335 3097
L335 3247
" />
<path d="M522 2647
L522 2872
" />
<path d="M522 2759
L128 2759
L185 2797
L222 2834
L241 2872
" />
<path d="M1703 3022
L1516 3153
" />
<path d="M1703 3247
L1309 3247
L1309 3097
L1328 3059
L1347 3041
L1384 3022
L1441 3022
L1478 3041
L1497 3059
L1516 3097
L1516 3247
" />
<path d="M1347 2872
L1328 2853
L1309 2816
L1309 2722
L1328 2684
L1347 2666
L1384 2647
L1422 2647
L1478 2666
L1703 2891
L1703 2647
" />
<path d="M2884 3053
L2697 3185
" />
<path d="M2884 3278
L2491 3278
L2491 3128
L2509 3091
L2528 3072
L2566 3053
L2622 3053
L2659 3072
L2678 3091
L2697 3128
L2697 3278
" />
<path d="M2491 2922
L2491 2678
L2641 2810
L2641 2753
L2659 2716
L2678 2697
L2716 2678
L2809 2678
L2847 2697
L2866 2716
L2884 2753
L2884 2866
L2866 2903
L2847 2922
" />
<path d="M4105 3053
L3917 3185
" />
<path d="M4105 3278
L3711 3278
L3711 3128
L3730 3091
L3749 3072
L3786 3053
L3842 3053
L3880 3072
L3899 3091
L3917 3128
L3917 3278
" />
<path d="M3842 2716
L4105 2716
" />
<path d="M3692 2810
L3974 2903
L3974 2660
" />
<path d="M5247 3053
L5059 3185
" />
<path d="M5247 3278
L4853 3278
L4853 3128
L4872 3091
L4890 3072
L4928 3053
L4984 3053
L5022 3072
L5040 3091
L5059 3128
L5059 3278
" />
<path d="M4853 2697
L4853 2885
L5040 2903
L5022 2885
L5003 2847
L5003 2753
L5022 2716
L5040 2697
L5078 2678
L5172 2678
L5209 2697
L5228 2716
L5247 2753
L5247 2847
L5228 2885
L5209 2903
" />
<path d="M6428 3053
L6240 3185
" />
<path d="M6428 3278
L6034 3278
L6034 3128
L6053 3091
L6071 3072
L6109 3053
L6165 3053
L6203 3072
L6221 3091
L6240 3128
L6240 3278
" />
<path d="M6034 2716
L6034 2791
L6053 2828
L6071 2847
L6128 2885
L6203 2903
L6353 2903
L6390 2885
L6409 2866
L6428 2828
L6428 2753
L6409 2716
L6390 2697
L6353 2678
L6259 2678
L6221 2697
L6203 2716
L6184 2753
L6184 2828
L6203 2866
L6221 2885
L6259 2903
" />
<path d="M7609 3053
L7421 3185
" />
<path d="M7609 3278
L7215 3278
L7215 3128
L7234 3091
L7252 3072
L7290 3053
L7346 3053
L7384 3072
L7402 3091
L7421 3128
L7421 3278
" />
<path d="M7215 2922
L7215 2660
L7609 2828
" />
<path d="M4488 14942
L4545 14961
L4638 14961
L4676 14942
L4695 14924
L4713 14886
L4713 14849
L4695 14811
L4676 14792
L4638 14774
L4563 14755
L4526 14736
L4507 14717
L4488 14680
L4488 14642
L4507 14605
L4526 14586
L4563 14567
L4657 14567
L4713 14586
" />
<path d="M4845 14567
L4938 14961
L5013 14680
L5088 14961
L5182 14567
" />
<path d="M5538 14961
L5313 14961
" />
<path d="M5426 14961
L5426 14567
L5388 14624
L5351 14661
L5313 14680
" />
<path d="M2312 11457
L2537 11457
" />
<path d="M2424 11851
L2424 11457
" />
<path d="M2874 11851
L2649 11851
" />
<path d="M2762 11851
L2762 11457
L2724 11513
L2687 11551
L2649 11570
" />
<path d="M4776 13103
L4776 13422
L4795 13459
L4814 13478
L4851 13497
L4926 13497
L4964 13478
L4983 13459
L5001 13422
L5001 13103
" />
<path d="M5170 13140
L5189 13122
L5226 13103
L5320 13103
L5357 13122
L5376 13140
L5395 13178
L5395 13215
L5376 13272
L5151 13497
L5395 13497
" />
<path d="M11587 8867
L11587 9185
L11606 9223
L11625 9242
L11662 9260
L11737 9260
L11775 9242
L11794 9223
L11812 9185
L11812 8867
" />
<path d="M11962 8867
L12206 8867
L12075 9017
L12131 9017
L12169 9035
L12187 9054
L12206 9092
L12206 9185
L12187 9223
L12169 9242
L12131 9260
L12019 9260
L11981 9242
L11962 9223
" />
</g>
<g style="fill:#000000; fill-opacity:0.0; 
stroke:#000000; stroke-width:47.2441; stroke-opacity:1; 
stroke-linecap:round; stroke-linejoin:round;">
<path d="M10347 20421.6 A822.835 822.835 0.0 0 0 8893.31 20421.3 " />
<path d="M8893.31 21192.9 A822.835 822.835 0.0 0 0 10347 21192.6 " />
<path d="M10347 21192.6 A822.835 822.835 0.0 0 0 10346.8 20421.3 " />
<path d="M9620 20000
L9620 21614
" />
<path d="M9635 20000
L9635 21614
" />
<path d="M9651 20000
L9651 21613
" />
<path d="M9667 20001
L9667 21612
" />
<path d="M9683 20002
L9683 21611
" />
<path d="M9698 20003
L9698 21610
" />
<path d="M9714 20005
L9714 20500
" />
<path d="M9714 21114
L9714 21609
" />
<path d="M9730 20007
L9730 20500
" />
<path d="M9730 21114
L9730 21607
" />
<path d="M9746 20009
L9746 20500
" />
<path d="M9746 21114
L9746 21604
" />
<path d="M9761 20012
L9761 20500
" />
<path d="M9761 21114
L9761 21601
" />
<path d="M9777 20014
L9777 20500
" />
<path d="M9777 21114
L9777 21599
" />
<path d="M9793 20018
L9793 20500
" />
<path d="M9793 21114
L9793 21596
" />
<path d="M9809 20021
L9809 20500
" />
<path d="M9809 21114
L9809 21592
" />
<path d="M9824 20025
L9824 20500
" />
<path d="M9824 21114
L9824 21588
" />
<path d="M9840 20029
L9840 20500
" />
<path d="M9840 21114
L9840 21584
" />
<path d="M9856 20034
L9856 20500
" />
<path d="M9856 21114
L9856 21579
" />
<path d="M9872 20039
L9872 20500
" />
<path d="M9872 21114
L9872 21574
" />
<path d="M9887 20044
L9887 20500
" />
<path d="M9887 21114
L9887 21569
" />
<path d="M9903 20050
L9903 20500
" />
<path d="M9903 21114
L9903 21564
" />
<path d="M9919 20056
L9919 20500
" />
<path d="M9919 21114
L9919 21557
" />
<path d="M9935 20062
L9935 20500
" />
<path d="M9935 21114
L9935 21551
" />
<path d="M9951 20069
L9951 20500
" />
<path d="M9951 21114
L9951 21544
" />
<path d="M9966 20076
L9966 20500
" />
<path d="M9966 21114
L9966 21537
" />
<path d="M9982 20083
L9982 20500
" />
<path d="M9982 21114
L9982 21530
" />
<path d="M9998 20091
L9998 20500
" />
<path d="M9998 21114
L9998 21522
" />
<path d="M10014 20100
L10014 20500
" />
<path d="M10014 21114
L10014 21514
" />
<path d="M10029 20109
L10029 20500
" />
<path d="M10029 21114
L10029 21505
" />
<path d="M10045 20118
L10045 20500
" />
<path d="M10045 21114
L10045 21496
" />
<path d="M10061 20127
L10061 20500
" />
<path d="M10061 21114
L10061 21486
" />
<path d="M10077 20138
L10077 20500
" />
<path d="M10077 21114
L10077 21475
" />
<path d="M10092 20148
L10092 20500
" />
<path d="M10092 21114
L10092 21465
" />
<path d="M10108 20160
L10108 20500
" />
<path d="M10108 21114
L10108 21453
" />
<path d="M10124 20172
L10124 20500
" />
<path d="M10124 21114
L10124 21442
" />
<path d="M10140 20184
L10140 20500
" />
<path d="M10140 21114
L10140 21429
" />
<path d="M10155 20198
L10155 20500
" />
<path d="M10155 21114
L10155 21416
" />
<path d="M10171 20211
L10171 20500
" />
<path d="M10171 21114
L10171 21402
" />
<path d="M10187 20226
L10187 20500
" />
<path d="M10187 21114
L10187 21387
" />
<path d="M10203 20241
L10203 20500
" />
<path d="M10203 21114
L10203 21372
" />
<path d="M10218 20257
L10218 20500
" />
<path d="M10218 21114
L10218 21356
" />
<path d="M10234 20275
L10234 20500
" />
<path d="M10234 21114
L10234 21338
" />
<path d="M10250 20293
L10250 20500
" />
<path d="M10250 21114
L10250 21320
" />
<path d="M10266 20312
L10266 20500
" />
<path d="M10266 21114
L10266 21301
" />
<path d="M10281 20333
L10281 20500
" />
<path d="M10281 21114
L10281 21281
" />
<path d="M10297 20355
L10297 20500
" />
<path d="M10297 21114
L10297 21259
" />
<path d="M10313 20378
L10313 20500
" />
<path d="M10313 21114
L10313 21235
" />
<path d="M10329 20404
L10329 21209
" />
<path d="M10344 20432
L10344 21181
" />
<path d="M10360 20462
L10360 21151
" />
<path d="M10376 20497
L10376 21116
" />
<path d="M10392 20537
L10392 21077
" />
<path d="M10407 20583
L10407 21030
" />
<path d="M10423 20643
L10423 20970
" />
<path d="M10439 20742
L10439 20872
" />
<path d="M8557 20807
L8911 20807
" />
<path d="M8734 20629
L8734 20984
" />
<path d="M12236.8 20421.6 A822.835 822.835 0.0 0 0 10783.1 20421.3 " />
<path d="M10783.1 21192.9 A822.835 822.835 0.0 0 0 12236.8 21192.6 " />
<path d="M12236.8 21192.6 A822.835 822.835 0.0 0 0 12236.6 20421.3 " />
<path d="M11509 20000
L11509 21614
" />
<path d="M11525 20000
L11525 21614
" />
<path d="M11541 20000
L11541 21613
" />
<path d="M11557 20001
L11557 21612
" />
<path d="M11572 20002
L11572 21611
" />
<path d="M11588 20003
L11588 21610
" />
<path d="M11604 20005
L11604 20500
" />
<path d="M11604 21114
L11604 21609
" />
<path d="M11620 20007
L11620 20500
" />
<path d="M11620 21114
L11620 21607
" />
<path d="M11635 20009
L11635 20500
" />
<path d="M11635 21114
L11635 21604
" />
<path d="M11651 20012
L11651 20500
" />
<path d="M11651 21114
L11651 21601
" />
<path d="M11667 20014
L11667 20500
" />
<path d="M11667 21114
L11667 21599
" />
<path d="M11683 20018
L11683 20500
" />
<path d="M11683 21114
L11683 21596
" />
<path d="M11698 20021
L11698 20500
" />
<path d="M11698 21114
L11698 21592
" />
<path d="M11714 20025
L11714 20500
" />
<path d="M11714 21114
L11714 21588
" />
<path d="M11730 20029
L11730 20500
" />
<path d="M11730 21114
L11730 21584
" />
<path d="M11746 20034
L11746 20500
" />
<path d="M11746 21114
L11746 21579
" />
<path d="M11761 20039
L11761 20500
" />
<path d="M11761 21114
L11761 21574
" />
<path d="M11777 20044
L11777 20500
" />
<path d="M11777 21114
L11777 21569
" />
<path d="M11793 20050
L11793 20500
" />
<path d="M11793 21114
L11793 21564
" />
<path d="M11809 20056
L11809 20500
" />
<path d="M11809 21114
L11809 21557
" />
<path d="M11825 20062
L11825 20500
" />
<path d="M11825 21114
L11825 21551
" />
<path d="M11840 20069
L11840 20500
" />
<path d="M11840 21114
L11840 21544
" />
<path d="M11856 20076
L11856 20500
" />
<path d="M11856 21114
L11856 21537
" />
<path d="M11872 20083
L11872 20500
" />
<path d="M11872 21114
L11872 21530
" />
<path d="M11888 20091
L11888 20500
" />
<path d="M11888 21114
L11888 21522
" />
<path d="M11903 20100
L11903 20500
" />
<path d="M11903 21114
L11903 21514
" />
<path d="M11919 20109
L11919 20500
" />
<path d="M11919 21114
L11919 21505
" />
<path d="M11935 20118
L11935 20500
" />
<path d="M11935 21114
L11935 21496
" />
<path d="M11951 20127
L11951 20500
" />
<path d="M11951 21114
L11951 21486
" />
<path d="M11966 20138
L11966 20500
" />
<path d="M11966 21114
L11966 21475
" />
<path d="M11982 20148
L11982 20500
" />
<path d="M11982 21114
L11982 21465
" />
<path d="M11998 20160
L11998 20500
" />
<path d="M11998 21114
L11998 21453
" />
<path d="M12014 20172
L12014 20500
" />
<path d="M12014 21114
L12014 21442
" />
<path d="M12029 20184
L12029 20500
" />
<path d="M12029 21114
L12029 21429
" />
<path d="M12045 20198
L12045 20500
" />
<path d="M12045 21114
L12045 21416
" />
<path d="M12061 20211
L12061 20500
" />
<path d="M12061 21114
L12061 21402
" />
<path d="M12077 20226
L12077 20500
" />
<path d="M12077 21114
L12077 21387
" />
<path d="M12092 20241
L12092 20500
" />
<path d="M12092 21114
L12092 21372
" />
<path d="M12108 20257
L12108 20500
" />
<path d="M12108 21114
L12108 21356
" />
<path d="M12124 20275
L12124 20500
" />
<path d="M12124 21114
L12124 21338
" />
<path d="M12140 20293
L12140 20500
" />
<path d="M12140 21114
L12140 21320
" />
<path d="M12155 20312
L12155 20500
" />
<path d="M12155 21114
L12155 21301
" />
<path d="M12171 20333
L12171 20500
" />
<path d="M12171 21114
L12171 21281
" />
<path d="M12187 20355
L12187 20500
" />
<path d="M12187 21114
L12187 21259
" />
<path d="M12203 20378
L12203 20500
" />
<path d="M12203 21114
L12203 21235
" />
<path d="M12218 20404
L12218 21209
" />
<path d="M12234 20432
L12234 21181
" />
<path d="M12250 20462
L12250 21151
" />
<path d="M12266 20497
L12266 21116
" />
<path d="M12281 20537
L12281 21077
" />
<path d="M12297 20583
L12297 21030
" />
<path d="M12313 20643
L12313 20970
" />
<path d="M12329 20742
L12329 20872
" />
<path d="M10446 20807
L10801 20807
" />
<path d="M10624 20629
L10624 20984
" />
<path d="M14126.5 20421.6 A822.835 822.835 0.0 0 0 12672.8 20421.3 " />
<path d="M12672.8 21192.9 A822.835 822.835 0.0 0 0 14126.5 21192.6 " />
<path d="M14126.5 21192.6 A822.835 822.835 0.0 0 0 14126.4 20421.3 " />
<path d="M13399 20000
L13399 21614
" />
<path d="M13415 20000
L13415 21614
" />
<path d="M13431 20000
L13431 21613
" />
<path d="M13446 20001
L13446 21612
" />
<path d="M13462 20002
L13462 21611
" />
<path d="M13478 20003
L13478 21610
" />
<path d="M13494 20005
L13494 20500
" />
<path d="M13494 21114
L13494 21609
" />
<path d="M13509 20007
L13509 20500
" />
<path d="M13509 21114
L13509 21607
" />
<path d="M13525 20009
L13525 20500
" />
<path d="M13525 21114
L13525 21604
" />
<path d="M13541 20012
L13541 20500
" />
<path d="M13541 21114
L13541 21601
" />
<path d="M13557 20014
L13557 20500
" />
<path d="M13557 21114
L13557 21599
" />
<path d="M13572 20018
L13572 20500
" />
<path d="M13572 21114
L13572 21596
" />
<path d="M13588 20021
L13588 20500
" />
<path d="M13588 21114
L13588 21592
" />
<path d="M13604 20025
L13604 20500
" />
<path d="M13604 21114
L13604 21588
" />
<path d="M13620 20029
L13620 20500
" />
<path d="M13620 21114
L13620 21584
" />
<path d="M13635 20034
L13635 20500
" />
<path d="M13635 21114
L13635 21579
" />
<path d="M13651 20039
L13651 20500
" />
<path d="M13651 21114
L13651 21574
" />
<path d="M13667 20044
L13667 20500
" />
<path d="M13667 21114
L13667 21569
" />
<path d="M13683 20050
L13683 20500
" />
<path d="M13683 21114
L13683 21564
" />
<path d="M13699 20056
L13699 20500
" />
<path d="M13699 21114
L13699 21557
" />
<path d="M13714 20062
L13714 20500
" />
<path d="M13714 21114
L13714 21551
" />
<path d="M13730 20069
L13730 20500
" />
<path d="M13730 21114
L13730 21544
" />
<path d="M13746 20076
L13746 20500
" />
<path d="M13746 21114
L13746 21537
" />
<path d="M13762 20083
L13762 20500
" />
<path d="M13762 21114
L13762 21530
" />
<path d="M13777 20091
L13777 20500
" />
<path d="M13777 21114
L13777 21522
" />
<path d="M13793 20100
L13793 20500
" />
<path d="M13793 21114
L13793 21514
" />
<path d="M13809 20109
L13809 20500
" />
<path d="M13809 21114
L13809 21505
" />
<path d="M13825 20118
L13825 20500
" />
<path d="M13825 21114
L13825 21496
" />
<path d="M13840 20127
L13840 20500
" />
<path d="M13840 21114
L13840 21486
" />
<path d="M13856 20138
L13856 20500
" />
<path d="M13856 21114
L13856 21475
" />
<path d="M13872 20148
L13872 20500
" />
<path d="M13872 21114
L13872 21465
" />
<path d="M13888 20160
L13888 20500
" />
<path d="M13888 21114
L13888 21453
" />
<path d="M13903 20172
L13903 20500
" />
<path d="M13903 21114
L13903 21442
" />
<path d="M13919 20184
L13919 20500
" />
<path d="M13919 21114
L13919 21429
" />
<path d="M13935 20198
L13935 20500
" />
<path d="M13935 21114
L13935 21416
" />
<path d="M13951 20211
L13951 20500
" />
<path d="M13951 21114
L13951 21402
" />
<path d="M13966 20226
L13966 20500
" />
<path d="M13966 21114
L13966 21387
" />
<path d="M13982 20241
L13982 20500
" />
<path d="M13982 21114
L13982 21372
" />
<path d="M13998 20257
L13998 20500
" />
<path d="M13998 21114
L13998 21356
" />
<path d="M14014 20275
L14014 20500
" />
<path d="M14014 21114
L14014 21338
" />
<path d="M14029 20293
L14029 20500
" />
<path d="M14029 21114
L14029 21320
" />
<path d="M14045 20312
L14045 20500
" />
<path d="M14045 21114
L14045 21301
" />
<path d="M14061 20333
L14061 20500
" />
<path d="M14061 21114
L14061 21281
" />
<path d="M14077 20355
L14077 20500
" />
<path d="M14077 21114
L14077 21259
" />
<path d="M14092 20378
L14092 20500
" />
<path d="M14092 21114
L14092 21235
" />
<path d="M14108 20404
L14108 21209
" />
<path d="M14124 20432
L14124 21181
" />
<path d="M14140 20462
L14140 21151
" />
<path d="M14155 20497
L14155 21116
" />
<path d="M14171 20537
L14171 21077
" />
<path d="M14187 20583
L14187 21030
" />
<path d="M14203 20643
L14203 20970
" />
<path d="M14218 20742
L14218 20872
" />
<path d="M12336 20807
L12690 20807
" />
<path d="M12513 20629
L12513 20984
" />
<path d="M10458 1700
L10458 3748
" />
<path d="M12482 1700
L10458 1700
" />
<path d="M13505 3748
L10458 3748
" />
<path d="M12482 1700
L12482 2724
" />
<path d="M12482 2724
L13505 2724
" />
<path d="M13505 2724
L13505 3748
" />
<path d="M12982 1700
L13505 1700
" />
<path d="M13505 1700
L13505 2224
" />
<path d="M3067.98 14460.1 A783.465 783.465 0.0 0 0 4340.55 14521.9 " />
<path d="M4340.55 13549 A783.465 783.465 0.0 0 0 3067.98 13610.8 " />
<path d="M3316.48 14460.6 A590.551 590.551 0.0 0 0 4136.21 14460.6 " />
<path d="M4136.21 13610.2 A590.551 590.551 0.0 0 0 3316.48 13610.3 " />
<path d="M4340 14522
L4340 14460
" />
<path d="M4340 13610
L4340 13548
" />
<path d="M6943.83 13610.8 A783.465 783.465 0.0 0 0 5671.26 13549 " />
<path d="M5671.26 14521.9 A783.465 783.465 0.0 0 0 6943.83 14460.1 " />
<path d="M6695.33 13610.3 A590.551 590.551 0.0 0 0 5875.61 13610.2 " />
<path d="M5875.61 14460.6 A590.551 590.551 0.0 0 0 6695.33 14460.6 " />
<path d="M5671 13548
L5671 13610
" />
<path d="M5671 14460
L5671 14522
" />
</g>
<g style="fill:#000000; fill-opacity:0.0; 
stroke:#000000; stroke-width:59.0551; stroke-opacity:1; 
stroke-linecap:round; stroke-linejoin:round;">
<path d="M3399 17972
L3005 18366
" />
<path d="M3399 17972
L6942 17972
" />
<path d="M3005 18366
L3005 21909
" />
<path d="M6942 17972
L6942 21909
" />
<path d="M6942 21909
L3005 21909
" />
</g>
<g style="fill:#000000; fill-opacity:0.0; 
stroke:#000000; stroke-width:47.2441; stroke-opacity:1; 
stroke-linecap:round; stroke-linejoin:round;">
<path d="M738 3688
L738 2224
" />
<path d="M1415 3688
L1415 2224
" />
<path d="M1919 3688
L1919 2224
" />
<path d="M2596 3688
L2596 2224
" />
<path d="M3100 3720
L3100 2255
" />
<path d="M3777 3720
L3777 2255
" />
<path d="M4320 3720
L4320 2255
" />
<path d="M4998 3720
L4998 2255
" />
<path d="M5462 3720
L5462 2255
" />
<path d="M6139 3720
L6139 2255
" />
<path d="M6643 3720
L6643 2255
" />
<path d="M7320 3720
L7320 2255
" />
<path d="M7824 3720
L7824 2255
" />
<path d="M8501 3720
L8501 2255
" />
<path d="M4127 17736
L5899 17736
" />
<path d="M3635 16161
L3635 16751
" />
<path d="M5899 15177
L4127 15177
" />
<path d="M6391 16751
L6391 16161
" />
</g>
<g style="fill:#000000; fill-opacity:0.0; 
stroke:#000000; stroke-width:59.0551; stroke-opacity:1; 
stroke-linecap:round; stroke-linejoin:round;">
<path d="M7730 12460
L1431 12460
" />
<path d="M1431 255
L1431 12460
" />
<path d="M7730 255
L7730 12460
" />
<path d="M7730 255
L1431 255
" />
</g>
<g style="fill:#000000; fill-opacity:0.0; 
stroke:#000000; stroke-width:47.2441; stroke-opacity:1; 
stroke-linecap:round; stroke-linejoin:round;">
<path d="M7092 6669
L3061 6669
" />
<path d="M7092 12925
L3061 12925
" />
<path d="M7092 12925
L7092 6669
" />
<path d="M3061 12925
L3061 6669
" />
<path d="M6076 6669
L6076 5629
" />
<path d="M5076 6669
L5076 5636
" />
<path d="M4076 6669
L4076 5636
" />
</g>
<g style="fill:#000000; fill-opacity:0.0; 
stroke:#000000; stroke-width:59.0551; stroke-opacity:1; 
stroke-linecap:round; stroke-linejoin:round;">
<path d="M8576 3799
L8576 19862
" />
<path d="M14600 3799
L14600 19862
" />
<path d="M8576 3799
L14600 3799
" />
<path d="M8576 19862
L14600 19862
" />
</g> 
</svg>
