G04 #@! TF.FileFunction,Other,Fab,Bot*
%FSLAX46Y46*%
G04 Gerber Fmt 4.6, Leading zero omitted, Abs format (unit mm)*
G04 Created by KiCad (PCBNEW 4.0.7) date 07/08/18 15:45:41*
%MOMM*%
%LPD*%
G01*
G04 APERTURE LIST*
%ADD10C,0.100000*%
%ADD11C,0.150000*%
G04 APERTURE END LIST*
D10*
X125810000Y-92250000D02*
X133430000Y-92250000D01*
X133430000Y-92250000D02*
X133430000Y-82090000D01*
X133430000Y-82090000D02*
X125810000Y-82090000D01*
X125810000Y-82090000D02*
X125810000Y-92250000D01*
X138510000Y-84630000D02*
X120730000Y-84630000D01*
X120730000Y-84630000D02*
X120730000Y-126540000D01*
X120730000Y-126540000D02*
X122000000Y-127810000D01*
X122000000Y-127810000D02*
X138510000Y-127810000D01*
X138510000Y-127810000D02*
X138510000Y-84630000D01*
D11*
X131056667Y-102021904D02*
X131056667Y-102498095D01*
X131342381Y-101926666D02*
X130342381Y-102259999D01*
X131342381Y-102593333D01*
X131342381Y-102926666D02*
X130675714Y-102926666D01*
X130866190Y-102926666D02*
X130770952Y-102974285D01*
X130723333Y-103021904D01*
X130675714Y-103117142D01*
X130675714Y-103212381D01*
X131342381Y-103974286D02*
X130342381Y-103974286D01*
X131294762Y-103974286D02*
X131342381Y-103879048D01*
X131342381Y-103688571D01*
X131294762Y-103593333D01*
X131247143Y-103545714D01*
X131151905Y-103498095D01*
X130866190Y-103498095D01*
X130770952Y-103545714D01*
X130723333Y-103593333D01*
X130675714Y-103688571D01*
X130675714Y-103879048D01*
X130723333Y-103974286D01*
X130675714Y-104879048D02*
X131342381Y-104879048D01*
X130675714Y-104450476D02*
X131199524Y-104450476D01*
X131294762Y-104498095D01*
X131342381Y-104593333D01*
X131342381Y-104736191D01*
X131294762Y-104831429D01*
X131247143Y-104879048D01*
X131342381Y-105355238D02*
X130675714Y-105355238D01*
X130342381Y-105355238D02*
X130390000Y-105307619D01*
X130437619Y-105355238D01*
X130390000Y-105402857D01*
X130342381Y-105355238D01*
X130437619Y-105355238D01*
X130675714Y-105831428D02*
X131342381Y-105831428D01*
X130770952Y-105831428D02*
X130723333Y-105879047D01*
X130675714Y-105974285D01*
X130675714Y-106117143D01*
X130723333Y-106212381D01*
X130818571Y-106260000D01*
X131342381Y-106260000D01*
X131342381Y-106879047D02*
X131294762Y-106783809D01*
X131247143Y-106736190D01*
X131151905Y-106688571D01*
X130866190Y-106688571D01*
X130770952Y-106736190D01*
X130723333Y-106783809D01*
X130675714Y-106879047D01*
X130675714Y-107021905D01*
X130723333Y-107117143D01*
X130770952Y-107164762D01*
X130866190Y-107212381D01*
X131151905Y-107212381D01*
X131247143Y-107164762D01*
X131294762Y-107117143D01*
X131342381Y-107021905D01*
X131342381Y-106879047D01*
X131437619Y-107402857D02*
X131437619Y-108164762D01*
X131342381Y-108402857D02*
X130342381Y-108402857D01*
X131342381Y-108974286D01*
X130342381Y-108974286D01*
X131342381Y-109879048D02*
X130818571Y-109879048D01*
X130723333Y-109831429D01*
X130675714Y-109736191D01*
X130675714Y-109545714D01*
X130723333Y-109450476D01*
X131294762Y-109879048D02*
X131342381Y-109783810D01*
X131342381Y-109545714D01*
X131294762Y-109450476D01*
X131199524Y-109402857D01*
X131104286Y-109402857D01*
X131009048Y-109450476D01*
X130961429Y-109545714D01*
X130961429Y-109783810D01*
X130913810Y-109879048D01*
X130675714Y-110355238D02*
X131342381Y-110355238D01*
X130770952Y-110355238D02*
X130723333Y-110402857D01*
X130675714Y-110498095D01*
X130675714Y-110640953D01*
X130723333Y-110736191D01*
X130818571Y-110783810D01*
X131342381Y-110783810D01*
X131342381Y-111402857D02*
X131294762Y-111307619D01*
X131247143Y-111260000D01*
X131151905Y-111212381D01*
X130866190Y-111212381D01*
X130770952Y-111260000D01*
X130723333Y-111307619D01*
X130675714Y-111402857D01*
X130675714Y-111545715D01*
X130723333Y-111640953D01*
X130770952Y-111688572D01*
X130866190Y-111736191D01*
X131151905Y-111736191D01*
X131247143Y-111688572D01*
X131294762Y-111640953D01*
X131342381Y-111545715D01*
X131342381Y-111402857D01*
X131437619Y-111926667D02*
X131437619Y-112688572D01*
X130675714Y-112831429D02*
X131342381Y-113069524D01*
X130675714Y-113307620D01*
X130342381Y-113593334D02*
X130342381Y-114212382D01*
X130723333Y-113879048D01*
X130723333Y-114021906D01*
X130770952Y-114117144D01*
X130818571Y-114164763D01*
X130913810Y-114212382D01*
X131151905Y-114212382D01*
X131247143Y-114164763D01*
X131294762Y-114117144D01*
X131342381Y-114021906D01*
X131342381Y-113736191D01*
X131294762Y-113640953D01*
X131247143Y-113593334D01*
X131247143Y-114640953D02*
X131294762Y-114688572D01*
X131342381Y-114640953D01*
X131294762Y-114593334D01*
X131247143Y-114640953D01*
X131342381Y-114640953D01*
X131342381Y-115021905D02*
X130675714Y-115545715D01*
X130675714Y-115021905D02*
X131342381Y-115545715D01*
X128516667Y-106775714D02*
X128516667Y-107251905D01*
X128802381Y-106680476D02*
X127802381Y-107013809D01*
X128802381Y-107347143D01*
X128802381Y-108204286D02*
X128802381Y-107632857D01*
X128802381Y-107918571D02*
X127802381Y-107918571D01*
X127945238Y-107823333D01*
X128040476Y-107728095D01*
X128088095Y-107632857D01*
X149999999Y-81292857D02*
X150571428Y-81292857D01*
X150571428Y-80092857D01*
X149428570Y-81292857D02*
X149542856Y-81235714D01*
X149599999Y-81178571D01*
X149657142Y-81064286D01*
X149657142Y-80721429D01*
X149599999Y-80607143D01*
X149542856Y-80550000D01*
X149428570Y-80492857D01*
X149257142Y-80492857D01*
X149142856Y-80550000D01*
X149085713Y-80607143D01*
X149028570Y-80721429D01*
X149028570Y-81064286D01*
X149085713Y-81178571D01*
X149142856Y-81235714D01*
X149257142Y-81292857D01*
X149428570Y-81292857D01*
X147999999Y-80492857D02*
X147999999Y-81464286D01*
X148057142Y-81578571D01*
X148114285Y-81635714D01*
X148228570Y-81692857D01*
X148399999Y-81692857D01*
X148514285Y-81635714D01*
X147999999Y-81235714D02*
X148114285Y-81292857D01*
X148342856Y-81292857D01*
X148457142Y-81235714D01*
X148514285Y-81178571D01*
X148571428Y-81064286D01*
X148571428Y-80721429D01*
X148514285Y-80607143D01*
X148457142Y-80550000D01*
X148342856Y-80492857D01*
X148114285Y-80492857D01*
X147999999Y-80550000D01*
X147428571Y-81292857D02*
X147428571Y-80492857D01*
X147428571Y-80092857D02*
X147485714Y-80150000D01*
X147428571Y-80207143D01*
X147371428Y-80150000D01*
X147428571Y-80092857D01*
X147428571Y-80207143D01*
X146342856Y-81235714D02*
X146457142Y-81292857D01*
X146685713Y-81292857D01*
X146799999Y-81235714D01*
X146857142Y-81178571D01*
X146914285Y-81064286D01*
X146914285Y-80721429D01*
X146857142Y-80607143D01*
X146799999Y-80550000D01*
X146685713Y-80492857D01*
X146457142Y-80492857D01*
X146342856Y-80550000D01*
X145885714Y-81235714D02*
X145714285Y-81292857D01*
X145428571Y-81292857D01*
X145314285Y-81235714D01*
X145257142Y-81178571D01*
X145199999Y-81064286D01*
X145199999Y-80950000D01*
X145257142Y-80835714D01*
X145314285Y-80778571D01*
X145428571Y-80721429D01*
X145657142Y-80664286D01*
X145771428Y-80607143D01*
X145828571Y-80550000D01*
X145885714Y-80435714D01*
X145885714Y-80321429D01*
X145828571Y-80207143D01*
X145771428Y-80150000D01*
X145657142Y-80092857D01*
X145371428Y-80092857D01*
X145199999Y-80150000D01*
X144685714Y-81292857D02*
X144685714Y-80092857D01*
X144171428Y-81292857D02*
X144171428Y-80664286D01*
X144228571Y-80550000D01*
X144342857Y-80492857D01*
X144514285Y-80492857D01*
X144628571Y-80550000D01*
X144685714Y-80607143D01*
X143600000Y-81292857D02*
X143600000Y-80492857D01*
X143600000Y-80092857D02*
X143657143Y-80150000D01*
X143600000Y-80207143D01*
X143542857Y-80150000D01*
X143600000Y-80092857D01*
X143600000Y-80207143D01*
X143199999Y-80492857D02*
X142742856Y-80492857D01*
X143028571Y-81292857D02*
X143028571Y-80264286D01*
X142971428Y-80150000D01*
X142857142Y-80092857D01*
X142742856Y-80092857D01*
X142514285Y-80492857D02*
X142057142Y-80492857D01*
X142342857Y-80092857D02*
X142342857Y-81121429D01*
X142285714Y-81235714D01*
X142171428Y-81292857D01*
X142057142Y-81292857D01*
M02*
